<?xml version="1.0" encoding="UTF-8"?>
<svg xmlns="http://www.w3.org/2000/svg" xmlns:xlink="http://www.w3.org/1999/xlink" width="60pt" height="60pt" viewBox="0 0 60 60" version="1.2">
<defs>
<clipPath id="clip1">
  <path d="M 3.039062 33 L 57.039062 33 L 57.039062 60 L 3.039062 60 Z M 3.039062 33 "/>
</clipPath>
</defs>
<g id="surface1">
<g clip-path="url(#clip1)" clip-rule="nonzero">
<path style=" stroke:none;fill-rule:nonzero;fill:rgb(6.269836%,5.879211%,5.099487%);fill-opacity:1;" d="M 40.902344 33.003906 C 40.828125 36.246094 30.074219 44.195312 30.074219 44.195312 C 30.074219 44.195312 19.320312 36.246094 19.25 33.003906 C 10.167969 33.832031 3.054688 33.003906 3.054688 50.710938 C 3.054688 59.5625 9.546875 60 18.042969 60 C 18.96875 60 19.921875 59.992188 20.890625 59.992188 L 39.257812 59.992188 C 40.226562 59.992188 41.175781 60 42.105469 60 C 50.601562 60 57.09375 59.566406 57.09375 50.710938 C 57.09375 33.003906 49.980469 33.832031 40.902344 33.003906 "/>
</g>
<path style=" stroke:none;fill-rule:nonzero;fill:rgb(6.269836%,5.879211%,5.099487%);fill-opacity:1;" d="M 30.078125 35.328125 C 38.292969 35.328125 44.949219 23.011719 44.949219 14.828125 C 44.949219 6.636719 38.292969 0 30.078125 0 C 21.863281 0 15.207031 6.636719 15.207031 14.828125 C 15.207031 23.015625 21.863281 35.328125 30.078125 35.328125 "/>
</g>
</svg>
