<?xml version="1.0" encoding="UTF-8"?>
<svg xmlns="http://www.w3.org/2000/svg" xmlns:xlink="http://www.w3.org/1999/xlink" width="150pt" height="74.999997pt" viewBox="0 0 150 74.999997" version="1.2">
<defs>
<clipPath id="clip1">
  <path d="M 38.007812 0.507812 L 112.257812 0.507812 L 112.257812 74.757812 L 38.007812 74.757812 Z M 38.007812 0.507812 "/>
</clipPath>
<clipPath id="clip2">
  <path d="M 60 32.097656 L 90 32.097656 L 90 62.097656 L 60 62.097656 Z M 60 32.097656 "/>
</clipPath>
</defs>
<g id="surface1">
<g clip-path="url(#clip1)" clip-rule="nonzero">
<path style=" stroke:none;fill-rule:nonzero;fill:rgb(96.859741%,57.649231%,10.198975%);fill-opacity:1;" d="M 103.6875 17.640625 C 103.6875 17.640625 54.117188 17.640625 45.566406 17.640625 C 43.0625 17.640625 40.832031 17.136719 40.832031 14.785156 L 103.6875 11.929688 L 103.6875 6.21875 C 103.6875 1.488281 99.851562 0.507812 95.121094 0.507812 L 43.777344 9.074219 C 39.203125 10.089844 38.007812 12.027344 38.007812 14.785156 L 38.007812 66.1875 C 38.007812 70.917969 41.84375 74.757812 46.574219 74.757812 L 103.6875 74.757812 C 108.417969 74.757812 112.257812 70.917969 112.257812 66.1875 L 112.257812 26.207031 C 112.257812 21.480469 108.417969 17.640625 103.6875 17.640625 Z M 100.832031 51.910156 C 97.679688 51.910156 95.121094 49.351562 95.121094 46.199219 C 95.121094 43.046875 97.679688 40.488281 100.832031 40.488281 C 103.984375 40.488281 106.542969 43.046875 106.542969 46.199219 C 106.542969 49.351562 103.984375 51.910156 100.832031 51.910156 Z M 100.832031 51.910156 "/>
</g>
<g clip-path="url(#clip2)" clip-rule="nonzero">
<path style=" stroke:none;fill-rule:nonzero;fill:rgb(100%,100%,100%);fill-opacity:1;" d="M 75 32.097656 C 66.726562 32.097656 60 38.824219 60 47.097656 C 60 55.371094 66.726562 62.097656 75 62.097656 C 83.273438 62.097656 90 55.371094 90 47.097656 C 90 38.824219 83.273438 32.097656 75 32.097656 Z M 75 61.160156 C 67.242188 61.160156 60.9375 54.855469 60.9375 47.097656 C 60.9375 39.339844 67.242188 33.035156 75 33.035156 C 82.757812 33.035156 89.0625 39.339844 89.0625 47.097656 C 89.0625 54.855469 82.757812 61.160156 75 61.160156 Z M 75 61.160156 "/>
</g>
<path style=" stroke:none;fill-rule:nonzero;fill:rgb(100%,100%,100%);fill-opacity:1;" d="M 75 34.675781 C 68.132812 34.675781 62.578125 40.230469 62.578125 47.097656 C 62.578125 53.964844 68.132812 59.519531 75 59.519531 C 81.867188 59.519531 87.421875 53.964844 87.421875 47.097656 C 87.421875 40.230469 81.867188 34.675781 75 34.675781 Z M 75 58.582031 C 68.671875 58.582031 63.515625 53.425781 63.515625 47.097656 C 63.515625 40.769531 68.671875 35.613281 75 35.613281 C 81.328125 35.613281 86.484375 40.769531 86.484375 47.097656 C 86.484375 53.425781 81.328125 58.582031 75 58.582031 Z M 75 58.582031 "/>
<path style=" stroke:none;fill-rule:nonzero;fill:rgb(100%,100%,100%);fill-opacity:1;" d="M 75.867188 44.941406 C 74.976562 44.660156 73.875 44.285156 73.875 43.910156 C 73.875 43.394531 74.8125 43.347656 75.09375 43.347656 C 76.007812 43.347656 76.757812 43.746094 77.109375 44.097656 C 77.109375 44.097656 77.109375 44.097656 77.132812 44.097656 C 77.625 44.542969 78.09375 44.777344 78.585938 44.777344 C 79.664062 44.777344 80.554688 43.910156 80.554688 42.832031 C 80.554688 42.433594 80.4375 42.035156 80.203125 41.707031 C 80.203125 41.707031 80.203125 41.683594 80.179688 41.683594 C 79.5 40.722656 78.375 40.042969 76.921875 39.738281 L 76.921875 39.433594 C 76.921875 38.425781 76.101562 37.605469 75.09375 37.605469 C 74.085938 37.605469 73.289062 38.425781 73.289062 39.433594 L 73.289062 39.714844 C 70.734375 40.324219 69.796875 42.222656 69.796875 43.933594 C 69.796875 47.191406 72.539062 48.105469 74.554688 48.761719 C 75.867188 49.207031 76.734375 49.511719 76.734375 50.027344 C 76.734375 50.332031 76.734375 50.847656 75.117188 50.847656 C 74.25 50.847656 73.453125 50.472656 72.65625 49.675781 C 72.421875 49.441406 71.953125 48.972656 71.15625 48.972656 C 70.078125 48.972656 69.210938 49.863281 69.210938 50.941406 C 69.210938 51.292969 69.304688 51.667969 69.515625 51.972656 C 70.265625 53.191406 71.671875 54.128906 73.3125 54.527344 L 73.3125 54.808594 C 73.3125 55.816406 74.132812 56.636719 75.117188 56.636719 C 76.125 56.636719 76.945312 55.816406 76.945312 54.808594 L 76.945312 54.550781 C 79.382812 54.035156 80.8125 52.394531 80.8125 50.050781 C 80.8125 46.582031 77.835938 45.597656 75.867188 44.941406 Z M 75.984375 53.707031 L 75.984375 54.761719 C 75.984375 55.253906 75.585938 55.652344 75.09375 55.652344 C 74.625 55.652344 74.226562 55.253906 74.226562 54.761719 L 74.226562 53.707031 C 72.375 53.472656 70.945312 52.488281 70.289062 51.457031 C 70.195312 51.316406 70.148438 51.105469 70.148438 50.917969 C 70.148438 50.355469 70.59375 49.886719 71.15625 49.886719 C 71.578125 49.886719 71.8125 50.121094 72 50.308594 C 72.796875 51.105469 73.804688 51.761719 75.117188 51.761719 C 76.851562 51.761719 77.671875 51.199219 77.671875 50.003906 C 77.671875 47.238281 70.734375 48.503906 70.734375 43.933594 C 70.734375 42.246094 71.789062 40.769531 74.226562 40.511719 L 74.226562 39.433594 C 74.226562 38.941406 74.625 38.542969 75.09375 38.542969 C 75.585938 38.542969 75.984375 38.941406 75.984375 39.433594 L 75.984375 40.535156 C 77.507812 40.722656 78.75 41.332031 79.40625 42.246094 C 79.523438 42.410156 79.59375 42.621094 79.59375 42.855469 C 79.59375 43.417969 79.148438 43.863281 78.5625 43.863281 C 78.304688 43.863281 78.023438 43.722656 77.742188 43.441406 C 77.15625 42.878906 76.171875 42.433594 75.070312 42.433594 C 73.5 42.433594 72.914062 43.183594 72.914062 43.933594 C 72.914062 46.417969 79.851562 45.269531 79.851562 50.003906 C 79.875 52.089844 78.539062 53.472656 75.984375 53.707031 Z M 75.984375 53.707031 "/>
</g>
</svg>
