<?xml version="1.0" encoding="UTF-8"?>
<svg xmlns="http://www.w3.org/2000/svg" xmlns:xlink="http://www.w3.org/1999/xlink" width="150pt" height="74.999997pt" viewBox="0 0 150 74.999997" version="1.2">
<defs>
<clipPath id="clip1">
  <path d="M 5.058594 18.371094 L 34 18.371094 L 34 51 L 5.058594 51 Z M 5.058594 18.371094 "/>
</clipPath>
<clipPath id="clip2">
  <path d="M 12 27 L 36.558594 27 L 36.558594 54.371094 L 12 54.371094 Z M 12 27 "/>
</clipPath>
</defs>
<g id="surface1">
<path style=" stroke:none;fill-rule:nonzero;fill:rgb(0.389099%,12.939453%,41.178894%);fill-opacity:1;" d="M 33.179688 30.867188 C 33.179688 34.066406 31.863281 36.640625 29.21875 38.601562 C 26.570312 40.558594 22.875 41.53125 18.132812 41.53125 L 15.503906 41.53125 L 13.484375 50.265625 L 6.546875 50.265625 L 12.730469 23.4375 L 22.359375 23.4375 C 24.113281 23.4375 25.632812 23.5625 26.933594 23.796875 C 28.234375 24.03125 29.359375 24.457031 30.300781 25.035156 C 31.222656 25.605469 31.9375 26.367188 32.445312 27.324219 C 32.933594 28.296875 33.183594 29.46875 33.183594 30.867188 Z M 25.804688 31.542969 C 25.804688 30.492188 25.425781 29.722656 24.660156 29.203125 C 23.894531 28.683594 22.78125 28.449219 21.289062 28.449219 L 18.503906 28.449219 L 16.65625 36.476562 L 19.148438 36.476562 C 21.246094 36.476562 22.886719 36.054688 24.046875 35.191406 C 25.222656 34.328125 25.800781 33.105469 25.800781 31.523438 Z M 45.941406 48.132812 L 44.46875 49.109375 C 43.890625 49.484375 43.359375 49.785156 42.871094 50.003906 C 42.257812 50.265625 41.625 50.472656 40.976562 50.628906 C 40.382812 50.769531 39.566406 50.851562 38.535156 50.851562 C 36.859375 50.851562 35.480469 50.382812 34.417969 49.4375 C 33.355469 48.496094 32.820312 47.257812 32.820312 45.734375 C 32.820312 44.132812 33.195312 42.808594 33.949219 41.671875 C 34.703125 40.535156 35.828125 39.664062 37.320312 39.007812 C 38.714844 38.378906 40.375 37.921875 42.285156 37.640625 L 48.535156 37.027344 L 48.613281 36.683594 C 48.660156 36.527344 48.675781 36.335938 48.675781 36.136719 C 48.695312 35.742188 48.597656 35.382812 48.382812 35.050781 C 48.164062 34.722656 47.875 34.488281 47.507812 34.347656 C 46.726562 34.003906 45.53125 33.832031 43.96875 33.832031 C 42.902344 33.832031 41.726562 34.003906 40.429688 34.363281 L 37.53125 35.257812 L 36.9375 35.257812 L 37.910156 30.460938 C 38.660156 30.273438 39.859375 30.070312 41.414062 29.816406 C 42.972656 29.5625 44.578125 29.453125 46.144531 29.453125 C 49.308594 29.453125 51.640625 29.84375 53.113281 30.691406 C 54.601562 31.523438 55.335938 32.808594 55.335938 34.550781 C 55.335938 34.867188 55.3125 35.179688 55.273438 35.492188 C 55.242188 35.832031 55.183594 36.164062 55.105469 36.496094 L 51.941406 50.265625 L 45.503906 50.265625 Z M 47.664062 40.730469 L 44.40625 41.078125 C 43.523438 41.175781 42.664062 41.371094 41.824219 41.65625 C 41.085938 41.921875 40.523438 42.300781 40.148438 42.769531 C 39.757812 43.253906 39.570312 43.878906 39.570312 44.679688 C 39.570312 45.371094 39.824219 45.851562 40.335938 46.152344 C 40.851562 46.457031 41.589844 46.578125 42.578125 46.578125 C 43.21875 46.578125 43.890625 46.4375 44.628906 46.136719 C 45.355469 45.84375 46.039062 45.464844 46.679688 45.007812 Z M 65.265625 57.699219 L 58.136719 57.699219 L 63.289062 49.875 L 59.972656 30.054688 L 66.59375 30.054688 L 68.347656 43.304688 L 76.03125 30.054688 L 82.875 30.054688 Z M 65.265625 57.699219 "/>
<path style=" stroke:none;fill-rule:nonzero;fill:rgb(0%,61.569214%,88.62915%);fill-opacity:1;" d="M 108.777344 30.867188 C 108.777344 34.066406 107.460938 36.640625 104.816406 38.601562 C 102.167969 40.558594 98.472656 41.53125 93.730469 41.53125 L 91.101562 41.53125 L 89.082031 50.265625 L 82.144531 50.265625 L 88.316406 23.453125 L 97.945312 23.453125 C 99.695312 23.453125 101.214844 23.578125 102.515625 23.8125 C 103.816406 24.046875 104.945312 24.472656 105.886719 25.050781 C 106.808594 25.621094 107.523438 26.382812 108.03125 27.339844 C 108.53125 28.316406 108.78125 29.472656 108.78125 30.851562 Z M 101.386719 31.542969 C 101.386719 30.492188 101.007812 29.722656 100.242188 29.203125 C 99.476562 28.683594 98.363281 28.449219 96.871094 28.449219 L 94.085938 28.449219 L 92.238281 36.476562 L 94.726562 36.476562 C 96.824219 36.476562 98.464844 36.054688 99.625 35.191406 C 100.800781 34.328125 101.378906 33.105469 101.378906 31.523438 Z M 121.539062 48.132812 L 120.066406 49.109375 C 119.488281 49.484375 118.957031 49.785156 118.46875 50.003906 C 117.855469 50.265625 117.222656 50.472656 116.574219 50.628906 C 115.980469 50.769531 115.164062 50.851562 114.132812 50.851562 C 112.457031 50.851562 111.078125 50.382812 110.015625 49.4375 C 108.953125 48.496094 108.417969 47.257812 108.417969 45.734375 C 108.417969 44.132812 108.792969 42.808594 109.546875 41.671875 C 110.300781 40.535156 111.425781 39.664062 112.917969 39.007812 C 114.3125 38.378906 115.972656 37.921875 117.882812 37.640625 L 124.132812 37.027344 L 124.210938 36.683594 C 124.257812 36.527344 124.273438 36.335938 124.273438 36.136719 C 124.292969 35.742188 124.195312 35.382812 123.980469 35.050781 C 123.761719 34.722656 123.472656 34.488281 123.105469 34.347656 C 122.324219 34.003906 121.128906 33.832031 119.566406 33.832031 C 118.5 33.832031 117.324219 34.003906 116.027344 34.363281 L 113.128906 35.257812 L 112.535156 35.257812 L 113.507812 30.460938 C 114.257812 30.273438 115.457031 30.070312 117.011719 29.816406 C 118.570312 29.5625 120.175781 29.453125 121.742188 29.453125 C 124.90625 29.453125 127.238281 29.84375 128.710938 30.691406 C 130.199219 31.523438 130.933594 32.808594 130.933594 34.550781 C 130.933594 34.867188 130.914062 35.179688 130.871094 35.492188 C 130.839844 35.832031 130.78125 36.164062 130.703125 36.496094 L 127.539062 50.265625 L 121.089844 50.265625 Z M 123.261719 40.730469 L 120.003906 41.078125 C 119.121094 41.175781 118.261719 41.371094 117.421875 41.65625 C 116.683594 41.921875 116.121094 42.300781 115.746094 42.769531 C 115.355469 43.253906 115.167969 43.878906 115.167969 44.679688 C 115.167969 45.371094 115.421875 45.851562 115.933594 46.152344 C 116.449219 46.457031 117.1875 46.578125 118.175781 46.578125 C 118.816406 46.578125 119.488281 46.4375 120.226562 46.136719 C 120.953125 45.84375 121.636719 45.464844 122.277344 45.007812 Z M 146.390625 22.242188 L 139.921875 50.277344 L 133.410156 50.277344 L 139.875 22.242188 Z M 146.390625 22.242188 "/>
<g clip-path="url(#clip1)" clip-rule="nonzero">
<path style=" stroke:none;fill-rule:nonzero;fill:rgb(0%,18.818665%,52.938843%);fill-opacity:1;" d="M 31.472656 21.09375 C 29.800781 19.1875 26.777344 18.371094 22.90625 18.371094 L 11.679688 18.371094 C 10.890625 18.371094 10.214844 18.945312 10.09375 19.726562 L 5.421875 49.367188 C 5.335938 49.894531 5.695312 50.386719 6.222656 50.46875 C 6.273438 50.476562 6.324219 50.480469 6.371094 50.480469 L 13.304688 50.480469 L 15.042969 39.441406 L 14.988281 39.789062 C 15.113281 39.007812 15.785156 38.433594 16.570312 38.433594 L 19.867188 38.433594 C 26.335938 38.433594 31.402344 35.804688 32.878906 28.203125 C 32.925781 27.980469 32.960938 27.761719 32.996094 27.546875 C 33.433594 24.738281 32.992188 22.824219 31.472656 21.09375 Z M 31.472656 21.09375 "/>
<path style=" stroke:none;fill-rule:nonzero;fill:rgb(0%,18.818665%,52.938843%);fill-opacity:1;" d="M 31.472656 21.09375 C 29.800781 19.1875 26.777344 18.371094 22.90625 18.371094 L 11.679688 18.371094 C 10.890625 18.371094 10.214844 18.945312 10.09375 19.726562 L 5.421875 49.367188 C 5.335938 49.894531 5.695312 50.386719 6.222656 50.46875 C 6.273438 50.476562 6.324219 50.480469 6.371094 50.480469 L 13.304688 50.480469 L 15.042969 39.441406 L 14.988281 39.789062 C 15.113281 39.007812 15.785156 38.433594 16.570312 38.433594 L 19.867188 38.433594 C 26.335938 38.433594 31.402344 35.804688 32.878906 28.203125 C 32.925781 27.980469 32.960938 27.761719 32.996094 27.546875 C 33.433594 24.738281 32.992188 22.824219 31.472656 21.09375 Z M 31.472656 21.09375 "/>
<path style=" stroke:none;fill-rule:nonzero;fill:rgb(0%,18.818665%,52.938843%);fill-opacity:1;" d="M 16.914062 27.585938 C 17.019531 26.902344 17.609375 26.398438 18.300781 26.398438 L 27.101562 26.398438 C 28.140625 26.398438 29.113281 26.464844 30.003906 26.609375 C 30.492188 26.6875 30.96875 26.792969 31.441406 26.929688 C 31.980469 27.078125 32.5 27.289062 32.992188 27.546875 C 33.433594 24.738281 32.992188 22.824219 31.472656 21.09375 C 29.796875 19.1875 26.777344 18.371094 22.90625 18.371094 L 11.679688 18.371094 C 10.890625 18.371094 10.21875 18.945312 10.09375 19.726562 L 5.417969 49.367188 C 5.335938 49.890625 5.695312 50.386719 6.21875 50.46875 C 6.269531 50.476562 6.320312 50.480469 6.371094 50.480469 L 13.300781 50.480469 L 15.042969 39.441406 Z M 16.914062 27.585938 "/>
</g>
<g clip-path="url(#clip2)" clip-rule="nonzero">
<path style=" stroke:none;fill-rule:nonzero;fill:rgb(0%,61.178589%,87.059021%);fill-opacity:1;" d="M 32.996094 27.546875 C 32.960938 27.765625 32.921875 27.984375 32.878906 28.203125 C 31.402344 35.804688 26.335938 38.433594 19.867188 38.433594 L 16.570312 38.433594 C 15.78125 38.433594 15.109375 39.007812 14.988281 39.789062 L 13.300781 50.480469 L 12.820312 53.511719 C 12.75 53.972656 13.0625 54.40625 13.523438 54.476562 C 13.566406 54.484375 13.609375 54.488281 13.65625 54.488281 L 19.5 54.488281 C 20.1875 54.488281 20.777344 53.984375 20.886719 53.300781 L 20.941406 53.003906 L 22.042969 46.027344 L 22.113281 45.640625 C 22.222656 44.957031 22.8125 44.457031 23.503906 44.457031 L 24.378906 44.457031 C 30.039062 44.457031 34.46875 42.15625 35.765625 35.507812 C 36.304688 32.730469 36.023438 30.410156 34.59375 28.78125 C 34.140625 28.273438 33.597656 27.855469 32.996094 27.546875 Z M 32.996094 27.546875 "/>
</g>
<path style=" stroke:none;fill-rule:nonzero;fill:rgb(0.389099%,12.939453%,41.178894%);fill-opacity:1;" d="M 31.445312 26.929688 C 31.21875 26.863281 30.984375 26.804688 30.746094 26.75 C 30.507812 26.699219 30.257812 26.652344 30.003906 26.609375 C 29.113281 26.464844 28.144531 26.398438 27.101562 26.398438 L 18.300781 26.398438 C 17.609375 26.398438 17.019531 26.902344 16.914062 27.585938 L 15.042969 39.445312 L 14.988281 39.789062 C 15.109375 39.007812 15.777344 38.433594 16.566406 38.433594 L 19.863281 38.433594 C 26.332031 38.433594 31.398438 35.804688 32.878906 28.203125 C 32.921875 27.980469 32.957031 27.761719 32.992188 27.546875 C 32.601562 27.34375 32.195312 27.171875 31.773438 27.035156 C 31.667969 26.996094 31.558594 26.960938 31.445312 26.929688 Z M 31.445312 26.929688 "/>
</g>
</svg>
