<?xml version="1.0" encoding="UTF-8"?>
<svg xmlns="http://www.w3.org/2000/svg" xmlns:xlink="http://www.w3.org/1999/xlink" width="150pt" height="149.999998pt" viewBox="0 0 150 149.999998" version="1.2">
<defs>
<clipPath id="clip1">
  <path d="M 11.386719 13.136719 L 109 13.136719 L 109 113 L 11.386719 113 Z M 11.386719 13.136719 "/>
</clipPath>
<clipPath id="clip2">
  <path d="M 38 37 L 136 37 L 136 136.886719 L 38 136.886719 Z M 38 37 "/>
</clipPath>
</defs>
<g id="surface1">
<g clip-path="url(#clip1)" clip-rule="nonzero">
<path style=" stroke:none;fill-rule:nonzero;fill:rgb(8.239746%,39.608765%,75.289917%);fill-opacity:1;" d="M 58.445312 40.015625 L 58.464844 40.019531 C 58.820312 38.503906 60.121094 37.390625 61.746094 37.390625 L 108.019531 37.390625 C 108.078125 37.390625 108.136719 37.367188 108.195312 37.367188 C 107.210938 21.015625 93.4375 13.4375 81.289062 13.4375 L 35.011719 13.4375 C 33.386719 13.4375 32.085938 14.582031 31.734375 16.097656 L 31.714844 16.089844 L 11.488281 108.609375 L 11.53125 108.609375 C 11.484375 108.828125 11.398438 109.039062 11.398438 109.273438 C 11.398438 111.167969 12.933594 112.664062 14.832031 112.664062 L 42.558594 112.664062 Z M 58.445312 40.015625 "/>
</g>
<g clip-path="url(#clip2)" clip-rule="nonzero">
<path style=" stroke:none;fill-rule:nonzero;fill:rgb(1.179504%,60.778809%,89.7995%);fill-opacity:1;" d="M 108.195312 37.367188 C 108.378906 40.367188 108.179688 43.628906 107.410156 47.230469 C 103.007812 67.746094 87.101562 78.421875 67.441406 78.421875 C 67.441406 78.421875 55.523438 78.421875 52.628906 78.421875 C 50.839844 78.421875 49.992188 79.46875 49.605469 80.269531 L 43.628906 107.808594 L 42.582031 112.699219 L 42.558594 112.699219 L 38.222656 132.53125 L 38.265625 132.535156 C 38.21875 132.753906 38.132812 132.964844 38.132812 133.199219 C 38.132812 135.09375 39.667969 136.621094 41.566406 136.621094 L 66.757812 136.621094 L 66.800781 136.585938 C 68.421875 136.5625 69.710938 135.410156 70.046875 133.890625 L 70.109375 133.839844 L 76.332031 105.042969 C 76.332031 105.042969 76.765625 102.292969 79.664062 102.292969 C 82.5625 102.292969 94.015625 102.292969 94.015625 102.292969 C 113.675781 102.292969 129.742188 91.667969 134.148438 71.148438 C 139.101562 48.019531 122.539062 37.453125 108.195312 37.367188 Z M 108.195312 37.367188 "/>
</g>
<path style=" stroke:none;fill-rule:nonzero;fill:rgb(15.689087%,20.779419%,57.649231%);fill-opacity:1;" d="M 61.746094 37.390625 C 60.117188 37.390625 58.816406 38.503906 58.464844 40.019531 L 58.445312 40.015625 L 49.601562 80.273438 C 49.988281 79.472656 50.835938 78.425781 52.625 78.425781 C 55.523438 78.425781 67.171875 78.425781 67.171875 78.425781 C 86.832031 78.425781 103.003906 67.746094 107.40625 47.234375 C 108.179688 43.632812 108.375 40.371094 108.191406 37.371094 C 108.136719 37.367188 108.074219 37.390625 108.019531 37.390625 Z M 61.746094 37.390625 "/>
</g>
</svg>
