<?xml version="1.0" encoding="UTF-8"?>
<svg xmlns="http://www.w3.org/2000/svg" xmlns:xlink="http://www.w3.org/1999/xlink" width="150pt" height="112.499997pt" viewBox="0 0 150 112.499997" version="1.2">
<defs>
<clipPath id="clip1">
  <path d="M 2.945312 0 L 149.667969 0 L 149.667969 112.003906 L 2.945312 112.003906 Z M 2.945312 0 "/>
</clipPath>
<clipPath id="clip2">
  <path d="M 6.230469 27.925781 L 39 27.925781 L 39 65 L 6.230469 65 Z M 6.230469 27.925781 "/>
</clipPath>
<clipPath id="clip3">
  <path d="M 15 38 L 42 38 L 42 69.589844 L 15 69.589844 Z M 15 38 "/>
</clipPath>
</defs>
<g id="surface1">
<g clip-path="url(#clip1)" clip-rule="nonzero">
<path style=" stroke:none;fill-rule:nonzero;fill:rgb(100%,100%,100%);fill-opacity:1;" d="M 2.945312 55.925781 C 2.945312 13.046875 37.71875 -21.726562 80.601562 -21.726562 C 123.480469 -21.726562 158.253906 13.046875 158.253906 55.925781 C 158.253906 98.808594 123.480469 133.582031 80.601562 133.582031 C 37.71875 133.582031 2.945312 98.808594 2.945312 55.925781 Z M 2.945312 55.925781 "/>
</g>
<path style=" stroke:none;fill-rule:evenodd;fill:rgb(0%,61.178589%,87.059021%);fill-opacity:1;" d="M 116.78125 42.875 C 113.558594 42.875 110.992188 43.71875 109.050781 44.125 L 108.457031 49.039062 C 109.425781 48.570312 112.527344 47.726562 115.0625 47.632812 C 117.628906 47.570312 119.128906 48.101562 118.597656 50.292969 C 110.992188 50.292969 105.890625 51.859375 104.859375 56.773438 C 103.355469 65.191406 112.589844 64.972656 116.28125 61.277344 L 115.84375 63.3125 L 122.605469 63.3125 L 125.546875 49.917969 C 126.703125 44.21875 121.507812 42.8125 116.78125 42.875 M 117.222656 56.613281 C 116.84375 58.398438 115.40625 59.179688 113.683594 59.277344 C 112.179688 59.339844 110.835938 58.023438 111.804688 56.457031 C 112.558594 55.144531 114.65625 54.832031 115.9375 54.832031 L 117.597656 54.832031 C 117.441406 55.425781 117.378906 55.988281 117.222656 56.613281 "/>
<path style=" stroke:none;fill-rule:evenodd;fill:rgb(0%,61.178589%,87.059021%);fill-opacity:1;" d="M 131.273438 37.585938 L 125.671875 63.3125 L 132.558594 63.3125 L 138.222656 37.585938 Z M 131.273438 37.585938 "/>
<path style=" stroke:none;fill-rule:evenodd;fill:rgb(0%,61.178589%,87.059021%);fill-opacity:1;" d="M 99.722656 37.648438 L 87.140625 37.648438 L 81.570312 63.28125 L 88.863281 63.28125 L 90.742188 54.800781 L 95.9375 54.800781 C 101.070312 54.800781 105.265625 51.667969 106.390625 46.378906 C 107.707031 40.402344 103.324219 37.648438 99.722656 37.648438 M 99.503906 46.378906 C 99.066406 48.320312 97.09375 49.886719 95.21875 49.886719 L 91.835938 49.886719 L 93.339844 42.875 L 96.9375 42.875 C 98.816406 42.875 99.945312 44.4375 99.503906 46.378906 "/>
<path style=" stroke:none;fill-rule:evenodd;fill:rgb(0.389099%,12.939453%,41.178894%);fill-opacity:1;" d="M 50.898438 42.875 C 47.703125 42.875 45.167969 43.71875 43.320312 44.125 L 42.726562 49.039062 C 43.605469 48.570312 46.671875 47.726562 49.175781 47.632812 C 51.710938 47.570312 53.179688 48.101562 52.742188 50.292969 C 45.230469 50.292969 40.191406 51.859375 39.160156 56.773438 C 37.6875 65.191406 46.796875 64.972656 50.363281 61.277344 L 49.925781 63.3125 L 56.6875 63.3125 L 59.566406 49.917969 C 60.789062 44.21875 55.589844 42.8125 50.898438 42.875 M 51.429688 56.613281 C 51.054688 58.398438 49.582031 59.179688 47.859375 59.277344 C 46.390625 59.339844 45.105469 58.023438 46.078125 56.457031 C 46.828125 55.144531 48.894531 54.832031 50.082031 54.832031 L 51.804688 54.832031 C 51.648438 55.425781 51.492188 55.988281 51.429688 56.613281 "/>
<path style=" stroke:none;fill-rule:evenodd;fill:rgb(0.389099%,12.939453%,41.178894%);fill-opacity:1;" d="M 62.539062 43.25 L 69.300781 43.25 L 70.394531 55.207031 L 77 43.25 L 83.949219 43.25 L 67.921875 71.828125 L 60.347656 71.828125 L 65.292969 63.4375 Z M 62.539062 43.25 "/>
<path style=" stroke:none;fill-rule:evenodd;fill:rgb(0.389099%,12.939453%,41.178894%);fill-opacity:1;" d="M 34.121094 37.648438 L 21.507812 37.648438 L 15.902344 63.28125 L 23.320312 63.28125 L 25.136719 54.800781 L 30.425781 54.800781 C 35.496094 54.800781 39.722656 51.667969 40.847656 46.378906 C 42.101562 40.402344 37.8125 37.648438 34.121094 37.648438 M 33.871094 46.378906 C 33.429688 48.320312 31.523438 49.886719 29.644531 49.886719 L 26.167969 49.886719 L 27.765625 42.875 L 31.398438 42.875 C 33.210938 42.875 34.402344 44.4375 33.871094 46.378906 "/>
<path style=" stroke:none;fill-rule:nonzero;fill:rgb(0.389099%,12.939453%,41.178894%);fill-opacity:1;" d="M 139.695312 40.902344 L 139.695312 37.867188 L 138.566406 37.867188 L 138.566406 37.460938 L 141.289062 37.460938 L 141.289062 37.867188 L 140.164062 37.867188 L 140.164062 40.902344 Z M 139.695312 40.902344 "/>
<path style=" stroke:none;fill-rule:nonzero;fill:rgb(0.389099%,12.939453%,41.178894%);fill-opacity:1;" d="M 141.761719 40.902344 L 141.761719 37.460938 L 142.449219 37.460938 L 143.261719 39.902344 C 143.324219 40.121094 143.386719 40.308594 143.417969 40.402344 C 143.449219 40.277344 143.511719 40.089844 143.605469 39.839844 L 144.421875 37.460938 L 145.046875 37.460938 L 145.046875 40.902344 L 144.609375 40.902344 L 144.609375 38.023438 L 143.605469 40.902344 L 143.199219 40.902344 L 142.199219 37.960938 L 142.199219 40.902344 Z M 141.761719 40.902344 "/>
<g clip-path="url(#clip2)" clip-rule="nonzero">
<path style=" stroke:none;fill-rule:nonzero;fill:rgb(0%,18.818665%,52.938843%);fill-opacity:1;" d="M 36.699219 31.066406 C 34.769531 28.867188 31.28125 27.925781 26.820312 27.925781 L 13.867188 27.925781 C 12.957031 27.925781 12.175781 28.589844 12.035156 29.488281 L 6.644531 63.683594 C 6.550781 64.289062 6.964844 64.859375 7.570312 64.953125 C 7.628906 64.960938 7.6875 64.96875 7.746094 64.96875 L 15.742188 64.96875 L 17.746094 52.234375 L 17.683594 52.632812 C 17.824219 51.734375 18.601562 51.070312 19.511719 51.070312 L 23.308594 51.070312 C 30.773438 51.070312 36.617188 48.039062 38.324219 39.269531 C 38.375 39.011719 38.417969 38.757812 38.457031 38.511719 C 38.960938 35.269531 38.453125 33.066406 36.699219 31.066406 Z M 36.699219 31.066406 "/>
<path style=" stroke:none;fill-rule:nonzero;fill:rgb(0%,18.818665%,52.938843%);fill-opacity:1;" d="M 36.699219 31.066406 C 34.769531 28.867188 31.28125 27.925781 26.820312 27.925781 L 13.867188 27.925781 C 12.957031 27.925781 12.175781 28.589844 12.035156 29.488281 L 6.644531 63.683594 C 6.550781 64.289062 6.964844 64.859375 7.570312 64.953125 C 7.628906 64.960938 7.6875 64.96875 7.746094 64.96875 L 15.742188 64.96875 L 17.746094 52.234375 L 17.683594 52.632812 C 17.824219 51.734375 18.601562 51.070312 19.511719 51.070312 L 23.308594 51.070312 C 30.773438 51.070312 36.617188 48.039062 38.324219 39.269531 C 38.375 39.011719 38.417969 38.757812 38.457031 38.511719 C 38.960938 35.269531 38.453125 33.066406 36.699219 31.066406 Z M 36.699219 31.066406 "/>
<path style=" stroke:none;fill-rule:nonzero;fill:rgb(0%,18.818665%,52.938843%);fill-opacity:1;" d="M 19.902344 38.554688 C 20.027344 37.765625 20.707031 37.1875 21.503906 37.1875 L 31.65625 37.1875 C 32.859375 37.1875 33.980469 37.265625 35.003906 37.429688 C 35.566406 37.519531 36.121094 37.640625 36.664062 37.800781 C 37.285156 37.972656 37.882812 38.214844 38.453125 38.511719 C 38.960938 35.269531 38.453125 33.066406 36.699219 31.066406 C 34.765625 28.867188 31.28125 27.925781 26.820312 27.925781 L 13.867188 27.925781 C 12.957031 27.925781 12.179688 28.589844 12.035156 29.488281 L 6.644531 63.679688 C 6.546875 64.289062 6.960938 64.855469 7.566406 64.953125 C 7.625 64.960938 7.683594 64.964844 7.742188 64.964844 L 15.738281 64.964844 L 17.742188 52.230469 Z M 19.902344 38.554688 "/>
</g>
<g clip-path="url(#clip3)" clip-rule="nonzero">
<path style=" stroke:none;fill-rule:nonzero;fill:rgb(0%,61.178589%,87.059021%);fill-opacity:1;" d="M 38.457031 38.511719 C 38.414062 38.765625 38.371094 39.019531 38.324219 39.269531 C 36.617188 48.035156 30.773438 51.070312 23.308594 51.070312 L 19.507812 51.070312 C 18.597656 51.070312 17.820312 51.734375 17.683594 52.632812 L 15.738281 64.96875 L 15.183594 68.464844 C 15.097656 68.996094 15.460938 69.496094 15.992188 69.578125 C 16.042969 69.585938 16.09375 69.589844 16.144531 69.589844 L 22.886719 69.589844 C 23.683594 69.589844 24.363281 69.007812 24.488281 68.222656 L 24.550781 67.878906 L 25.824219 59.828125 L 25.902344 59.386719 C 26.027344 58.597656 26.707031 58.015625 27.507812 58.015625 L 28.515625 58.015625 C 35.042969 58.015625 40.15625 55.367188 41.652344 47.695312 C 42.273438 44.492188 41.949219 41.8125 40.300781 39.933594 C 39.777344 39.351562 39.152344 38.871094 38.457031 38.511719 Z M 38.457031 38.511719 "/>
</g>
<path style=" stroke:none;fill-rule:nonzero;fill:rgb(0.389099%,12.939453%,41.178894%);fill-opacity:1;" d="M 36.667969 37.800781 C 36.40625 37.722656 36.136719 37.652344 35.863281 37.59375 C 35.585938 37.53125 35.300781 37.480469 35.003906 37.433594 C 33.980469 37.265625 32.859375 37.1875 31.65625 37.1875 L 21.503906 37.1875 C 20.703125 37.183594 20.027344 37.765625 19.902344 38.558594 L 17.742188 52.234375 L 17.679688 52.632812 C 17.820312 51.734375 18.59375 51.070312 19.503906 51.070312 L 23.304688 51.070312 C 30.769531 51.070312 36.613281 48.039062 38.320312 39.269531 C 38.371094 39.011719 38.414062 38.761719 38.453125 38.511719 C 38 38.277344 37.53125 38.078125 37.046875 37.917969 C 36.925781 37.875 36.796875 37.839844 36.667969 37.800781 Z M 36.667969 37.800781 "/>
</g>
</svg>
