<?xml version="1.0" encoding="UTF-8"?>
<svg xmlns="http://www.w3.org/2000/svg" xmlns:xlink="http://www.w3.org/1999/xlink" width="150pt" height="112.499997pt" viewBox="0 0 150 112.499997" version="1.2">
<defs>
<clipPath id="clip1">
  <path d="M 7.851562 44 L 100 44 L 100 100.59375 L 7.851562 100.59375 Z M 7.851562 44 "/>
</clipPath>
<clipPath id="clip2">
  <path d="M 113 41 L 133 41 L 133 61 L 113 61 Z M 113 41 "/>
</clipPath>
<clipPath id="clip3">
  <path d="M 100.890625 51.460938 L 127.667969 38.226562 L 135.9375 54.960938 L 109.164062 68.195312 Z M 100.890625 51.460938 "/>
</clipPath>
<clipPath id="clip4">
  <path d="M 100.890625 51.460938 L 127.667969 38.226562 L 135.9375 54.960938 L 109.164062 68.195312 Z M 100.890625 51.460938 "/>
</clipPath>
<clipPath id="clip5">
  <path d="M 100.890625 51.460938 L 127.5 38.308594 L 135.773438 55.042969 L 109.164062 68.195312 Z M 100.890625 51.460938 "/>
</clipPath>
<clipPath id="clip6">
  <path d="M 104 46 L 123 46 L 123 65 L 104 65 Z M 104 46 "/>
</clipPath>
<clipPath id="clip7">
  <path d="M 100.890625 51.460938 L 127.667969 38.226562 L 135.9375 54.960938 L 109.164062 68.195312 Z M 100.890625 51.460938 "/>
</clipPath>
<clipPath id="clip8">
  <path d="M 100.890625 51.460938 L 127.667969 38.226562 L 135.9375 54.960938 L 109.164062 68.195312 Z M 100.890625 51.460938 "/>
</clipPath>
<clipPath id="clip9">
  <path d="M 100.890625 51.460938 L 127.5 38.308594 L 135.773438 55.042969 L 109.164062 68.195312 Z M 100.890625 51.460938 "/>
</clipPath>
<clipPath id="clip10">
  <path d="M 113 46 L 123 46 L 123 61 L 113 61 Z M 113 46 "/>
</clipPath>
<clipPath id="clip11">
  <path d="M 100.890625 51.460938 L 127.667969 38.226562 L 135.9375 54.960938 L 109.164062 68.195312 Z M 100.890625 51.460938 "/>
</clipPath>
<clipPath id="clip12">
  <path d="M 100.890625 51.460938 L 127.667969 38.226562 L 135.9375 54.960938 L 109.164062 68.195312 Z M 100.890625 51.460938 "/>
</clipPath>
<clipPath id="clip13">
  <path d="M 100.890625 51.460938 L 127.5 38.308594 L 135.773438 55.042969 L 109.164062 68.195312 Z M 100.890625 51.460938 "/>
</clipPath>
<clipPath id="clip14">
  <path d="M 55.835938 76.625 L 93.917969 76.625 L 93.917969 89.320312 L 55.835938 89.320312 Z M 55.835938 76.625 "/>
</clipPath>
<clipPath id="clip15">
  <path d="M 75.53125 80.683594 C 75.507812 82.449219 77.058594 83.433594 78.222656 84.019531 C 79.421875 84.621094 79.824219 85.003906 79.820312 85.542969 C 79.8125 86.363281 78.867188 86.726562 77.980469 86.742188 C 76.433594 86.765625 75.53125 86.3125 74.820312 85.96875 L 74.261719 88.652344 C 74.976562 88.992188 76.308594 89.289062 77.683594 89.304688 C 80.914062 89.304688 83.027344 87.660156 83.039062 85.113281 C 83.050781 81.878906 78.699219 81.699219 78.726562 80.253906 C 78.738281 79.816406 79.144531 79.347656 80.035156 79.230469 C 80.476562 79.167969 81.691406 79.125 83.066406 79.777344 L 83.609375 77.179688 C 82.867188 76.902344 81.914062 76.636719 80.730469 76.636719 C 77.6875 76.636719 75.546875 78.300781 75.53125 80.683594 M 88.804688 76.859375 C 88.214844 76.859375 87.71875 77.214844 87.496094 77.757812 L 82.878906 89.113281 L 86.109375 89.113281 L 86.753906 87.28125 L 90.699219 87.28125 L 91.070312 89.113281 L 93.917969 89.113281 L 91.433594 76.859375 L 88.804688 76.859375 M 89.257812 80.167969 L 90.191406 84.769531 L 87.636719 84.769531 L 89.257812 80.167969 M 71.617188 76.859375 L 69.070312 89.113281 L 72.148438 89.113281 L 74.691406 76.859375 L 71.617188 76.859375 M 67.0625 76.859375 L 63.859375 85.199219 L 62.566406 78.109375 C 62.414062 77.316406 61.8125 76.859375 61.144531 76.859375 L 55.910156 76.859375 L 55.835938 77.214844 C 56.910156 77.457031 58.132812 77.84375 58.871094 78.257812 C 59.324219 78.511719 59.453125 78.730469 59.605469 79.332031 L 62.058594 89.113281 L 65.308594 89.113281 L 70.296875 76.859375 L 67.0625 76.859375 "/>
</clipPath>
<linearGradient id="linear0" gradientUnits="userSpaceOnUse" x1="0.458002" y1="-0.039974" x2="0.552181" y2="1.039085" gradientTransform="matrix(38.080747,0,0,-12.667294,55.836826,89.302864)">
<stop offset="0" style="stop-color:rgb(85.099792%,85.099792%,85.099792%);stop-opacity:1;"/>
<stop offset="0.03125" style="stop-color:rgb(84.963989%,84.963989%,84.963989%);stop-opacity:1;"/>
<stop offset="0.046875" style="stop-color:rgb(84.663391%,84.663391%,84.663391%);stop-opacity:1;"/>
<stop offset="0.0625" style="stop-color:rgb(84.332275%,84.332275%,84.332275%);stop-opacity:1;"/>
<stop offset="0.078125" style="stop-color:rgb(84.00116%,84.00116%,84.00116%);stop-opacity:1;"/>
<stop offset="0.0802729" style="stop-color:rgb(83.67157%,83.67157%,83.67157%);stop-opacity:1;"/>
<stop offset="0.09375" style="stop-color:rgb(83.506775%,83.506775%,83.506775%);stop-opacity:1;"/>
<stop offset="0.109375" style="stop-color:rgb(83.340454%,83.340454%,83.340454%);stop-opacity:1;"/>
<stop offset="0.125" style="stop-color:rgb(83.009338%,83.009338%,83.009338%);stop-opacity:1;"/>
<stop offset="0.140625" style="stop-color:rgb(82.679749%,82.679749%,82.679749%);stop-opacity:1;"/>
<stop offset="0.15625" style="stop-color:rgb(82.348633%,82.348633%,82.348633%);stop-opacity:1;"/>
<stop offset="0.171875" style="stop-color:rgb(82.017517%,82.017517%,82.017517%);stop-opacity:1;"/>
<stop offset="0.1875" style="stop-color:rgb(81.687927%,81.687927%,81.687927%);stop-opacity:1;"/>
<stop offset="0.203125" style="stop-color:rgb(81.356812%,81.356812%,81.356812%);stop-opacity:1;"/>
<stop offset="0.21875" style="stop-color:rgb(81.025696%,81.025696%,81.025696%);stop-opacity:1;"/>
<stop offset="0.234375" style="stop-color:rgb(80.696106%,80.696106%,80.696106%);stop-opacity:1;"/>
<stop offset="0.25" style="stop-color:rgb(80.36499%,80.36499%,80.36499%);stop-opacity:1;"/>
<stop offset="0.265625" style="stop-color:rgb(80.0354%,80.0354%,80.0354%);stop-opacity:1;"/>
<stop offset="0.28125" style="stop-color:rgb(79.704285%,79.704285%,79.704285%);stop-opacity:1;"/>
<stop offset="0.296875" style="stop-color:rgb(79.373169%,79.373169%,79.373169%);stop-opacity:1;"/>
<stop offset="0.3125" style="stop-color:rgb(79.043579%,79.043579%,79.043579%);stop-opacity:1;"/>
<stop offset="0.328125" style="stop-color:rgb(78.712463%,78.712463%,78.712463%);stop-opacity:1;"/>
<stop offset="0.34375" style="stop-color:rgb(78.381348%,78.381348%,78.381348%);stop-opacity:1;"/>
<stop offset="0.359375" style="stop-color:rgb(78.051758%,78.051758%,78.051758%);stop-opacity:1;"/>
<stop offset="0.375" style="stop-color:rgb(77.720642%,77.720642%,77.720642%);stop-opacity:1;"/>
<stop offset="0.390625" style="stop-color:rgb(77.389526%,77.389526%,77.389526%);stop-opacity:1;"/>
<stop offset="0.40625" style="stop-color:rgb(77.059937%,77.059937%,77.059937%);stop-opacity:1;"/>
<stop offset="0.421875" style="stop-color:rgb(76.728821%,76.728821%,76.728821%);stop-opacity:1;"/>
<stop offset="0.4375" style="stop-color:rgb(76.397705%,76.397705%,76.397705%);stop-opacity:1;"/>
<stop offset="0.453125" style="stop-color:rgb(76.068115%,76.068115%,76.068115%);stop-opacity:1;"/>
<stop offset="0.46875" style="stop-color:rgb(75.737%,75.737%,75.737%);stop-opacity:1;"/>
<stop offset="0.484375" style="stop-color:rgb(75.405884%,75.405884%,75.405884%);stop-opacity:1;"/>
<stop offset="0.5" style="stop-color:rgb(75.076294%,75.076294%,75.076294%);stop-opacity:1;"/>
<stop offset="0.515625" style="stop-color:rgb(74.745178%,74.745178%,74.745178%);stop-opacity:1;"/>
<stop offset="0.53125" style="stop-color:rgb(74.415588%,74.415588%,74.415588%);stop-opacity:1;"/>
<stop offset="0.546875" style="stop-color:rgb(74.084473%,74.084473%,74.084473%);stop-opacity:1;"/>
<stop offset="0.5625" style="stop-color:rgb(73.753357%,73.753357%,73.753357%);stop-opacity:1;"/>
<stop offset="0.578125" style="stop-color:rgb(73.423767%,73.423767%,73.423767%);stop-opacity:1;"/>
<stop offset="0.59375" style="stop-color:rgb(73.092651%,73.092651%,73.092651%);stop-opacity:1;"/>
<stop offset="0.609375" style="stop-color:rgb(72.761536%,72.761536%,72.761536%);stop-opacity:1;"/>
<stop offset="0.625" style="stop-color:rgb(72.431946%,72.431946%,72.431946%);stop-opacity:1;"/>
<stop offset="0.640625" style="stop-color:rgb(72.10083%,72.10083%,72.10083%);stop-opacity:1;"/>
<stop offset="0.65625" style="stop-color:rgb(71.769714%,71.769714%,71.769714%);stop-opacity:1;"/>
<stop offset="0.671875" style="stop-color:rgb(71.440125%,71.440125%,71.440125%);stop-opacity:1;"/>
<stop offset="0.6875" style="stop-color:rgb(71.109009%,71.109009%,71.109009%);stop-opacity:1;"/>
<stop offset="0.703125" style="stop-color:rgb(70.777893%,70.777893%,70.777893%);stop-opacity:1;"/>
<stop offset="0.71875" style="stop-color:rgb(70.448303%,70.448303%,70.448303%);stop-opacity:1;"/>
<stop offset="0.734375" style="stop-color:rgb(70.117188%,70.117188%,70.117188%);stop-opacity:1;"/>
<stop offset="0.75" style="stop-color:rgb(69.787598%,69.787598%,69.787598%);stop-opacity:1;"/>
<stop offset="0.765625" style="stop-color:rgb(69.456482%,69.456482%,69.456482%);stop-opacity:1;"/>
<stop offset="0.78125" style="stop-color:rgb(69.125366%,69.125366%,69.125366%);stop-opacity:1;"/>
<stop offset="0.796875" style="stop-color:rgb(68.795776%,68.795776%,68.795776%);stop-opacity:1;"/>
<stop offset="0.8125" style="stop-color:rgb(68.464661%,68.464661%,68.464661%);stop-opacity:1;"/>
<stop offset="0.828125" style="stop-color:rgb(68.133545%,68.133545%,68.133545%);stop-opacity:1;"/>
<stop offset="0.84375" style="stop-color:rgb(67.803955%,67.803955%,67.803955%);stop-opacity:1;"/>
<stop offset="0.859375" style="stop-color:rgb(67.472839%,67.472839%,67.472839%);stop-opacity:1;"/>
<stop offset="0.875" style="stop-color:rgb(67.141724%,67.141724%,67.141724%);stop-opacity:1;"/>
<stop offset="0.890625" style="stop-color:rgb(66.812134%,66.812134%,66.812134%);stop-opacity:1;"/>
<stop offset="0.90625" style="stop-color:rgb(66.481018%,66.481018%,66.481018%);stop-opacity:1;"/>
<stop offset="0.919727" style="stop-color:rgb(66.149902%,66.149902%,66.149902%);stop-opacity:1;"/>
<stop offset="0.921875" style="stop-color:rgb(65.985107%,65.985107%,65.985107%);stop-opacity:1;"/>
<stop offset="0.9375" style="stop-color:rgb(65.820312%,65.820312%,65.820312%);stop-opacity:1;"/>
<stop offset="0.953125" style="stop-color:rgb(65.489197%,65.489197%,65.489197%);stop-opacity:1;"/>
<stop offset="0.96875" style="stop-color:rgb(65.211487%,65.211487%,65.211487%);stop-opacity:1;"/>
<stop offset="1" style="stop-color:rgb(65.098572%,65.098572%,65.098572%);stop-opacity:1;"/>
</linearGradient>
</defs>
<g id="surface1">
<path style=" stroke:none;fill-rule:nonzero;fill:rgb(19.999695%,19.999695%,19.999695%);fill-opacity:1;" d="M 125.9375 57.929688 C 123.949219 58.824219 121.765625 58.695312 119.964844 57.773438 C 119.464844 59.730469 118.117188 61.449219 116.128906 62.34375 C 112.664062 63.898438 108.585938 62.363281 107.027344 58.910156 C 105.464844 55.453125 107.007812 51.390625 110.464844 49.835938 C 112.453125 48.941406 114.640625 49.070312 116.441406 49.988281 C 116.941406 48.035156 118.289062 46.316406 120.277344 45.421875 C 123.742188 43.863281 127.816406 45.402344 129.378906 48.855469 C 130.941406 52.3125 129.40625 56.367188 125.9375 57.929688 Z M 140.839844 55.300781 L 122.800781 15.4375 C 121.398438 12.34375 117.71875 10.953125 114.617188 12.355469 L 53.359375 39.902344 L 93.140625 39.902344 C 99.117188 39.902344 103.980469 44.75 103.980469 50.710938 L 103.980469 78.644531 L 137.75 63.460938 C 140.847656 62.0625 142.238281 58.394531 140.839844 55.300781 "/>
<g clip-path="url(#clip1)" clip-rule="nonzero">
<path style=" stroke:none;fill-rule:nonzero;fill:rgb(19.999695%,19.999695%,19.999695%);fill-opacity:1;" d="M 7.835938 58.445312 L 99.320312 58.445312 L 99.328125 50.628906 C 99.328125 47.238281 96.539062 44.460938 93.140625 44.460938 L 14.015625 44.460938 C 10.617188 44.460938 7.828125 47.238281 7.828125 50.628906 Z M 7.828125 94.367188 C 7.828125 97.757812 10.617188 100.53125 14.015625 100.53125 L 93.140625 100.53125 C 96.539062 100.53125 99.328125 97.757812 99.328125 94.367188 L 99.320312 67.933594 L 7.835938 67.933594 Z M 41.492188 79.546875 L 14.328125 79.546875 L 14.328125 75.964844 L 41.492188 75.964844 Z M 41.492188 86.566406 L 14.328125 86.566406 L 14.328125 82.980469 L 41.492188 82.980469 Z M 41.492188 93.585938 L 14.328125 93.585938 L 14.328125 90.003906 L 41.492188 90.003906 L 41.492188 93.585938 "/>
</g>
<g clip-path="url(#clip2)" clip-rule="nonzero">
<g clip-path="url(#clip3)" clip-rule="nonzero">
<g clip-path="url(#clip4)" clip-rule="nonzero">
<g clip-path="url(#clip5)" clip-rule="nonzero">
<path style=" stroke:none;fill-rule:nonzero;fill:rgb(100%,59.609985%,0%);fill-opacity:1;" d="M 118.914062 42.625 C 118.375 42.894531 117.867188 43.210938 117.394531 43.578125 C 116.917969 43.945312 116.480469 44.355469 116.085938 44.8125 C 115.691406 45.265625 115.347656 45.753906 115.046875 46.28125 C 114.75 46.804688 114.503906 47.351562 114.316406 47.925781 C 114.125 48.5 113.992188 49.089844 113.917969 49.691406 C 113.84375 50.292969 113.824219 50.894531 113.867188 51.503906 C 113.910156 52.109375 114.011719 52.703125 114.171875 53.292969 C 114.332031 53.878906 114.546875 54.445312 114.816406 54.988281 C 115.085938 55.535156 115.40625 56.050781 115.773438 56.53125 C 116.144531 57.015625 116.558594 57.457031 117.011719 57.859375 C 117.46875 58.261719 117.957031 58.617188 118.480469 58.921875 C 119.003906 59.226562 119.550781 59.480469 120.121094 59.675781 C 120.695312 59.875 121.277344 60.015625 121.878906 60.097656 C 122.476562 60.175781 123.074219 60.199219 123.675781 60.164062 C 124.277344 60.125 124.867188 60.027344 125.449219 59.875 C 126.027344 59.71875 126.589844 59.507812 127.128906 59.242188 C 127.667969 58.976562 128.175781 58.660156 128.648438 58.292969 C 129.125 57.925781 129.5625 57.511719 129.957031 57.058594 C 130.351562 56.605469 130.695312 56.113281 130.996094 55.589844 C 131.292969 55.066406 131.535156 54.515625 131.726562 53.941406 C 131.917969 53.367188 132.050781 52.78125 132.125 52.179688 C 132.199219 51.578125 132.214844 50.972656 132.171875 50.367188 C 132.128906 49.761719 132.03125 49.164062 131.871094 48.578125 C 131.710938 47.992188 131.496094 47.425781 131.226562 46.878906 C 130.957031 46.332031 130.636719 45.820312 130.269531 45.335938 C 129.898438 44.851562 129.484375 44.410156 129.03125 44.007812 C 128.574219 43.605469 128.085938 43.253906 127.5625 42.945312 C 127.039062 42.640625 126.492188 42.390625 125.917969 42.191406 C 125.347656 41.996094 124.761719 41.855469 124.164062 41.773438 C 123.566406 41.691406 122.96875 41.667969 122.367188 41.707031 C 121.765625 41.742188 121.175781 41.839844 120.59375 41.996094 C 120.011719 42.148438 119.453125 42.359375 118.914062 42.625 Z M 118.914062 42.625 "/>
</g>
</g>
</g>
</g>
<g clip-path="url(#clip6)" clip-rule="nonzero">
<g clip-path="url(#clip7)" clip-rule="nonzero">
<g clip-path="url(#clip8)" clip-rule="nonzero">
<g clip-path="url(#clip9)" clip-rule="nonzero">
<path style=" stroke:none;fill-rule:nonzero;fill:rgb(83.529663%,0%,0%);fill-opacity:1;" d="M 109.539062 47.261719 C 109 47.527344 108.492188 47.84375 108.015625 48.210938 C 107.539062 48.578125 107.105469 48.992188 106.710938 49.445312 C 106.316406 49.902344 105.96875 50.390625 105.671875 50.914062 C 105.371094 51.4375 105.128906 51.988281 104.9375 52.5625 C 104.746094 53.136719 104.613281 53.722656 104.539062 54.324219 C 104.464844 54.925781 104.449219 55.53125 104.492188 56.136719 C 104.535156 56.742188 104.636719 57.339844 104.792969 57.925781 C 104.953125 58.511719 105.167969 59.078125 105.4375 59.625 C 105.707031 60.171875 106.027344 60.683594 106.398438 61.167969 C 106.765625 61.652344 107.179688 62.09375 107.632812 62.496094 C 108.089844 62.898438 108.578125 63.25 109.101562 63.558594 C 109.625 63.863281 110.171875 64.113281 110.746094 64.3125 C 111.316406 64.507812 111.902344 64.648438 112.5 64.730469 C 113.097656 64.8125 113.695312 64.835938 114.296875 64.796875 C 114.898438 64.761719 115.488281 64.664062 116.070312 64.507812 C 116.652344 64.355469 117.210938 64.144531 117.75 63.878906 C 118.289062 63.613281 118.796875 63.292969 119.273438 62.925781 C 119.746094 62.558594 120.183594 62.148438 120.578125 61.695312 C 120.972656 61.238281 121.320312 60.75 121.617188 60.222656 C 121.914062 59.699219 122.160156 59.152344 122.347656 58.578125 C 122.539062 58.003906 122.671875 57.414062 122.746094 56.8125 C 122.824219 56.210938 122.839844 55.609375 122.796875 55.003906 C 122.753906 54.394531 122.652344 53.800781 122.492188 53.210938 C 122.332031 52.625 122.117188 52.058594 121.847656 51.515625 C 121.578125 50.96875 121.261719 50.453125 120.890625 49.972656 C 120.519531 49.488281 120.109375 49.046875 119.652344 48.644531 C 119.199219 48.242188 118.707031 47.886719 118.183594 47.582031 C 117.660156 47.277344 117.113281 47.023438 116.542969 46.828125 C 115.96875 46.628906 115.386719 46.488281 114.789062 46.410156 C 114.191406 46.328125 113.589844 46.304688 112.988281 46.339844 C 112.390625 46.378906 111.796875 46.476562 111.21875 46.628906 C 110.636719 46.785156 110.074219 46.996094 109.539062 47.261719 Z M 109.539062 47.261719 "/>
</g>
</g>
</g>
</g>
<g clip-path="url(#clip10)" clip-rule="nonzero">
<g clip-path="url(#clip11)" clip-rule="nonzero">
<g clip-path="url(#clip12)" clip-rule="nonzero">
<g clip-path="url(#clip13)" clip-rule="nonzero">
<path style=" stroke:none;fill-rule:nonzero;fill:rgb(100%,23.919678%,0%);fill-opacity:1;" d="M 114.816406 54.988281 C 116.210938 57.8125 118.832031 59.613281 121.699219 60.066406 C 123.082031 57.511719 123.242188 54.335938 121.847656 51.515625 C 120.453125 48.691406 117.832031 46.890625 114.964844 46.4375 C 113.582031 48.992188 113.421875 52.167969 114.816406 54.988281 Z M 114.816406 54.988281 "/>
</g>
</g>
</g>
</g>
<g clip-path="url(#clip14)" clip-rule="nonzero">
<g clip-path="url(#clip15)" clip-rule="nonzero">
<path style=" stroke:none;fill-rule:nonzero;fill:url(#linear0);" d="M 55.835938 89.304688 L 55.835938 76.636719 L 93.917969 76.636719 L 93.917969 89.304688 Z M 55.835938 89.304688 "/>
</g>
</g>
</g>
</svg>
