<?xml version="1.0" encoding="UTF-8"?>
<svg xmlns="http://www.w3.org/2000/svg" xmlns:xlink="http://www.w3.org/1999/xlink" width="150pt" height="74.999997pt" viewBox="0 0 150 74.999997" version="1.2">
<defs>
<clipPath id="clip1">
  <path d="M 18.925781 28 L 96 28 L 96 75 L 18.925781 75 Z M 18.925781 28 "/>
</clipPath>
<clipPath id="clip2">
  <path d="M 107 27 L 122 27 L 122 41 L 107 41 Z M 107 27 "/>
</clipPath>
<clipPath id="clip3">
  <path d="M 98.328125 32.886719 L 118.71875 25.324219 L 123.414062 37.984375 L 103.019531 45.542969 Z M 98.328125 32.886719 "/>
</clipPath>
<clipPath id="clip4">
  <path d="M 98.328125 32.886719 L 118.71875 25.324219 L 123.414062 37.984375 L 103.019531 45.542969 Z M 98.328125 32.886719 "/>
</clipPath>
<clipPath id="clip5">
  <path d="M 98.328125 32.886719 L 118.6875 25.335938 L 123.367188 37.960938 L 103.007812 45.511719 Z M 98.328125 32.886719 "/>
</clipPath>
<clipPath id="clip6">
  <path d="M 100 30 L 114 30 L 114 44 L 100 44 Z M 100 30 "/>
</clipPath>
<clipPath id="clip7">
  <path d="M 98.328125 32.886719 L 118.71875 25.324219 L 123.414062 37.984375 L 103.019531 45.542969 Z M 98.328125 32.886719 "/>
</clipPath>
<clipPath id="clip8">
  <path d="M 98.328125 32.886719 L 118.71875 25.324219 L 123.414062 37.984375 L 103.019531 45.542969 Z M 98.328125 32.886719 "/>
</clipPath>
<clipPath id="clip9">
  <path d="M 98.328125 32.886719 L 118.6875 25.335938 L 123.367188 37.960938 L 103.007812 45.511719 Z M 98.328125 32.886719 "/>
</clipPath>
<clipPath id="clip10">
  <path d="M 107 30 L 114 30 L 114 41 L 107 41 Z M 107 30 "/>
</clipPath>
<clipPath id="clip11">
  <path d="M 98.328125 32.886719 L 118.71875 25.324219 L 123.414062 37.984375 L 103.019531 45.542969 Z M 98.328125 32.886719 "/>
</clipPath>
<clipPath id="clip12">
  <path d="M 98.328125 32.886719 L 118.71875 25.324219 L 123.414062 37.984375 L 103.019531 45.542969 Z M 98.328125 32.886719 "/>
</clipPath>
<clipPath id="clip13">
  <path d="M 98.328125 32.886719 L 118.6875 25.335938 L 123.367188 37.960938 L 103.007812 45.511719 Z M 98.328125 32.886719 "/>
</clipPath>
<clipPath id="clip14">
  <path d="M 65.519531 59.585938 L 90.269531 59.585938 L 90.269531 67.835938 L 65.519531 67.835938 Z M 65.519531 59.585938 "/>
</clipPath>
<clipPath id="clip15">
  <path d="M 78.320312 62.222656 C 78.304688 63.371094 79.3125 64.011719 80.070312 64.390625 C 80.847656 64.78125 81.109375 65.03125 81.105469 65.382812 C 81.101562 65.914062 80.484375 66.152344 79.910156 66.160156 C 78.902344 66.175781 78.320312 65.882812 77.855469 65.65625 L 77.492188 67.402344 C 77.960938 67.625 78.824219 67.816406 79.71875 67.824219 C 81.816406 67.824219 83.191406 66.757812 83.199219 65.101562 C 83.207031 63 80.378906 62.882812 80.398438 61.945312 C 80.402344 61.660156 80.667969 61.355469 81.246094 61.277344 C 81.53125 61.238281 82.320312 61.210938 83.21875 61.632812 L 83.570312 59.945312 C 83.085938 59.765625 82.46875 59.59375 81.695312 59.59375 C 79.722656 59.59375 78.328125 60.675781 78.320312 62.222656 M 86.945312 59.738281 C 86.5625 59.738281 86.238281 59.96875 86.097656 60.320312 L 83.09375 67.703125 L 85.195312 67.703125 L 85.613281 66.511719 L 88.175781 66.511719 L 88.417969 67.703125 L 90.269531 67.703125 L 88.65625 59.738281 L 86.945312 59.738281 M 87.238281 61.890625 L 87.847656 64.878906 L 86.1875 64.878906 L 87.238281 61.890625 M 75.773438 59.738281 L 74.121094 67.703125 L 76.121094 67.699219 L 77.773438 59.738281 L 75.773438 59.738281 M 72.816406 59.738281 L 70.734375 65.15625 L 69.890625 60.550781 C 69.792969 60.035156 69.402344 59.738281 68.96875 59.738281 L 65.566406 59.738281 L 65.519531 59.96875 C 66.21875 60.125 67.011719 60.375 67.492188 60.644531 C 67.785156 60.8125 67.871094 60.953125 67.96875 61.347656 L 69.5625 67.699219 L 71.675781 67.699219 L 74.914062 59.738281 L 72.816406 59.738281 "/>
</clipPath>
<linearGradient id="linear0" gradientUnits="userSpaceOnUse" x1="0.458002" y1="-0.0399732" x2="0.552181" y2="1.039086" gradientTransform="matrix(24.749997,0,0,-8.233073,65.51886,67.825245)">
<stop offset="0" style="stop-color:rgb(85.099792%,85.099792%,85.099792%);stop-opacity:1;"/>
<stop offset="0.03125" style="stop-color:rgb(85.2005%,85.2005%,85.2005%);stop-opacity:1;"/>
<stop offset="0.046875" style="stop-color:rgb(85.423279%,85.423279%,85.423279%);stop-opacity:1;"/>
<stop offset="0.0625" style="stop-color:rgb(85.670471%,85.670471%,85.670471%);stop-opacity:1;"/>
<stop offset="0.078125" style="stop-color:rgb(85.916138%,85.916138%,85.916138%);stop-opacity:1;"/>
<stop offset="0.0802729" style="stop-color:rgb(86.161804%,86.161804%,86.161804%);stop-opacity:1;"/>
<stop offset="0.09375" style="stop-color:rgb(86.2854%,86.2854%,86.2854%);stop-opacity:1;"/>
<stop offset="0.109375" style="stop-color:rgb(86.408997%,86.408997%,86.408997%);stop-opacity:1;"/>
<stop offset="0.125" style="stop-color:rgb(86.654663%,86.654663%,86.654663%);stop-opacity:1;"/>
<stop offset="0.140625" style="stop-color:rgb(86.901855%,86.901855%,86.901855%);stop-opacity:1;"/>
<stop offset="0.15625" style="stop-color:rgb(87.147522%,87.147522%,87.147522%);stop-opacity:1;"/>
<stop offset="0.171875" style="stop-color:rgb(87.393188%,87.393188%,87.393188%);stop-opacity:1;"/>
<stop offset="0.1875" style="stop-color:rgb(87.640381%,87.640381%,87.640381%);stop-opacity:1;"/>
<stop offset="0.203125" style="stop-color:rgb(87.886047%,87.886047%,87.886047%);stop-opacity:1;"/>
<stop offset="0.21875" style="stop-color:rgb(88.13324%,88.13324%,88.13324%);stop-opacity:1;"/>
<stop offset="0.234375" style="stop-color:rgb(88.378906%,88.378906%,88.378906%);stop-opacity:1;"/>
<stop offset="0.25" style="stop-color:rgb(88.624573%,88.624573%,88.624573%);stop-opacity:1;"/>
<stop offset="0.265625" style="stop-color:rgb(88.871765%,88.871765%,88.871765%);stop-opacity:1;"/>
<stop offset="0.28125" style="stop-color:rgb(89.117432%,89.117432%,89.117432%);stop-opacity:1;"/>
<stop offset="0.296875" style="stop-color:rgb(89.364624%,89.364624%,89.364624%);stop-opacity:1;"/>
<stop offset="0.3125" style="stop-color:rgb(89.610291%,89.610291%,89.610291%);stop-opacity:1;"/>
<stop offset="0.328125" style="stop-color:rgb(89.855957%,89.855957%,89.855957%);stop-opacity:1;"/>
<stop offset="0.34375" style="stop-color:rgb(90.103149%,90.103149%,90.103149%);stop-opacity:1;"/>
<stop offset="0.359375" style="stop-color:rgb(90.348816%,90.348816%,90.348816%);stop-opacity:1;"/>
<stop offset="0.375" style="stop-color:rgb(90.596008%,90.596008%,90.596008%);stop-opacity:1;"/>
<stop offset="0.390625" style="stop-color:rgb(90.841675%,90.841675%,90.841675%);stop-opacity:1;"/>
<stop offset="0.40625" style="stop-color:rgb(91.087341%,91.087341%,91.087341%);stop-opacity:1;"/>
<stop offset="0.421875" style="stop-color:rgb(91.334534%,91.334534%,91.334534%);stop-opacity:1;"/>
<stop offset="0.4375" style="stop-color:rgb(91.5802%,91.5802%,91.5802%);stop-opacity:1;"/>
<stop offset="0.453125" style="stop-color:rgb(91.827393%,91.827393%,91.827393%);stop-opacity:1;"/>
<stop offset="0.46875" style="stop-color:rgb(92.073059%,92.073059%,92.073059%);stop-opacity:1;"/>
<stop offset="0.484375" style="stop-color:rgb(92.318726%,92.318726%,92.318726%);stop-opacity:1;"/>
<stop offset="0.5" style="stop-color:rgb(92.565918%,92.565918%,92.565918%);stop-opacity:1;"/>
<stop offset="0.515625" style="stop-color:rgb(92.811584%,92.811584%,92.811584%);stop-opacity:1;"/>
<stop offset="0.53125" style="stop-color:rgb(93.058777%,93.058777%,93.058777%);stop-opacity:1;"/>
<stop offset="0.546875" style="stop-color:rgb(93.304443%,93.304443%,93.304443%);stop-opacity:1;"/>
<stop offset="0.5625" style="stop-color:rgb(93.55011%,93.55011%,93.55011%);stop-opacity:1;"/>
<stop offset="0.578125" style="stop-color:rgb(93.797302%,93.797302%,93.797302%);stop-opacity:1;"/>
<stop offset="0.59375" style="stop-color:rgb(94.042969%,94.042969%,94.042969%);stop-opacity:1;"/>
<stop offset="0.609375" style="stop-color:rgb(94.290161%,94.290161%,94.290161%);stop-opacity:1;"/>
<stop offset="0.625" style="stop-color:rgb(94.535828%,94.535828%,94.535828%);stop-opacity:1;"/>
<stop offset="0.640625" style="stop-color:rgb(94.781494%,94.781494%,94.781494%);stop-opacity:1;"/>
<stop offset="0.65625" style="stop-color:rgb(95.028687%,95.028687%,95.028687%);stop-opacity:1;"/>
<stop offset="0.671875" style="stop-color:rgb(95.274353%,95.274353%,95.274353%);stop-opacity:1;"/>
<stop offset="0.6875" style="stop-color:rgb(95.521545%,95.521545%,95.521545%);stop-opacity:1;"/>
<stop offset="0.703125" style="stop-color:rgb(95.767212%,95.767212%,95.767212%);stop-opacity:1;"/>
<stop offset="0.71875" style="stop-color:rgb(96.012878%,96.012878%,96.012878%);stop-opacity:1;"/>
<stop offset="0.734375" style="stop-color:rgb(96.260071%,96.260071%,96.260071%);stop-opacity:1;"/>
<stop offset="0.75" style="stop-color:rgb(96.505737%,96.505737%,96.505737%);stop-opacity:1;"/>
<stop offset="0.765625" style="stop-color:rgb(96.75293%,96.75293%,96.75293%);stop-opacity:1;"/>
<stop offset="0.78125" style="stop-color:rgb(96.998596%,96.998596%,96.998596%);stop-opacity:1;"/>
<stop offset="0.796875" style="stop-color:rgb(97.244263%,97.244263%,97.244263%);stop-opacity:1;"/>
<stop offset="0.8125" style="stop-color:rgb(97.491455%,97.491455%,97.491455%);stop-opacity:1;"/>
<stop offset="0.828125" style="stop-color:rgb(97.737122%,97.737122%,97.737122%);stop-opacity:1;"/>
<stop offset="0.84375" style="stop-color:rgb(97.984314%,97.984314%,97.984314%);stop-opacity:1;"/>
<stop offset="0.859375" style="stop-color:rgb(98.22998%,98.22998%,98.22998%);stop-opacity:1;"/>
<stop offset="0.875" style="stop-color:rgb(98.475647%,98.475647%,98.475647%);stop-opacity:1;"/>
<stop offset="0.890625" style="stop-color:rgb(98.722839%,98.722839%,98.722839%);stop-opacity:1;"/>
<stop offset="0.90625" style="stop-color:rgb(98.968506%,98.968506%,98.968506%);stop-opacity:1;"/>
<stop offset="0.919727" style="stop-color:rgb(99.215698%,99.215698%,99.215698%);stop-opacity:1;"/>
<stop offset="0.921875" style="stop-color:rgb(99.339294%,99.339294%,99.339294%);stop-opacity:1;"/>
<stop offset="0.9375" style="stop-color:rgb(99.461365%,99.461365%,99.461365%);stop-opacity:1;"/>
<stop offset="0.953125" style="stop-color:rgb(99.707031%,99.707031%,99.707031%);stop-opacity:1;"/>
<stop offset="0.96875" style="stop-color:rgb(99.914551%,99.914551%,99.914551%);stop-opacity:1;"/>
<stop offset="1" style="stop-color:rgb(100%,100%,100%);stop-opacity:1;"/>
</linearGradient>
</defs>
<g id="surface1">
<path style=" stroke:none;fill-rule:nonzero;fill:rgb(33.329773%,60.389709%,21.958923%);fill-opacity:1;" d="M 117.769531 39.289062 C 116.105469 40.039062 114.273438 39.929688 112.769531 39.15625 C 112.351562 40.796875 111.222656 42.234375 109.558594 42.984375 C 106.65625 44.289062 103.246094 43 101.9375 40.109375 C 100.632812 37.21875 101.921875 33.816406 104.816406 32.515625 C 106.480469 31.765625 108.3125 31.875 109.820312 32.644531 C 110.238281 31.007812 111.367188 29.570312 113.03125 28.820312 C 115.929688 27.515625 119.34375 28.804688 120.648438 31.695312 C 121.957031 34.585938 120.671875 37.984375 117.769531 39.289062 Z M 130.242188 37.089844 L 115.144531 3.722656 C 113.96875 1.132812 110.890625 -0.0273438 108.292969 1.140625 L 57.019531 24.199219 L 90.316406 24.199219 C 95.320312 24.199219 99.390625 28.257812 99.390625 33.246094 L 99.390625 56.628906 L 127.652344 43.917969 C 130.246094 42.75 131.414062 39.679688 130.242188 37.089844 "/>
<g clip-path="url(#clip1)" clip-rule="nonzero">
<path style=" stroke:none;fill-rule:nonzero;fill:rgb(33.329773%,60.389709%,21.958923%);fill-opacity:1;" d="M 18.910156 39.71875 L 95.488281 39.71875 L 95.492188 33.179688 C 95.492188 30.34375 93.160156 28.019531 90.316406 28.019531 L 24.085938 28.019531 C 21.238281 28.019531 18.90625 30.34375 18.90625 33.179688 Z M 18.90625 69.789062 C 18.90625 72.628906 21.238281 74.949219 24.085938 74.949219 L 90.316406 74.949219 C 93.160156 74.949219 95.492188 72.628906 95.492188 69.789062 L 95.488281 47.664062 L 18.910156 47.664062 Z M 47.082031 57.382812 L 24.347656 57.382812 L 24.347656 54.386719 L 47.082031 54.386719 Z M 47.082031 63.257812 L 24.347656 63.257812 L 24.347656 60.257812 L 47.082031 60.257812 Z M 47.082031 69.136719 L 24.347656 69.136719 L 24.347656 66.136719 L 47.082031 66.136719 L 47.082031 69.136719 "/>
</g>
<g clip-path="url(#clip2)" clip-rule="nonzero">
<g clip-path="url(#clip3)" clip-rule="nonzero">
<g clip-path="url(#clip4)" clip-rule="nonzero">
<g clip-path="url(#clip5)" clip-rule="nonzero">
<path style=" stroke:none;fill-rule:nonzero;fill:rgb(100%,59.609985%,0%);fill-opacity:1;" d="M 112.113281 27.828125 C 111.699219 27.980469 111.304688 28.171875 110.933594 28.402344 C 110.558594 28.632812 110.207031 28.898438 109.886719 29.195312 C 109.5625 29.496094 109.273438 29.820312 109.015625 30.175781 C 108.757812 30.53125 108.535156 30.910156 108.351562 31.308594 C 108.167969 31.707031 108.027344 32.121094 107.925781 32.546875 C 107.820312 32.976562 107.761719 33.40625 107.746094 33.847656 C 107.730469 34.285156 107.753906 34.722656 107.824219 35.15625 C 107.894531 35.589844 108.003906 36.011719 108.15625 36.421875 C 108.308594 36.832031 108.5 37.226562 108.730469 37.597656 C 108.960938 37.972656 109.226562 38.320312 109.523438 38.644531 C 109.820312 38.964844 110.148438 39.253906 110.503906 39.511719 C 110.859375 39.769531 111.238281 39.988281 111.636719 40.171875 C 112.039062 40.355469 112.449219 40.496094 112.878906 40.597656 C 113.304688 40.699219 113.738281 40.757812 114.179688 40.773438 C 114.617188 40.789062 115.054688 40.765625 115.488281 40.695312 C 115.921875 40.625 116.347656 40.511719 116.757812 40.359375 C 117.171875 40.207031 117.5625 40.015625 117.9375 39.785156 C 118.3125 39.554688 118.660156 39.292969 118.984375 38.992188 C 119.308594 38.695312 119.597656 38.367188 119.855469 38.011719 C 120.113281 37.65625 120.332031 37.277344 120.515625 36.878906 C 120.703125 36.480469 120.84375 36.066406 120.945312 35.640625 C 121.046875 35.214844 121.109375 34.78125 121.125 34.339844 C 121.140625 33.902344 121.117188 33.46875 121.046875 33.035156 C 120.976562 32.601562 120.867188 32.179688 120.714844 31.765625 C 120.5625 31.355469 120.371094 30.960938 120.140625 30.589844 C 119.910156 30.214844 119.644531 29.867188 119.347656 29.546875 C 119.046875 29.222656 118.722656 28.933594 118.363281 28.675781 C 118.007812 28.421875 117.632812 28.199219 117.230469 28.015625 C 116.832031 27.835938 116.417969 27.691406 115.992188 27.589844 C 115.5625 27.488281 115.132812 27.429688 114.691406 27.414062 C 114.253906 27.398438 113.816406 27.425781 113.382812 27.496094 C 112.949219 27.5625 112.523438 27.675781 112.113281 27.828125 Z M 112.113281 27.828125 "/>
</g>
</g>
</g>
</g>
<g clip-path="url(#clip6)" clip-rule="nonzero">
<g clip-path="url(#clip7)" clip-rule="nonzero">
<g clip-path="url(#clip8)" clip-rule="nonzero">
<g clip-path="url(#clip9)" clip-rule="nonzero">
<path style=" stroke:none;fill-rule:nonzero;fill:rgb(83.529663%,0%,0%);fill-opacity:1;" d="M 104.9375 30.488281 C 104.523438 30.640625 104.132812 30.832031 103.757812 31.0625 C 103.382812 31.292969 103.03125 31.558594 102.710938 31.855469 C 102.386719 32.15625 102.097656 32.480469 101.839844 32.835938 C 101.582031 33.191406 101.359375 33.570312 101.175781 33.96875 C 100.992188 34.367188 100.851562 34.78125 100.75 35.207031 C 100.644531 35.636719 100.585938 36.066406 100.570312 36.507812 C 100.554688 36.945312 100.578125 37.382812 100.648438 37.816406 C 100.71875 38.25 100.828125 38.671875 100.980469 39.082031 C 101.132812 39.492188 101.324219 39.886719 101.554688 40.257812 C 101.785156 40.632812 102.050781 40.980469 102.347656 41.304688 C 102.648438 41.625 102.972656 41.914062 103.328125 42.171875 C 103.6875 42.429688 104.0625 42.648438 104.460938 42.832031 C 104.863281 43.015625 105.277344 43.15625 105.703125 43.257812 C 106.128906 43.359375 106.5625 43.417969 107.003906 43.433594 C 107.441406 43.449219 107.878906 43.425781 108.3125 43.355469 C 108.746094 43.285156 109.171875 43.171875 109.582031 43.019531 C 109.996094 42.867188 110.386719 42.675781 110.761719 42.445312 C 111.136719 42.214844 111.484375 41.953125 111.808594 41.652344 C 112.132812 41.355469 112.421875 41.027344 112.679688 40.671875 C 112.9375 40.316406 113.160156 39.9375 113.34375 39.539062 C 113.527344 39.140625 113.667969 38.726562 113.769531 38.300781 C 113.871094 37.875 113.933594 37.441406 113.949219 37 C 113.964844 36.5625 113.941406 36.128906 113.871094 35.695312 C 113.800781 35.261719 113.691406 34.839844 113.539062 34.425781 C 113.386719 34.015625 113.195312 33.621094 112.964844 33.25 C 112.734375 32.875 112.46875 32.527344 112.171875 32.207031 C 111.871094 31.882812 111.546875 31.59375 111.191406 31.335938 C 110.832031 31.082031 110.457031 30.859375 110.058594 30.675781 C 109.65625 30.496094 109.242188 30.351562 108.816406 30.25 C 108.390625 30.148438 107.957031 30.089844 107.515625 30.074219 C 107.078125 30.058594 106.640625 30.085938 106.207031 30.15625 C 105.773438 30.222656 105.347656 30.335938 104.9375 30.488281 Z M 104.9375 30.488281 "/>
</g>
</g>
</g>
</g>
<g clip-path="url(#clip10)" clip-rule="nonzero">
<g clip-path="url(#clip11)" clip-rule="nonzero">
<g clip-path="url(#clip12)" clip-rule="nonzero">
<g clip-path="url(#clip13)" clip-rule="nonzero">
<path style=" stroke:none;fill-rule:nonzero;fill:rgb(100%,23.919678%,0%);fill-opacity:1;" d="M 108.15625 36.421875 C 108.945312 38.550781 110.707031 40.03125 112.753906 40.5625 C 113.957031 38.828125 114.328125 36.554688 113.539062 34.425781 C 112.75 32.296875 110.988281 30.816406 108.941406 30.285156 C 107.738281 32.019531 107.367188 34.292969 108.15625 36.421875 Z M 108.15625 36.421875 "/>
</g>
</g>
</g>
</g>
<g clip-path="url(#clip14)" clip-rule="nonzero">
<g clip-path="url(#clip15)" clip-rule="nonzero">
<path style=" stroke:none;fill-rule:nonzero;fill:url(#linear0);" d="M 65.519531 67.824219 L 65.519531 59.59375 L 90.269531 59.59375 L 90.269531 67.824219 Z M 65.519531 67.824219 "/>
</g>
</g>
</g>
</svg>
