<?xml version="1.0" encoding="UTF-8"?>
<svg xmlns="http://www.w3.org/2000/svg" xmlns:xlink="http://www.w3.org/1999/xlink" width="150pt" height="149.999998pt" viewBox="0 0 150 149.999998" version="1.2">
<defs>
<clipPath id="clip1">
  <path d="M 0 62 L 103 62 L 103 125.34375 L 0 125.34375 Z M 0 62 "/>
</clipPath>
<clipPath id="clip2">
  <path d="M 117 60 L 137 60 L 137 80 L 117 80 Z M 117 60 "/>
</clipPath>
<clipPath id="clip3">
  <path d="M 104.78125 70.34375 L 131.675781 57.050781 L 139.984375 73.863281 L 113.089844 87.15625 Z M 104.78125 70.34375 "/>
</clipPath>
<clipPath id="clip4">
  <path d="M 104.78125 70.34375 L 131.675781 57.050781 L 139.984375 73.863281 L 113.089844 87.15625 Z M 104.78125 70.34375 "/>
</clipPath>
<clipPath id="clip5">
  <path d="M 104.78125 70.34375 L 131.507812 57.136719 L 139.816406 73.945312 L 113.089844 87.15625 Z M 104.78125 70.34375 "/>
</clipPath>
<clipPath id="clip6">
  <path d="M 108 65 L 127 65 L 127 84 L 108 84 Z M 108 65 "/>
</clipPath>
<clipPath id="clip7">
  <path d="M 104.78125 70.34375 L 131.675781 57.050781 L 139.984375 73.863281 L 113.089844 87.15625 Z M 104.78125 70.34375 "/>
</clipPath>
<clipPath id="clip8">
  <path d="M 104.78125 70.34375 L 131.675781 57.050781 L 139.984375 73.863281 L 113.089844 87.15625 Z M 104.78125 70.34375 "/>
</clipPath>
<clipPath id="clip9">
  <path d="M 104.78125 70.34375 L 131.507812 57.136719 L 139.816406 73.945312 L 113.089844 87.15625 Z M 104.78125 70.34375 "/>
</clipPath>
<clipPath id="clip10">
  <path d="M 117 65 L 127 65 L 127 79 L 117 79 Z M 117 65 "/>
</clipPath>
<clipPath id="clip11">
  <path d="M 104.78125 70.34375 L 131.675781 57.050781 L 139.984375 73.863281 L 113.089844 87.15625 Z M 104.78125 70.34375 "/>
</clipPath>
<clipPath id="clip12">
  <path d="M 104.78125 70.34375 L 131.675781 57.050781 L 139.984375 73.863281 L 113.089844 87.15625 Z M 104.78125 70.34375 "/>
</clipPath>
<clipPath id="clip13">
  <path d="M 104.78125 70.34375 L 131.507812 57.136719 L 139.816406 73.945312 L 113.089844 87.15625 Z M 104.78125 70.34375 "/>
</clipPath>
<clipPath id="clip14">
  <path d="M 55.75 100.433594 L 94 100.433594 L 94 113.183594 L 55.75 113.183594 Z M 55.75 100.433594 "/>
</clipPath>
<clipPath id="clip15">
  <path d="M 75.535156 104.511719 C 75.511719 106.28125 77.066406 107.273438 78.238281 107.859375 C 79.441406 108.464844 79.847656 108.851562 79.839844 109.390625 C 79.832031 110.214844 78.882812 110.582031 77.992188 110.59375 C 76.4375 110.621094 75.535156 110.164062 74.820312 109.816406 L 74.257812 112.515625 C 74.976562 112.855469 76.3125 113.152344 77.695312 113.167969 C 80.941406 113.167969 83.066406 111.515625 83.078125 108.957031 C 83.089844 105.710938 78.714844 105.53125 78.746094 104.078125 C 78.753906 103.636719 79.164062 103.167969 80.058594 103.046875 C 80.5 102.988281 81.71875 102.941406 83.101562 103.597656 L 83.648438 100.988281 C 82.902344 100.710938 81.945312 100.441406 80.753906 100.441406 C 77.699219 100.441406 75.550781 102.117188 75.535156 104.511719 M 88.867188 100.667969 C 88.273438 100.667969 87.777344 101.023438 87.554688 101.570312 L 82.914062 112.976562 L 86.160156 112.976562 L 86.804688 111.136719 L 90.769531 111.136719 L 91.144531 112.976562 L 94 112.976562 L 91.507812 100.667969 L 88.867188 100.667969 M 89.320312 103.992188 L 90.257812 108.613281 L 87.695312 108.613281 L 89.320312 103.992188 M 71.601562 100.667969 L 69.042969 112.976562 L 72.136719 112.976562 L 74.691406 100.667969 L 71.601562 100.667969 M 67.027344 100.667969 L 63.8125 109.042969 L 62.511719 101.921875 C 62.355469 101.125 61.753906 100.667969 61.085938 100.667969 L 55.824219 100.667969 L 55.75 101.023438 C 56.832031 101.265625 58.058594 101.65625 58.800781 102.070312 C 59.257812 102.328125 59.386719 102.550781 59.535156 103.152344 L 62 112.976562 L 65.265625 112.976562 L 70.273438 100.667969 L 67.027344 100.667969 "/>
</clipPath>
<linearGradient id="linear0" gradientUnits="userSpaceOnUse" x1="0.458002" y1="-0.039974" x2="0.552181" y2="1.039085" gradientTransform="matrix(38.249995,0,0,-12.723593,55.751656,113.166748)">
<stop offset="0" style="stop-color:rgb(85.099792%,85.099792%,85.099792%);stop-opacity:1;"/>
<stop offset="0.03125" style="stop-color:rgb(84.963989%,84.963989%,84.963989%);stop-opacity:1;"/>
<stop offset="0.046875" style="stop-color:rgb(84.663391%,84.663391%,84.663391%);stop-opacity:1;"/>
<stop offset="0.0625" style="stop-color:rgb(84.332275%,84.332275%,84.332275%);stop-opacity:1;"/>
<stop offset="0.078125" style="stop-color:rgb(84.00116%,84.00116%,84.00116%);stop-opacity:1;"/>
<stop offset="0.0802729" style="stop-color:rgb(83.67157%,83.67157%,83.67157%);stop-opacity:1;"/>
<stop offset="0.09375" style="stop-color:rgb(83.506775%,83.506775%,83.506775%);stop-opacity:1;"/>
<stop offset="0.109375" style="stop-color:rgb(83.340454%,83.340454%,83.340454%);stop-opacity:1;"/>
<stop offset="0.125" style="stop-color:rgb(83.009338%,83.009338%,83.009338%);stop-opacity:1;"/>
<stop offset="0.140625" style="stop-color:rgb(82.679749%,82.679749%,82.679749%);stop-opacity:1;"/>
<stop offset="0.15625" style="stop-color:rgb(82.348633%,82.348633%,82.348633%);stop-opacity:1;"/>
<stop offset="0.171875" style="stop-color:rgb(82.017517%,82.017517%,82.017517%);stop-opacity:1;"/>
<stop offset="0.1875" style="stop-color:rgb(81.687927%,81.687927%,81.687927%);stop-opacity:1;"/>
<stop offset="0.203125" style="stop-color:rgb(81.356812%,81.356812%,81.356812%);stop-opacity:1;"/>
<stop offset="0.21875" style="stop-color:rgb(81.025696%,81.025696%,81.025696%);stop-opacity:1;"/>
<stop offset="0.234375" style="stop-color:rgb(80.696106%,80.696106%,80.696106%);stop-opacity:1;"/>
<stop offset="0.25" style="stop-color:rgb(80.36499%,80.36499%,80.36499%);stop-opacity:1;"/>
<stop offset="0.265625" style="stop-color:rgb(80.0354%,80.0354%,80.0354%);stop-opacity:1;"/>
<stop offset="0.28125" style="stop-color:rgb(79.704285%,79.704285%,79.704285%);stop-opacity:1;"/>
<stop offset="0.296875" style="stop-color:rgb(79.373169%,79.373169%,79.373169%);stop-opacity:1;"/>
<stop offset="0.3125" style="stop-color:rgb(79.043579%,79.043579%,79.043579%);stop-opacity:1;"/>
<stop offset="0.328125" style="stop-color:rgb(78.712463%,78.712463%,78.712463%);stop-opacity:1;"/>
<stop offset="0.34375" style="stop-color:rgb(78.381348%,78.381348%,78.381348%);stop-opacity:1;"/>
<stop offset="0.359375" style="stop-color:rgb(78.051758%,78.051758%,78.051758%);stop-opacity:1;"/>
<stop offset="0.375" style="stop-color:rgb(77.720642%,77.720642%,77.720642%);stop-opacity:1;"/>
<stop offset="0.390625" style="stop-color:rgb(77.389526%,77.389526%,77.389526%);stop-opacity:1;"/>
<stop offset="0.40625" style="stop-color:rgb(77.059937%,77.059937%,77.059937%);stop-opacity:1;"/>
<stop offset="0.421875" style="stop-color:rgb(76.728821%,76.728821%,76.728821%);stop-opacity:1;"/>
<stop offset="0.4375" style="stop-color:rgb(76.397705%,76.397705%,76.397705%);stop-opacity:1;"/>
<stop offset="0.453125" style="stop-color:rgb(76.068115%,76.068115%,76.068115%);stop-opacity:1;"/>
<stop offset="0.46875" style="stop-color:rgb(75.737%,75.737%,75.737%);stop-opacity:1;"/>
<stop offset="0.484375" style="stop-color:rgb(75.405884%,75.405884%,75.405884%);stop-opacity:1;"/>
<stop offset="0.5" style="stop-color:rgb(75.076294%,75.076294%,75.076294%);stop-opacity:1;"/>
<stop offset="0.515625" style="stop-color:rgb(74.745178%,74.745178%,74.745178%);stop-opacity:1;"/>
<stop offset="0.53125" style="stop-color:rgb(74.415588%,74.415588%,74.415588%);stop-opacity:1;"/>
<stop offset="0.546875" style="stop-color:rgb(74.084473%,74.084473%,74.084473%);stop-opacity:1;"/>
<stop offset="0.5625" style="stop-color:rgb(73.753357%,73.753357%,73.753357%);stop-opacity:1;"/>
<stop offset="0.578125" style="stop-color:rgb(73.423767%,73.423767%,73.423767%);stop-opacity:1;"/>
<stop offset="0.59375" style="stop-color:rgb(73.092651%,73.092651%,73.092651%);stop-opacity:1;"/>
<stop offset="0.609375" style="stop-color:rgb(72.761536%,72.761536%,72.761536%);stop-opacity:1;"/>
<stop offset="0.625" style="stop-color:rgb(72.431946%,72.431946%,72.431946%);stop-opacity:1;"/>
<stop offset="0.640625" style="stop-color:rgb(72.10083%,72.10083%,72.10083%);stop-opacity:1;"/>
<stop offset="0.65625" style="stop-color:rgb(71.769714%,71.769714%,71.769714%);stop-opacity:1;"/>
<stop offset="0.671875" style="stop-color:rgb(71.440125%,71.440125%,71.440125%);stop-opacity:1;"/>
<stop offset="0.6875" style="stop-color:rgb(71.109009%,71.109009%,71.109009%);stop-opacity:1;"/>
<stop offset="0.703125" style="stop-color:rgb(70.777893%,70.777893%,70.777893%);stop-opacity:1;"/>
<stop offset="0.71875" style="stop-color:rgb(70.448303%,70.448303%,70.448303%);stop-opacity:1;"/>
<stop offset="0.734375" style="stop-color:rgb(70.117188%,70.117188%,70.117188%);stop-opacity:1;"/>
<stop offset="0.75" style="stop-color:rgb(69.787598%,69.787598%,69.787598%);stop-opacity:1;"/>
<stop offset="0.765625" style="stop-color:rgb(69.456482%,69.456482%,69.456482%);stop-opacity:1;"/>
<stop offset="0.78125" style="stop-color:rgb(69.125366%,69.125366%,69.125366%);stop-opacity:1;"/>
<stop offset="0.796875" style="stop-color:rgb(68.795776%,68.795776%,68.795776%);stop-opacity:1;"/>
<stop offset="0.8125" style="stop-color:rgb(68.464661%,68.464661%,68.464661%);stop-opacity:1;"/>
<stop offset="0.828125" style="stop-color:rgb(68.133545%,68.133545%,68.133545%);stop-opacity:1;"/>
<stop offset="0.84375" style="stop-color:rgb(67.803955%,67.803955%,67.803955%);stop-opacity:1;"/>
<stop offset="0.859375" style="stop-color:rgb(67.472839%,67.472839%,67.472839%);stop-opacity:1;"/>
<stop offset="0.875" style="stop-color:rgb(67.141724%,67.141724%,67.141724%);stop-opacity:1;"/>
<stop offset="0.890625" style="stop-color:rgb(66.812134%,66.812134%,66.812134%);stop-opacity:1;"/>
<stop offset="0.90625" style="stop-color:rgb(66.481018%,66.481018%,66.481018%);stop-opacity:1;"/>
<stop offset="0.919727" style="stop-color:rgb(66.149902%,66.149902%,66.149902%);stop-opacity:1;"/>
<stop offset="0.921875" style="stop-color:rgb(65.985107%,65.985107%,65.985107%);stop-opacity:1;"/>
<stop offset="0.9375" style="stop-color:rgb(65.820312%,65.820312%,65.820312%);stop-opacity:1;"/>
<stop offset="0.953125" style="stop-color:rgb(65.489197%,65.489197%,65.489197%);stop-opacity:1;"/>
<stop offset="0.96875" style="stop-color:rgb(65.211487%,65.211487%,65.211487%);stop-opacity:1;"/>
<stop offset="1" style="stop-color:rgb(65.098572%,65.098572%,65.098572%);stop-opacity:1;"/>
</linearGradient>
</defs>
<g id="surface1">
<path style=" stroke:none;fill-rule:nonzero;fill:rgb(19.999695%,19.999695%,19.999695%);fill-opacity:1;" d="M 131.792969 77.492188 C 129.574219 78.496094 127.132812 78.351562 125.125 77.316406 C 124.566406 79.511719 123.0625 81.441406 120.84375 82.441406 C 116.976562 84.1875 112.425781 82.464844 110.683594 78.589844 C 108.941406 74.714844 110.660156 70.160156 114.523438 68.414062 C 116.742188 67.410156 119.183594 67.554688 121.191406 68.585938 C 121.75 66.394531 123.253906 64.464844 125.472656 63.460938 C 129.339844 61.714844 133.890625 63.441406 135.632812 67.316406 C 137.375 71.191406 135.660156 75.742188 131.792969 77.492188 Z M 148.425781 74.542969 L 128.289062 29.832031 C 126.722656 26.363281 122.617188 24.804688 119.15625 26.371094 L 50.789062 57.269531 L 95.1875 57.269531 C 101.859375 57.269531 107.285156 62.707031 107.285156 69.394531 L 107.285156 100.726562 L 144.972656 83.695312 C 148.429688 82.128906 149.984375 78.015625 148.425781 74.542969 "/>
<g clip-path="url(#clip1)" clip-rule="nonzero">
<path style=" stroke:none;fill-rule:nonzero;fill:rgb(19.999695%,19.999695%,19.999695%);fill-opacity:1;" d="M -0.0195312 78.070312 L 102.085938 78.070312 L 102.089844 69.304688 C 102.089844 65.503906 98.980469 62.386719 95.1875 62.386719 L 6.878906 62.386719 C 3.085938 62.386719 -0.0234375 65.503906 -0.0234375 69.304688 Z M -0.0234375 118.363281 C -0.0234375 122.167969 3.085938 125.277344 6.878906 125.277344 L 95.1875 125.277344 C 98.980469 125.277344 102.089844 122.167969 102.089844 118.363281 L 102.085938 88.710938 L -0.0195312 88.710938 Z M 37.542969 101.738281 L 7.230469 101.738281 L 7.230469 97.71875 L 37.542969 97.71875 Z M 37.542969 109.609375 L 7.230469 109.609375 L 7.230469 105.589844 L 37.542969 105.589844 Z M 37.542969 117.488281 L 7.230469 117.488281 L 7.230469 113.46875 L 37.542969 113.46875 L 37.542969 117.488281 "/>
</g>
<g clip-path="url(#clip2)" clip-rule="nonzero">
<g clip-path="url(#clip3)" clip-rule="nonzero">
<g clip-path="url(#clip4)" clip-rule="nonzero">
<g clip-path="url(#clip5)" clip-rule="nonzero">
<path style=" stroke:none;fill-rule:nonzero;fill:rgb(100%,59.609985%,0%);fill-opacity:1;" d="M 122.882812 61.472656 C 122.34375 61.738281 121.832031 62.058594 121.355469 62.425781 C 120.878906 62.796875 120.441406 63.210938 120.042969 63.664062 C 119.648438 64.121094 119.300781 64.613281 119 65.140625 C 118.699219 65.667969 118.453125 66.21875 118.265625 66.796875 C 118.074219 67.375 117.9375 67.964844 117.863281 68.566406 C 117.789062 69.171875 117.773438 69.777344 117.816406 70.386719 C 117.859375 70.996094 117.960938 71.59375 118.121094 72.183594 C 118.28125 72.773438 118.496094 73.34375 118.765625 73.890625 C 119.039062 74.4375 119.359375 74.957031 119.730469 75.441406 C 120.101562 75.925781 120.515625 76.371094 120.972656 76.773438 C 121.429688 77.179688 121.921875 77.535156 122.445312 77.839844 C 122.972656 78.148438 123.523438 78.398438 124.097656 78.597656 C 124.671875 78.796875 125.257812 78.9375 125.859375 79.019531 C 126.460938 79.101562 127.0625 79.125 127.664062 79.085938 C 128.269531 79.046875 128.863281 78.953125 129.445312 78.796875 C 130.03125 78.640625 130.59375 78.429688 131.132812 78.164062 C 131.675781 77.894531 132.183594 77.578125 132.660156 77.207031 C 133.140625 76.839844 133.578125 76.425781 133.972656 75.96875 C 134.371094 75.511719 134.71875 75.019531 135.015625 74.492188 C 135.316406 73.964844 135.5625 73.414062 135.753906 72.835938 C 135.945312 72.261719 136.078125 71.671875 136.152344 71.066406 C 136.226562 70.460938 136.246094 69.855469 136.203125 69.246094 C 136.15625 68.636719 136.054688 68.039062 135.898438 67.449219 C 135.738281 66.859375 135.519531 66.292969 135.25 65.742188 C 134.980469 65.195312 134.660156 64.679688 134.289062 64.195312 C 133.914062 63.707031 133.5 63.265625 133.042969 62.859375 C 132.585938 62.457031 132.09375 62.101562 131.570312 61.792969 C 131.042969 61.488281 130.492188 61.234375 129.917969 61.035156 C 129.34375 60.835938 128.757812 60.695312 128.15625 60.613281 C 127.558594 60.53125 126.957031 60.511719 126.351562 60.546875 C 125.746094 60.585938 125.15625 60.683594 124.570312 60.835938 C 123.988281 60.992188 123.425781 61.203125 122.882812 61.472656 Z M 122.882812 61.472656 "/>
</g>
</g>
</g>
</g>
<g clip-path="url(#clip6)" clip-rule="nonzero">
<g clip-path="url(#clip7)" clip-rule="nonzero">
<g clip-path="url(#clip8)" clip-rule="nonzero">
<g clip-path="url(#clip9)" clip-rule="nonzero">
<path style=" stroke:none;fill-rule:nonzero;fill:rgb(83.529663%,0%,0%);fill-opacity:1;" d="M 113.464844 66.128906 C 112.921875 66.394531 112.414062 66.714844 111.9375 67.082031 C 111.457031 67.453125 111.019531 67.863281 110.625 68.320312 C 110.226562 68.777344 109.878906 69.269531 109.582031 69.796875 C 109.28125 70.324219 109.035156 70.875 108.84375 71.453125 C 108.652344 72.027344 108.519531 72.621094 108.445312 73.222656 C 108.367188 73.828125 108.351562 74.433594 108.394531 75.042969 C 108.4375 75.652344 108.539062 76.25 108.699219 76.839844 C 108.859375 77.429688 109.078125 78 109.347656 78.546875 C 109.617188 79.09375 109.9375 79.609375 110.308594 80.097656 C 110.679688 80.582031 111.09375 81.027344 111.554688 81.429688 C 112.011719 81.832031 112.5 82.1875 113.027344 82.496094 C 113.554688 82.804688 114.105469 83.054688 114.679688 83.253906 C 115.25 83.453125 115.839844 83.59375 116.441406 83.675781 C 117.039062 83.757812 117.640625 83.777344 118.246094 83.742188 C 118.847656 83.703125 119.441406 83.609375 120.027344 83.453125 C 120.609375 83.296875 121.171875 83.085938 121.714844 82.816406 C 122.253906 82.550781 122.765625 82.230469 123.242188 81.863281 C 123.71875 81.492188 124.15625 81.082031 124.554688 80.625 C 124.949219 80.167969 125.296875 79.675781 125.597656 79.148438 C 125.898438 78.621094 126.140625 78.070312 126.332031 77.492188 C 126.523438 76.917969 126.65625 76.324219 126.734375 75.722656 C 126.808594 75.117188 126.824219 74.511719 126.78125 73.902344 C 126.738281 73.292969 126.636719 72.695312 126.476562 72.105469 C 126.316406 71.515625 126.101562 70.945312 125.832031 70.398438 C 125.558594 69.851562 125.238281 69.335938 124.867188 68.847656 C 124.496094 68.363281 124.082031 67.917969 123.625 67.515625 C 123.167969 67.113281 122.675781 66.757812 122.148438 66.449219 C 121.625 66.140625 121.074219 65.890625 120.5 65.691406 C 119.925781 65.492188 119.339844 65.351562 118.738281 65.269531 C 118.136719 65.1875 117.535156 65.167969 116.933594 65.203125 C 116.328125 65.242188 115.734375 65.335938 115.152344 65.492188 C 114.566406 65.648438 114.003906 65.859375 113.464844 66.128906 Z M 113.464844 66.128906 "/>
</g>
</g>
</g>
</g>
<g clip-path="url(#clip10)" clip-rule="nonzero">
<g clip-path="url(#clip11)" clip-rule="nonzero">
<g clip-path="url(#clip12)" clip-rule="nonzero">
<g clip-path="url(#clip13)" clip-rule="nonzero">
<path style=" stroke:none;fill-rule:nonzero;fill:rgb(100%,23.919678%,0%);fill-opacity:1;" d="M 118.765625 73.890625 C 120.167969 76.726562 122.800781 78.535156 125.679688 78.988281 C 127.070312 76.425781 127.230469 73.234375 125.832031 70.398438 C 124.429688 67.566406 121.796875 65.753906 118.917969 65.300781 C 117.527344 67.863281 117.367188 71.054688 118.765625 73.890625 Z M 118.765625 73.890625 "/>
</g>
</g>
</g>
</g>
<g clip-path="url(#clip14)" clip-rule="nonzero">
<g clip-path="url(#clip15)" clip-rule="nonzero">
<path style=" stroke:none;fill-rule:nonzero;fill:url(#linear0);" d="M 55.75 113.167969 L 55.75 100.441406 L 94 100.441406 L 94 113.167969 Z M 55.75 113.167969 "/>
</g>
</g>
</g>
</svg>
