<?xml version="1.0" encoding="UTF-8"?>
<svg xmlns="http://www.w3.org/2000/svg" xmlns:xlink="http://www.w3.org/1999/xlink" width="377.25pt" height="264.749997pt" viewBox="0 0 377.25 264.749997" version="1.2">
<defs>
<clipPath id="clip1">
  <path d="M 6.5 0.136719 L 365.785156 0.136719 L 365.785156 264.363281 L 6.5 264.363281 Z M 6.5 0.136719 "/>
</clipPath>
<clipPath id="clip2">
  <path d="M 294.246094 25 L 322 25 L 322 52.246094 L 294.246094 52.246094 Z M 294.246094 25 "/>
</clipPath>
<clipPath id="clip3">
  <path d="M 320 9.582031 L 357.121094 9.582031 L 357.121094 47 L 320 47 Z M 320 9.582031 "/>
</clipPath>
</defs>
<g id="surface1">
<g clip-path="url(#clip1)" clip-rule="nonzero">
<path style=" stroke:none;fill-rule:nonzero;fill:rgb(19.999695%,19.999695%,19.999695%);fill-opacity:1;" d="M 282.328125 170.671875 C 282.328125 166.921875 281.339844 163.21875 279.476562 159.960938 L 210.898438 40.101562 C 205.832031 31.25 196.34375 25.753906 186.140625 25.753906 C 175.9375 25.753906 166.449219 31.25 161.382812 40.101562 L 92.804688 159.960938 C 90.941406 163.21875 89.957031 166.921875 89.957031 170.671875 C 89.957031 182.570312 99.652344 192.257812 111.570312 192.257812 L 260.714844 192.257812 C 272.628906 192.257812 282.328125 182.570312 282.328125 170.671875 Z M 32.242188 25.753906 L 19.417969 25.753906 L 19.417969 38.5625 L 32.242188 38.5625 Z M 32.242188 51.371094 L 19.417969 51.371094 L 19.417969 115.410156 L 32.242188 115.410156 Z M 365.6875 217.871094 L 6.59375 217.871094 L 6.59375 19.351562 C 6.59375 8.753906 15.222656 0.136719 25.832031 0.136719 L 346.449219 0.136719 C 357.058594 0.136719 365.6875 8.753906 365.6875 19.351562 Z M 192.554688 70.582031 L 179.730469 70.582031 L 179.730469 141.023438 L 192.554688 141.023438 Z M 192.554688 153.832031 L 179.730469 153.832031 L 179.730469 166.640625 L 192.554688 166.640625 Z M 268.34375 166.316406 C 269.101562 167.640625 269.5 169.148438 269.5 170.671875 C 269.5 175.511719 265.558594 179.449219 260.714844 179.449219 L 111.570312 179.449219 C 106.722656 179.449219 102.78125 175.511719 102.78125 170.671875 C 102.78125 169.148438 103.179688 167.640625 103.9375 166.316406 L 172.519531 46.453125 C 175.308594 41.585938 180.523438 38.5625 186.140625 38.5625 C 191.757812 38.5625 196.972656 41.585938 199.761719 46.453125 Z M 25.832031 262.699219 L 346.449219 262.699219 C 357.058594 262.699219 365.6875 254.082031 365.6875 243.488281 L 365.6875 230.679688 L 6.59375 230.679688 L 6.59375 243.488281 C 6.59375 254.082031 15.222656 262.699219 25.832031 262.699219 Z M 256.675781 345.949219 L 115.605469 345.949219 L 115.605469 333.140625 L 136.824219 333.140625 L 152.5625 275.507812 L 219.71875 275.507812 L 235.457031 333.140625 L 256.675781 333.140625 L 256.675781 345.949219 "/>
</g>
<path style=" stroke:none;fill-rule:nonzero;fill:rgb(100%,8.628845%,8.628845%);fill-opacity:1;" d="M 171.640625 21.800781 L 85.507812 171.003906 C 84.785156 172.25 84.238281 173.5625 83.867188 174.949219 C 83.492188 176.339844 83.304688 177.75 83.304688 179.1875 C 83.304688 180.625 83.488281 182.035156 83.859375 183.425781 C 84.230469 184.8125 84.777344 186.128906 85.496094 187.371094 C 86.210938 188.617188 87.082031 189.746094 88.097656 190.761719 C 89.113281 191.777344 90.246094 192.644531 91.488281 193.363281 C 92.734375 194.078125 94.050781 194.625 95.4375 194.992188 C 96.828125 195.363281 98.242188 195.546875 99.675781 195.546875 L 271.949219 195.546875 C 273.386719 195.546875 274.796875 195.363281 276.1875 194.992188 C 277.574219 194.625 278.890625 194.078125 280.136719 193.363281 C 281.382812 192.644531 282.511719 191.777344 283.53125 190.761719 C 284.546875 189.746094 285.414062 188.617188 286.132812 187.371094 C 286.851562 186.128906 287.394531 184.8125 287.765625 183.425781 C 288.136719 182.035156 288.324219 180.625 288.324219 179.1875 C 288.320312 177.75 288.132812 176.339844 287.761719 174.949219 C 287.386719 173.5625 286.839844 172.25 286.121094 171.003906 L 199.984375 21.628906 C 199.804688 21.320312 199.613281 21.019531 199.410156 20.726562 C 199.210938 20.429688 199 20.144531 198.78125 19.863281 C 198.5625 19.582031 198.332031 19.308594 198.09375 19.039062 C 197.859375 18.773438 197.613281 18.515625 197.359375 18.265625 C 197.101562 18.015625 196.839844 17.773438 196.570312 17.542969 C 196.300781 17.308594 196.023438 17.085938 195.738281 16.871094 C 195.453125 16.65625 195.164062 16.449219 194.863281 16.253906 C 194.566406 16.058594 194.261719 15.871094 193.953125 15.695312 C 193.640625 15.519531 193.328125 15.355469 193.003906 15.199219 C 192.683594 15.042969 192.359375 14.898438 192.027344 14.765625 C 191.695312 14.628906 191.363281 14.507812 191.023438 14.394531 C 190.683594 14.28125 190.34375 14.179688 190 14.089844 C 189.652344 14 189.304688 13.921875 188.953125 13.855469 C 188.605469 13.789062 188.253906 13.730469 187.898438 13.6875 C 187.542969 13.644531 187.191406 13.609375 186.832031 13.589844 C 186.476562 13.566406 186.121094 13.558594 185.765625 13.5625 C 185.40625 13.5625 185.050781 13.578125 184.695312 13.601562 C 184.339844 13.628906 183.984375 13.664062 183.632812 13.714844 C 183.277344 13.761719 182.925781 13.820312 182.578125 13.894531 C 182.226562 13.964844 181.878906 14.046875 181.535156 14.140625 C 181.191406 14.234375 180.851562 14.339844 180.515625 14.457031 C 180.175781 14.574219 179.84375 14.699219 179.515625 14.839844 C 179.1875 14.976562 178.863281 15.125 178.542969 15.285156 C 178.222656 15.445312 177.910156 15.613281 177.601562 15.792969 C 177.292969 15.972656 176.992188 16.164062 176.695312 16.363281 C 176.402344 16.5625 176.113281 16.769531 175.828125 16.988281 C 175.546875 17.207031 175.273438 17.433594 175.003906 17.671875 C 174.738281 17.90625 174.480469 18.152344 174.226562 18.40625 C 173.976562 18.660156 173.734375 18.921875 173.5 19.1875 C 173.265625 19.457031 173.039062 19.734375 172.824219 20.019531 C 172.609375 20.300781 172.402344 20.59375 172.203125 20.890625 C 172.007812 21.1875 171.820312 21.492188 171.640625 21.800781 Z M 171.640625 21.800781 "/>
<path style=" stroke:none;fill-rule:nonzero;fill:rgb(100%,100%,100%);fill-opacity:1;" d="M 185.386719 76.855469 L 186.28125 76.855469 C 186.925781 76.855469 187.558594 76.917969 188.191406 77.042969 C 188.820312 77.167969 189.429688 77.355469 190.023438 77.597656 C 190.617188 77.84375 191.179688 78.144531 191.714844 78.503906 C 192.246094 78.859375 192.742188 79.265625 193.195312 79.71875 C 193.648438 80.171875 194.054688 80.664062 194.410156 81.199219 C 194.765625 81.734375 195.066406 82.296875 195.3125 82.890625 C 195.558594 83.480469 195.746094 84.09375 195.871094 84.722656 C 195.996094 85.351562 196.058594 85.988281 196.058594 86.628906 L 196.058594 131.65625 C 196.058594 132.296875 195.996094 132.933594 195.871094 133.5625 C 195.746094 134.191406 195.558594 134.800781 195.3125 135.394531 C 195.066406 135.988281 194.765625 136.550781 194.410156 137.085938 C 194.054688 137.617188 193.648438 138.113281 193.195312 138.566406 C 192.742188 139.019531 192.246094 139.425781 191.714844 139.78125 C 191.179688 140.136719 190.617188 140.4375 190.023438 140.683594 C 189.429688 140.929688 188.820312 141.117188 188.191406 141.242188 C 187.558594 141.367188 186.925781 141.429688 186.28125 141.429688 L 185.386719 141.429688 C 184.746094 141.429688 184.109375 141.367188 183.480469 141.242188 C 182.851562 141.117188 182.238281 140.929688 181.644531 140.683594 C 181.054688 140.4375 180.488281 140.136719 179.957031 139.78125 C 179.421875 139.425781 178.929688 139.019531 178.476562 138.566406 C 178.019531 138.113281 177.617188 137.617188 177.257812 137.085938 C 176.902344 136.550781 176.601562 135.988281 176.355469 135.394531 C 176.109375 134.800781 175.925781 134.191406 175.800781 133.5625 C 175.675781 132.933594 175.613281 132.296875 175.613281 131.65625 L 175.613281 86.628906 C 175.613281 85.988281 175.675781 85.351562 175.800781 84.722656 C 175.925781 84.09375 176.109375 83.480469 176.355469 82.890625 C 176.601562 82.296875 176.902344 81.734375 177.257812 81.199219 C 177.617188 80.664062 178.019531 80.171875 178.476562 79.71875 C 178.929688 79.265625 179.421875 78.859375 179.957031 78.503906 C 180.488281 78.144531 181.054688 77.84375 181.644531 77.597656 C 182.238281 77.355469 182.851562 77.167969 183.480469 77.042969 C 184.109375 76.917969 184.746094 76.855469 185.386719 76.855469 Z M 185.386719 76.855469 "/>
<path style=" stroke:none;fill-rule:nonzero;fill:rgb(100%,100%,100%);fill-opacity:1;" d="M 185.386719 150.902344 L 186.28125 150.902344 C 186.925781 150.902344 187.558594 150.964844 188.191406 151.089844 C 188.820312 151.214844 189.429688 151.402344 190.023438 151.648438 C 190.617188 151.894531 191.179688 152.195312 191.714844 152.550781 C 192.246094 152.90625 192.742188 153.3125 193.195312 153.765625 C 193.648438 154.21875 194.054688 154.714844 194.410156 155.246094 C 194.765625 155.78125 195.066406 156.34375 195.3125 156.9375 C 195.558594 157.53125 195.746094 158.140625 195.871094 158.769531 C 195.996094 159.398438 196.058594 160.035156 196.058594 160.675781 L 196.058594 161.574219 C 196.058594 162.214844 195.996094 162.851562 195.871094 163.480469 C 195.746094 164.109375 195.558594 164.71875 195.3125 165.3125 C 195.066406 165.90625 194.765625 166.46875 194.410156 167.003906 C 194.054688 167.535156 193.648438 168.03125 193.195312 168.484375 C 192.742188 168.9375 192.246094 169.34375 191.714844 169.699219 C 191.179688 170.054688 190.617188 170.355469 190.023438 170.601562 C 189.429688 170.847656 188.820312 171.035156 188.191406 171.160156 C 187.558594 171.285156 186.925781 171.347656 186.28125 171.347656 L 185.386719 171.347656 C 184.746094 171.347656 184.109375 171.285156 183.480469 171.160156 C 182.851562 171.035156 182.238281 170.847656 181.644531 170.601562 C 181.054688 170.355469 180.488281 170.054688 179.957031 169.699219 C 179.421875 169.34375 178.929688 168.9375 178.476562 168.484375 C 178.019531 168.03125 177.617188 167.535156 177.257812 167.003906 C 176.902344 166.46875 176.601562 165.90625 176.355469 165.3125 C 176.109375 164.71875 175.925781 164.109375 175.800781 163.480469 C 175.675781 162.851562 175.613281 162.214844 175.613281 161.574219 L 175.613281 160.675781 C 175.613281 160.035156 175.675781 159.398438 175.800781 158.769531 C 175.925781 158.140625 176.109375 157.53125 176.355469 156.9375 C 176.601562 156.34375 176.902344 155.78125 177.257812 155.246094 C 177.617188 154.714844 178.019531 154.21875 178.476562 153.765625 C 178.929688 153.3125 179.421875 152.90625 179.957031 152.550781 C 180.488281 152.195312 181.054688 151.894531 181.644531 151.648438 C 182.238281 151.402344 182.851562 151.214844 183.480469 151.089844 C 184.109375 150.964844 184.746094 150.902344 185.386719 150.902344 Z M 185.386719 150.902344 "/>
<path style=" stroke:none;fill-rule:nonzero;fill:rgb(19.999695%,19.999695%,19.999695%);fill-opacity:1;" d="M 11.613281 19.855469 L 78.820312 19.855469 L 78.820312 122.222656 L 11.613281 122.222656 Z M 11.613281 19.855469 "/>
<path style=" stroke:none;fill-rule:nonzero;fill:rgb(100%,100%,100%);fill-opacity:1;" d="M 19.347656 12.410156 L 33.523438 12.410156 L 33.523438 26.589844 L 19.347656 26.589844 Z M 19.347656 12.410156 "/>
<path style=" stroke:none;fill-rule:nonzero;fill:rgb(100%,100%,100%);fill-opacity:1;" d="M 38.074219 12.78125 L 52.253906 12.78125 L 52.253906 26.957031 L 38.074219 26.957031 Z M 38.074219 12.78125 "/>
<path style=" stroke:none;fill-rule:nonzero;fill:rgb(100%,100%,100%);fill-opacity:1;" d="M 58.054688 12.410156 L 72.230469 12.410156 L 72.230469 26.589844 L 58.054688 26.589844 Z M 58.054688 12.410156 "/>
<g clip-path="url(#clip2)" clip-rule="nonzero">
<path style=" stroke:none;fill-rule:nonzero;fill:rgb(100%,100%,100%);fill-opacity:1;" d="M 321.140625 37.042969 C 321.039062 36.15625 320.308594 35.46875 319.378906 35.46875 L 318.304688 35.46875 C 317.914062 34.136719 317.230469 32.859375 316.351562 31.777344 L 316.984375 30.839844 C 317.472656 30.101562 317.328125 29.070312 316.644531 28.480469 L 316.058594 27.988281 C 315.375 27.445312 314.296875 27.496094 313.710938 28.132812 L 312.929688 28.972656 C 311.707031 28.332031 310.390625 27.886719 308.972656 27.742188 L 308.777344 26.609375 C 308.628906 25.722656 307.800781 25.082031 306.871094 25.183594 L 306.136719 25.230469 C 305.257812 25.328125 304.527344 26.117188 304.574219 27.003906 L 304.574219 28.132812 C 303.253906 28.527344 302.035156 29.21875 300.910156 30.101562 L 299.980469 29.464844 C 299.6875 29.265625 299.347656 29.167969 299.003906 29.167969 C 298.46875 29.167969 297.976562 29.414062 297.636719 29.808594 L 297.148438 30.398438 C 296.5625 31.085938 296.660156 32.167969 297.292969 32.761719 L 298.078125 33.546875 C 297.441406 34.777344 297 36.15625 296.855469 37.535156 L 295.78125 37.730469 C 294.898438 37.878906 294.265625 38.765625 294.363281 39.648438 L 294.410156 40.386719 C 294.507812 41.273438 295.242188 41.960938 296.171875 41.960938 L 297.246094 41.960938 C 297.636719 43.292969 298.320312 44.570312 299.199219 45.703125 L 298.566406 46.589844 C 298.078125 47.328125 298.222656 48.359375 298.90625 48.949219 L 299.492188 49.441406 C 300.175781 49.984375 301.253906 49.933594 301.839844 49.296875 L 302.570312 48.558594 C 303.84375 49.246094 305.160156 49.640625 306.578125 49.789062 L 306.773438 50.820312 C 306.921875 51.65625 307.652344 52.246094 308.484375 52.246094 L 308.628906 52.246094 L 309.363281 52.199219 C 310.242188 52.101562 310.976562 51.3125 310.925781 50.425781 L 310.925781 49.394531 C 312.292969 49 313.515625 48.3125 314.640625 47.425781 L 315.519531 48.015625 C 315.8125 48.210938 316.15625 48.3125 316.496094 48.3125 C 317.035156 48.3125 317.523438 48.066406 317.863281 47.671875 L 318.355469 47.082031 C 318.941406 46.390625 318.84375 45.308594 318.207031 44.71875 L 317.425781 43.980469 C 318.058594 42.75 318.5 41.371094 318.648438 39.945312 L 319.722656 39.75 C 320.601562 39.601562 321.238281 38.714844 321.140625 37.828125 Z M 308.335938 43.929688 C 305.503906 44.226562 302.960938 42.109375 302.71875 39.257812 C 302.425781 36.402344 304.527344 33.84375 307.359375 33.597656 C 310.195312 33.300781 312.734375 35.417969 312.980469 38.273438 C 313.222656 41.125 311.171875 43.683594 308.335938 43.929688 Z M 308.335938 43.929688 "/>
</g>
<g clip-path="url(#clip3)" clip-rule="nonzero">
<path style=" stroke:none;fill-rule:nonzero;fill:rgb(100%,100%,100%);fill-opacity:1;" d="M 356.855469 25.96875 C 356.757812 24.835938 355.730469 23.953125 354.609375 23.953125 L 352.949219 23.953125 C 352.359375 22.03125 351.382812 20.210938 350.113281 18.636719 L 351.089844 17.257812 C 351.726562 16.324219 351.53125 14.945312 350.699219 14.257812 L 349.917969 13.617188 C 349.527344 13.273438 349.039062 13.125 348.5 13.125 C 347.867188 13.125 347.28125 13.371094 346.886719 13.816406 L 345.714844 15.042969 C 343.957031 14.0625 342.050781 13.46875 340.046875 13.273438 L 339.753906 11.550781 C 339.558594 10.417969 338.484375 9.582031 337.359375 9.679688 L 336.335938 9.78125 C 335.210938 9.878906 334.28125 10.910156 334.332031 12.042969 L 334.332031 13.765625 C 332.425781 14.355469 330.617188 15.289062 329.054688 16.570312 L 327.636719 15.585938 C 327.246094 15.339844 326.855469 15.191406 326.367188 15.191406 C 325.683594 15.191406 325.046875 15.488281 324.609375 15.980469 L 323.972656 16.765625 C 323.238281 17.652344 323.335938 19.03125 324.121094 19.816406 L 325.339844 21 C 324.363281 22.769531 323.777344 24.738281 323.582031 26.757812 L 321.921875 27.050781 C 320.796875 27.25 319.964844 28.332031 320.113281 29.464844 L 320.210938 30.496094 C 320.308594 31.628906 321.335938 32.515625 322.457031 32.515625 L 324.121094 32.515625 C 324.65625 34.484375 325.632812 36.304688 326.902344 37.878906 L 325.976562 39.207031 C 325.339844 40.140625 325.488281 41.519531 326.367188 42.207031 L 327.148438 42.847656 C 327.539062 43.191406 328.027344 43.339844 328.566406 43.339844 C 329.152344 43.339844 329.738281 43.09375 330.179688 42.652344 L 331.300781 41.46875 C 333.0625 42.453125 335.0625 43.046875 337.066406 43.242188 L 337.359375 44.816406 C 337.554688 45.898438 338.484375 46.6875 339.558594 46.6875 L 339.753906 46.6875 L 340.78125 46.589844 C 341.90625 46.488281 342.832031 45.457031 342.785156 44.324219 L 342.785156 42.699219 C 344.738281 42.109375 346.546875 41.175781 348.109375 39.847656 L 349.429688 40.734375 C 349.820312 40.980469 350.210938 41.125 350.699219 41.125 C 351.382812 41.125 352.019531 40.832031 352.457031 40.339844 L 353.09375 39.550781 C 353.828125 38.664062 353.730469 37.289062 352.949219 36.5 L 351.773438 35.367188 C 352.75 33.597656 353.339844 31.578125 353.535156 29.5625 L 355.144531 29.265625 C 356.269531 29.070312 357.101562 27.988281 357.003906 26.855469 Z M 339.316406 37.289062 C 334.378906 37.78125 329.984375 34.089844 329.492188 29.117188 C 329.003906 24.148438 332.667969 19.71875 337.605469 19.226562 C 342.539062 18.734375 346.9375 22.425781 347.425781 27.398438 C 347.914062 32.367188 344.300781 36.796875 339.316406 37.289062 Z M 339.316406 37.289062 "/>
</g>
</g>
</svg>
