<?xml version="1.0" encoding="UTF-8"?>
<svg xmlns="http://www.w3.org/2000/svg" xmlns:xlink="http://www.w3.org/1999/xlink" width="112.5pt" height="37.5pt" viewBox="0 0 112.5 37.5" version="1.2">
<defs>
<clipPath id="clip1">
  <path d="M 44 9 L 74.230469 9 L 74.230469 27 L 44 27 Z M 44 9 "/>
</clipPath>
<clipPath id="clip2">
  <path d="M 38.546875 1.65625 L 46 1.65625 L 46 8 L 38.546875 8 Z M 38.546875 1.65625 "/>
</clipPath>
<clipPath id="clip3">
  <path d="M 47 28 L 55 28 L 55 35.851562 L 47 35.851562 Z M 47 28 "/>
</clipPath>
<clipPath id="clip4">
  <path d="M 63 28 L 72 28 L 72 35.851562 L 63 35.851562 Z M 63 28 "/>
</clipPath>
</defs>
<g id="surface1">
<g clip-path="url(#clip1)" clip-rule="nonzero">
<path style=" stroke:none;fill-rule:nonzero;fill:rgb(100%,100%,100%);fill-opacity:1;" d="M 67.371094 26.296875 L 51.28125 26.296875 C 50.929688 26.296875 50.585938 26.238281 50.25 26.125 C 49.917969 26.007812 49.609375 25.84375 49.328125 25.628906 C 49.050781 25.414062 48.8125 25.15625 48.613281 24.863281 C 48.417969 24.570312 48.273438 24.25 48.179688 23.910156 L 44.460938 10.113281 C 44.429688 10 44.429688 9.886719 44.449219 9.773438 C 44.472656 9.65625 44.519531 9.554688 44.589844 9.460938 C 44.660156 9.371094 44.75 9.296875 44.851562 9.246094 C 44.957031 9.195312 45.066406 9.167969 45.183594 9.167969 L 73.472656 9.167969 C 73.71875 9.164062 73.917969 9.265625 74.066406 9.460938 C 74.214844 9.65625 74.257812 9.875 74.195312 10.113281 L 70.484375 23.910156 C 70.390625 24.25 70.246094 24.570312 70.046875 24.863281 C 69.851562 25.160156 69.609375 25.414062 69.328125 25.628906 C 69.050781 25.847656 68.742188 26.011719 68.40625 26.125 C 68.070312 26.238281 67.726562 26.296875 67.371094 26.296875 Z M 67.371094 26.296875 "/>
</g>
<g clip-path="url(#clip2)" clip-rule="nonzero">
<path style=" stroke:none;fill-rule:nonzero;fill:rgb(100%,100%,100%);fill-opacity:1;" d="M 43.792969 7.597656 L 42.585938 3.128906 L 38.554688 3.128906 L 38.554688 1.628906 L 43.167969 1.628906 C 43.335938 1.628906 43.488281 1.679688 43.621094 1.785156 C 43.753906 1.886719 43.84375 2.023438 43.886719 2.183594 L 45.238281 7.207031 Z M 43.792969 7.597656 "/>
</g>
<g clip-path="url(#clip3)" clip-rule="nonzero">
<path style=" stroke:none;fill-rule:nonzero;fill:rgb(100%,100%,100%);fill-opacity:1;" d="M 51.28125 35.878906 C 50.792969 35.878906 50.324219 35.785156 49.875 35.597656 C 49.421875 35.410156 49.023438 35.144531 48.679688 34.796875 C 48.335938 34.453125 48.070312 34.050781 47.882812 33.601562 C 47.695312 33.148438 47.601562 32.675781 47.601562 32.1875 C 47.601562 31.699219 47.695312 31.226562 47.882812 30.777344 C 48.070312 30.324219 48.335938 29.925781 48.679688 29.578125 C 49.027344 29.234375 49.425781 28.96875 49.875 28.78125 C 50.328125 28.59375 50.796875 28.5 51.285156 28.5 C 51.773438 28.5 52.242188 28.59375 52.691406 28.78125 C 53.144531 28.96875 53.542969 29.234375 53.886719 29.578125 C 54.234375 29.925781 54.5 30.324219 54.683594 30.777344 C 54.871094 31.230469 54.964844 31.699219 54.964844 32.1875 C 54.964844 32.679688 54.871094 33.148438 54.683594 33.601562 C 54.496094 34.054688 54.230469 34.453125 53.886719 34.796875 C 53.539062 35.144531 53.140625 35.410156 52.691406 35.597656 C 52.238281 35.785156 51.769531 35.878906 51.28125 35.878906 Z M 51.28125 35.878906 "/>
</g>
<g clip-path="url(#clip4)" clip-rule="nonzero">
<path style=" stroke:none;fill-rule:nonzero;fill:rgb(100%,100%,100%);fill-opacity:1;" d="M 67.371094 35.878906 C 66.882812 35.878906 66.414062 35.785156 65.960938 35.597656 C 65.511719 35.410156 65.113281 35.144531 64.769531 34.796875 C 64.421875 34.453125 64.15625 34.054688 63.96875 33.601562 C 63.78125 33.148438 63.691406 32.679688 63.691406 32.1875 C 63.691406 31.699219 63.78125 31.230469 63.96875 30.777344 C 64.15625 30.324219 64.421875 29.925781 64.769531 29.578125 C 65.113281 29.234375 65.511719 28.96875 65.960938 28.78125 C 66.414062 28.59375 66.882812 28.5 67.371094 28.5 C 67.859375 28.5 68.328125 28.59375 68.78125 28.78125 C 69.230469 28.96875 69.628906 29.234375 69.972656 29.578125 C 70.320312 29.925781 70.585938 30.324219 70.773438 30.777344 C 70.960938 31.230469 71.050781 31.699219 71.050781 32.1875 C 71.050781 32.679688 70.957031 33.148438 70.769531 33.601562 C 70.582031 34.050781 70.316406 34.449219 69.972656 34.796875 C 69.628906 35.140625 69.230469 35.410156 68.777344 35.597656 C 68.328125 35.785156 67.859375 35.878906 67.371094 35.878906 Z M 67.371094 35.878906 "/>
</g>
</g>
</svg>
