<?xml version="1.0" encoding="UTF-8"?>
<svg xmlns="http://www.w3.org/2000/svg" xmlns:xlink="http://www.w3.org/1999/xlink" width="112.5pt" height="37.5pt" viewBox="0 0 112.5 37.5" version="1.2">
<defs>
<clipPath id="clip1">
  <path d="M 49 2.183594 L 64 2.183594 L 64 16 L 49 16 Z M 49 2.183594 "/>
</clipPath>
<clipPath id="clip2">
  <path d="M 32.394531 31 L 79.972656 31 L 79.972656 34.894531 L 32.394531 34.894531 Z M 32.394531 31 "/>
</clipPath>
<clipPath id="clip3">
  <path d="M 67 18 L 79.972656 18 L 79.972656 31 L 67 31 Z M 67 18 "/>
</clipPath>
<clipPath id="clip4">
  <path d="M 32.394531 18 L 46 18 L 46 31 L 32.394531 31 Z M 32.394531 18 "/>
</clipPath>
</defs>
<g id="surface1">
<g clip-path="url(#clip1)" clip-rule="nonzero">
<path style=" stroke:none;fill-rule:nonzero;fill:rgb(100%,100%,100%);fill-opacity:1;" d="M 63.242188 8.875 C 63.242188 9.3125 63.199219 9.75 63.113281 10.179688 C 63.03125 10.609375 62.902344 11.027344 62.734375 11.433594 C 62.566406 11.839844 62.359375 12.226562 62.117188 12.59375 C 61.871094 12.957031 61.59375 13.296875 61.285156 13.605469 C 60.972656 13.917969 60.636719 14.195312 60.269531 14.4375 C 59.90625 14.683594 59.519531 14.886719 59.113281 15.054688 C 58.707031 15.222656 58.289062 15.351562 57.859375 15.4375 C 57.429688 15.523438 56.992188 15.566406 56.554688 15.566406 C 56.113281 15.566406 55.679688 15.523438 55.25 15.4375 C 54.820312 15.351562 54.398438 15.222656 53.996094 15.054688 C 53.589844 14.886719 53.203125 14.683594 52.835938 14.4375 C 52.472656 14.195312 52.132812 13.917969 51.824219 13.605469 C 51.511719 13.296875 51.234375 12.957031 50.992188 12.59375 C 50.75 12.226562 50.542969 11.839844 50.375 11.433594 C 50.207031 11.027344 50.078125 10.609375 49.992188 10.179688 C 49.90625 9.75 49.863281 9.3125 49.863281 8.875 C 49.863281 8.433594 49.90625 8 49.992188 7.570312 C 50.078125 7.136719 50.207031 6.71875 50.375 6.3125 C 50.542969 5.910156 50.75 5.523438 50.992188 5.15625 C 51.234375 4.792969 51.511719 4.453125 51.824219 4.144531 C 52.132812 3.832031 52.472656 3.554688 52.835938 3.3125 C 53.203125 3.066406 53.589844 2.863281 53.996094 2.691406 C 54.398438 2.523438 54.820312 2.398438 55.25 2.3125 C 55.679688 2.226562 56.113281 2.183594 56.554688 2.183594 C 56.992188 2.183594 57.429688 2.226562 57.859375 2.3125 C 58.289062 2.398438 58.707031 2.523438 59.113281 2.691406 C 59.519531 2.863281 59.90625 3.066406 60.269531 3.3125 C 60.636719 3.554688 60.972656 3.832031 61.285156 4.144531 C 61.59375 4.453125 61.871094 4.792969 62.117188 5.15625 C 62.359375 5.523438 62.566406 5.910156 62.734375 6.3125 C 62.902344 6.71875 63.03125 7.136719 63.113281 7.570312 C 63.199219 8 63.242188 8.433594 63.242188 8.875 Z M 63.242188 8.875 "/>
</g>
<g clip-path="url(#clip2)" clip-rule="nonzero">
<path style=" stroke:none;fill-rule:nonzero;fill:rgb(100%,100%,100%);fill-opacity:1;" d="M 78.480469 34.894531 L 33.882812 34.894531 C 33.066406 34.894531 32.398438 34.226562 32.398438 33.40625 C 32.398438 32.589844 33.066406 31.921875 33.882812 31.921875 L 78.480469 31.921875 C 79.296875 31.921875 79.96875 32.589844 79.96875 33.40625 C 79.96875 34.226562 79.296875 34.894531 78.480469 34.894531 Z M 78.480469 34.894531 "/>
</g>
<path style=" stroke:none;fill-rule:nonzero;fill:rgb(100%,100%,100%);fill-opacity:1;" d="M 67.703125 25.972656 C 67.703125 21.066406 63.691406 17.050781 58.785156 17.050781 L 54.695312 17.050781 C 49.789062 17.050781 45.777344 21.066406 45.777344 25.972656 L 45.777344 30.433594 L 67.703125 30.433594 Z M 67.703125 25.972656 "/>
<path style=" stroke:none;fill-rule:nonzero;fill:rgb(100%,100%,100%);fill-opacity:1;" d="M 75.878906 11.140625 C 75.878906 11.535156 75.839844 11.925781 75.765625 12.308594 C 75.6875 12.695312 75.574219 13.070312 75.425781 13.433594 C 75.273438 13.796875 75.089844 14.140625 74.871094 14.46875 C 74.652344 14.792969 74.40625 15.097656 74.125 15.375 C 73.847656 15.652344 73.546875 15.898438 73.21875 16.117188 C 72.894531 16.335938 72.546875 16.519531 72.1875 16.671875 C 71.824219 16.820312 71.449219 16.933594 71.0625 17.011719 C 70.679688 17.089844 70.289062 17.125 69.894531 17.125 C 69.503906 17.125 69.113281 17.089844 68.730469 17.011719 C 68.34375 16.933594 67.96875 16.820312 67.605469 16.671875 C 67.242188 16.519531 66.898438 16.335938 66.570312 16.117188 C 66.246094 15.898438 65.941406 15.652344 65.664062 15.375 C 65.386719 15.097656 65.140625 14.792969 64.921875 14.46875 C 64.703125 14.140625 64.519531 13.796875 64.367188 13.433594 C 64.21875 13.070312 64.105469 12.695312 64.027344 12.308594 C 63.949219 11.925781 63.914062 11.535156 63.914062 11.140625 C 63.914062 10.75 63.949219 10.359375 64.027344 9.976562 C 64.105469 9.589844 64.21875 9.214844 64.367188 8.851562 C 64.519531 8.488281 64.703125 8.144531 64.921875 7.816406 C 65.140625 7.492188 65.386719 7.1875 65.664062 6.910156 C 65.941406 6.632812 66.246094 6.382812 66.570312 6.167969 C 66.898438 5.949219 67.242188 5.761719 67.605469 5.613281 C 67.96875 5.460938 68.34375 5.347656 68.730469 5.273438 C 69.113281 5.195312 69.503906 5.15625 69.894531 5.15625 C 70.289062 5.15625 70.679688 5.195312 71.0625 5.273438 C 71.449219 5.347656 71.824219 5.460938 72.1875 5.613281 C 72.546875 5.761719 72.894531 5.949219 73.21875 6.167969 C 73.546875 6.382812 73.847656 6.632812 74.125 6.910156 C 74.40625 7.1875 74.652344 7.492188 74.871094 7.816406 C 75.089844 8.144531 75.273438 8.488281 75.425781 8.851562 C 75.574219 9.214844 75.6875 9.589844 75.765625 9.976562 C 75.839844 10.359375 75.878906 10.75 75.878906 11.140625 Z M 75.878906 11.140625 "/>
<g clip-path="url(#clip3)" clip-rule="nonzero">
<path style=" stroke:none;fill-rule:nonzero;fill:rgb(100%,100%,100%);fill-opacity:1;" d="M 71.902344 18.464844 L 68.261719 18.464844 C 67.703125 18.464844 67.40625 19.097656 67.703125 19.542969 C 68.667969 20.957031 69.597656 22.664062 69.597656 24.488281 L 69.597656 30.433594 L 78.445312 30.433594 C 79.261719 30.433594 79.929688 29.765625 79.929688 28.945312 L 79.929688 26.457031 C 79.894531 22.070312 76.289062 18.464844 71.902344 18.464844 Z M 71.902344 18.464844 "/>
</g>
<path style=" stroke:none;fill-rule:nonzero;fill:rgb(100%,100%,100%);fill-opacity:1;" d="M 48.007812 11.140625 C 48.007812 11.535156 47.96875 11.925781 47.890625 12.308594 C 47.816406 12.695312 47.703125 13.070312 47.550781 13.433594 C 47.402344 13.796875 47.214844 14.140625 47 14.46875 C 46.78125 14.792969 46.53125 15.097656 46.253906 15.375 C 45.976562 15.652344 45.675781 15.898438 45.347656 16.117188 C 45.019531 16.335938 44.675781 16.519531 44.3125 16.671875 C 43.949219 16.820312 43.574219 16.933594 43.191406 17.011719 C 42.804688 17.089844 42.417969 17.125 42.023438 17.125 C 41.628906 17.125 41.242188 17.089844 40.855469 17.011719 C 40.46875 16.933594 40.097656 16.820312 39.734375 16.671875 C 39.371094 16.519531 39.027344 16.335938 38.699219 16.117188 C 38.371094 15.898438 38.070312 15.652344 37.792969 15.375 C 37.515625 15.097656 37.265625 14.792969 37.046875 14.46875 C 36.828125 14.140625 36.644531 13.796875 36.496094 13.433594 C 36.34375 13.070312 36.230469 12.695312 36.15625 12.308594 C 36.078125 11.925781 36.039062 11.535156 36.039062 11.140625 C 36.039062 10.75 36.078125 10.359375 36.15625 9.976562 C 36.230469 9.589844 36.34375 9.214844 36.496094 8.851562 C 36.644531 8.488281 36.828125 8.144531 37.046875 7.816406 C 37.265625 7.492188 37.515625 7.1875 37.792969 6.910156 C 38.070312 6.632812 38.371094 6.382812 38.699219 6.167969 C 39.027344 5.949219 39.371094 5.761719 39.734375 5.613281 C 40.097656 5.460938 40.46875 5.347656 40.855469 5.273438 C 41.242188 5.195312 41.628906 5.15625 42.023438 5.15625 C 42.417969 5.15625 42.804688 5.195312 43.191406 5.273438 C 43.574219 5.347656 43.949219 5.460938 44.3125 5.613281 C 44.675781 5.761719 45.019531 5.949219 45.347656 6.167969 C 45.675781 6.382812 45.976562 6.632812 46.253906 6.910156 C 46.53125 7.1875 46.78125 7.492188 47 7.816406 C 47.214844 8.144531 47.402344 8.488281 47.550781 8.851562 C 47.703125 9.214844 47.816406 9.589844 47.890625 9.976562 C 47.96875 10.359375 48.007812 10.75 48.007812 11.140625 Z M 48.007812 11.140625 "/>
<g clip-path="url(#clip4)" clip-rule="nonzero">
<path style=" stroke:none;fill-rule:nonzero;fill:rgb(100%,100%,100%);fill-opacity:1;" d="M 43.917969 24.488281 C 43.917969 22.738281 44.808594 21.066406 45.703125 19.691406 C 46 19.246094 45.703125 18.613281 45.183594 18.539062 C 44.808594 18.503906 44.4375 18.464844 44.03125 18.464844 L 40.386719 18.464844 C 36.003906 18.464844 32.398438 22.070312 32.398438 26.457031 L 32.398438 28.945312 C 32.398438 29.765625 33.066406 30.433594 33.882812 30.433594 L 43.917969 30.433594 Z M 43.917969 24.488281 "/>
</g>
</g>
</svg>
