<?xml version="1.0" encoding="UTF-8"?>
<svg xmlns="http://www.w3.org/2000/svg" xmlns:xlink="http://www.w3.org/1999/xlink" width="112.5pt" height="37.5pt" viewBox="0 0 112.5 37.5" version="1.2">
<defs>
<clipPath id="clip1">
  <path d="M 36.1875 2.535156 L 76.332031 2.535156 L 76.332031 34.5 L 36.1875 34.5 Z M 36.1875 2.535156 "/>
</clipPath>
</defs>
<g id="surface1">
<g clip-path="url(#clip1)" clip-rule="nonzero">
<path style=" stroke:none;fill-rule:nonzero;fill:rgb(100%,100%,100%);fill-opacity:1;" d="M 40.203125 2.535156 C 37.988281 2.535156 36.1875 4.328125 36.1875 6.53125 L 36.1875 30.503906 C 36.1875 32.710938 37.988281 34.5 40.203125 34.5 L 72.316406 34.5 C 74.527344 34.5 76.328125 32.710938 76.328125 30.503906 L 76.328125 6.53125 C 76.328125 4.328125 74.527344 2.535156 72.316406 2.535156 Z M 44.214844 6.53125 L 72.316406 6.53125 L 72.316406 30.503906 L 44.214844 30.503906 Z M 48.230469 8.527344 L 48.230469 12.523438 L 50.882812 12.523438 L 54.394531 21.257812 C 54.546875 21.636719 54.792969 21.941406 55.132812 22.167969 C 55.472656 22.398438 55.847656 22.511719 56.257812 22.511719 L 64.285156 22.511719 C 64.71875 22.515625 65.109375 22.386719 65.460938 22.136719 C 65.8125 21.886719 66.054688 21.554688 66.191406 21.148438 L 68.199219 15.152344 C 68.25 15.003906 68.28125 14.851562 68.292969 14.691406 C 68.308594 14.535156 68.304688 14.378906 68.277344 14.21875 C 68.253906 14.0625 68.210938 13.914062 68.152344 13.765625 C 68.09375 13.621094 68.015625 13.480469 67.921875 13.351562 C 67.828125 13.226562 67.722656 13.109375 67.601562 13.007812 C 67.480469 12.902344 67.351562 12.816406 67.207031 12.742188 C 67.066406 12.671875 66.917969 12.617188 66.765625 12.578125 C 66.609375 12.542969 66.453125 12.523438 66.292969 12.523438 L 55.207031 12.523438 L 54.105469 9.785156 C 53.953125 9.40625 53.707031 9.101562 53.367188 8.871094 C 53.027344 8.644531 52.652344 8.527344 52.242188 8.527344 Z M 40.203125 16.519531 C 41.308594 16.519531 42.207031 17.414062 42.207031 18.519531 C 42.207031 19.621094 41.308594 20.515625 40.203125 20.515625 C 39.09375 20.515625 38.195312 19.621094 38.195312 18.519531 C 38.195312 17.414062 39.09375 16.519531 40.203125 16.519531 Z M 56.257812 24.511719 C 55.992188 24.511719 55.734375 24.5625 55.488281 24.664062 C 55.242188 24.765625 55.027344 24.910156 54.839844 25.097656 C 54.652344 25.285156 54.503906 25.5 54.402344 25.746094 C 54.300781 25.988281 54.25 26.246094 54.25 26.507812 C 54.25 26.773438 54.300781 27.027344 54.402344 27.273438 C 54.503906 27.519531 54.652344 27.734375 54.839844 27.921875 C 55.027344 28.109375 55.242188 28.253906 55.488281 28.355469 C 55.734375 28.457031 55.992188 28.507812 56.257812 28.507812 C 56.523438 28.507812 56.78125 28.457031 57.027344 28.355469 C 57.273438 28.253906 57.488281 28.109375 57.675781 27.921875 C 57.867188 27.734375 58.011719 27.519531 58.113281 27.273438 C 58.214844 27.027344 58.265625 26.773438 58.265625 26.507812 C 58.265625 26.246094 58.214844 25.988281 58.113281 25.746094 C 58.011719 25.5 57.867188 25.285156 57.675781 25.097656 C 57.488281 24.910156 57.273438 24.765625 57.027344 24.664062 C 56.78125 24.5625 56.523438 24.511719 56.257812 24.511719 Z M 64.285156 24.511719 C 64.019531 24.511719 63.765625 24.5625 63.519531 24.664062 C 63.273438 24.765625 63.054688 24.910156 62.867188 25.097656 C 62.679688 25.285156 62.535156 25.5 62.433594 25.746094 C 62.332031 25.988281 62.28125 26.246094 62.28125 26.507812 C 62.28125 26.773438 62.332031 27.027344 62.433594 27.273438 C 62.535156 27.519531 62.679688 27.734375 62.867188 27.921875 C 63.054688 28.109375 63.273438 28.253906 63.519531 28.355469 C 63.765625 28.457031 64.019531 28.507812 64.285156 28.507812 C 64.550781 28.507812 64.808594 28.457031 65.054688 28.355469 C 65.300781 28.253906 65.515625 28.109375 65.707031 27.921875 C 65.894531 27.734375 66.039062 27.519531 66.140625 27.273438 C 66.242188 27.027344 66.292969 26.773438 66.292969 26.507812 C 66.292969 26.246094 66.242188 25.988281 66.140625 25.746094 C 66.039062 25.5 65.894531 25.285156 65.707031 25.097656 C 65.515625 24.910156 65.300781 24.765625 65.054688 24.664062 C 64.808594 24.5625 64.550781 24.511719 64.285156 24.511719 Z M 64.285156 24.511719 "/>
</g>
</g>
</svg>
