<?xml version="1.0" encoding="UTF-8"?>
<svg xmlns="http://www.w3.org/2000/svg" xmlns:xlink="http://www.w3.org/1999/xlink" width="112.5pt" height="37.5pt" viewBox="0 0 112.5 37.5" version="1.2">
<defs>
<clipPath id="clip1">
  <path d="M 38.890625 1.226562 L 72.34375 1.226562 L 72.34375 34.679688 L 38.890625 34.679688 Z M 38.890625 1.226562 "/>
</clipPath>
</defs>
<g id="surface1">
<g clip-path="url(#clip1)" clip-rule="nonzero">
<path style=" stroke:none;fill-rule:evenodd;fill:rgb(100%,100%,100%);fill-opacity:1;" d="M 49.363281 33.464844 L 42.613281 33.828125 C 42.140625 33.851562 41.722656 33.5625 41.5625 33.140625 L 41.457031 33.132812 L 41.902344 27.527344 C 40.964844 26.183594 40.226562 24.714844 39.71875 23.164062 C 39.167969 21.480469 38.890625 19.722656 38.890625 17.953125 C 38.890625 13.5 40.644531 9.269531 43.789062 6.125 C 46.933594 2.976562 51.164062 1.226562 55.617188 1.226562 C 60.066406 1.226562 64.296875 2.976562 67.445312 6.125 C 70.589844 9.269531 72.34375 13.5 72.34375 17.953125 C 72.34375 22.402344 70.589844 26.632812 67.445312 29.78125 C 64.296875 32.925781 60.066406 34.679688 55.617188 34.679688 C 54.503906 34.679688 53.394531 34.566406 52.304688 34.347656 C 51.296875 34.144531 50.3125 33.851562 49.363281 33.464844 Z M 43.828125 26.558594 C 43.996094 26.769531 44.078125 27.035156 44.054688 27.304688 L 43.714844 31.640625 L 49.9375 31.304688 L 49.945312 31.40625 C 49.949219 31.40625 49.953125 31.410156 49.957031 31.414062 C 50.847656 31.789062 51.773438 32.074219 52.71875 32.261719 C 53.675781 32.453125 54.644531 32.546875 55.617188 32.546875 C 59.5 32.546875 63.191406 31.019531 65.9375 28.273438 C 68.683594 25.527344 70.210938 21.835938 70.210938 17.953125 C 70.210938 14.066406 68.683594 10.378906 65.9375 7.632812 C 63.191406 4.886719 59.5 3.355469 55.617188 3.355469 C 51.730469 3.355469 48.042969 4.886719 45.296875 7.632812 C 42.550781 10.378906 41.023438 14.066406 41.023438 17.953125 C 41.023438 19.496094 41.261719 21.03125 41.742188 22.5 C 42.21875 23.957031 42.925781 25.324219 43.828125 26.558594 Z M 43.828125 26.558594 "/>
</g>
<path style=" stroke:none;fill-rule:nonzero;fill:rgb(100%,100%,100%);fill-opacity:1;" d="M 64.019531 22.761719 C 64.613281 24.15625 63.308594 25.765625 61.945312 25.765625 L 57.746094 25.765625 C 56 25.765625 54.367188 25.339844 53.300781 23.695312 C 53.230469 23.585938 53.203125 23.460938 53.207031 23.339844 L 53.207031 14.320312 C 53.207031 14.019531 53.421875 13.769531 53.695312 13.757812 C 53.695312 13.757812 54.734375 13.398438 55.429688 12.757812 C 56.011719 12.03125 56.382812 11.027344 56.527344 10.070312 C 56.640625 9.324219 56.871094 8.785156 57.171875 8.449219 C 57.417969 8.167969 57.707031 8.019531 58.019531 7.992188 C 58.316406 7.960938 58.621094 8.050781 58.910156 8.253906 C 59.328125 8.542969 59.71875 9.074219 60.015625 9.824219 C 60.257812 10.441406 60.398438 11.152344 60.367188 11.898438 C 60.355469 12.277344 60.296875 12.667969 60.183594 13.058594 L 63.167969 13.0625 C 64.296875 13.066406 64.960938 13.675781 65.253906 14.433594 C 65.460938 14.972656 65.472656 15.613281 65.28125 16.160156 C 65.207031 16.378906 65.097656 16.582031 64.964844 16.75 C 65.683594 17.691406 65.402344 19.261719 64.503906 19.945312 C 64.570312 20.066406 64.621094 20.199219 64.660156 20.339844 C 64.898438 21.167969 64.644531 22.210938 64.019531 22.761719 Z M 64.019531 22.761719 "/>
<path style=" stroke:none;fill-rule:nonzero;fill:rgb(100%,100%,100%);fill-opacity:1;" d="M 47.808594 12.714844 L 50.851562 12.714844 C 51.25 12.714844 51.613281 12.894531 51.878906 13.183594 C 52.140625 13.472656 52.304688 13.871094 52.304688 14.3125 L 52.304688 23.367188 C 52.304688 23.804688 52.140625 24.207031 51.878906 24.496094 C 51.613281 24.78125 51.25 24.964844 50.851562 24.964844 L 47.808594 24.964844 C 47.410156 24.964844 47.046875 24.78125 46.785156 24.496094 C 46.519531 24.207031 46.355469 23.804688 46.355469 23.367188 L 46.355469 14.3125 C 46.355469 13.871094 46.519531 13.472656 46.785156 13.183594 C 47.046875 12.894531 47.410156 12.714844 47.808594 12.714844 Z M 47.808594 12.714844 "/>
</g>
</svg>
