<?xml version="1.0" encoding="UTF-8"?>
<svg xmlns="http://www.w3.org/2000/svg" xmlns:xlink="http://www.w3.org/1999/xlink" width="37.5pt" height="37.499999pt" viewBox="0 0 37.5 37.499999" version="1.2">
<defs>
<clipPath id="clip1">
  <path d="M 0 0 L 37.007812 0 L 37.007812 37.007812 L 0 37.007812 Z M 0 0 "/>
</clipPath>
<clipPath id="clip2">
  <path d="M 7 6 L 37.007812 6 L 37.007812 37.007812 L 7 37.007812 Z M 7 6 "/>
</clipPath>
<clipPath id="clip3">
  <path d="M 8 7 L 32.699219 7 L 32.699219 28 L 8 28 Z M 8 7 "/>
</clipPath>
<clipPath id="clip4">
  <path d="M 4.992188 6.207031 L 30.710938 6.207031 L 30.710938 30.957031 L 4.992188 30.957031 Z M 4.992188 6.207031 "/>
</clipPath>
</defs>
<g id="surface1">
<g clip-path="url(#clip1)" clip-rule="nonzero">
<path style=" stroke:none;fill-rule:nonzero;fill:rgb(41.569519%,74.899292%,27.449036%);fill-opacity:1;" d="M 37.5 18.75 C 37.5 8.394531 29.105469 0 18.75 0 C 8.394531 0 0 8.394531 0 18.75 C 0 29.105469 8.394531 37.5 18.75 37.5 C 29.105469 37.5 37.5 29.105469 37.5 18.75 "/>
</g>
<g clip-path="url(#clip2)" clip-rule="nonzero">
<path style=" stroke:none;fill-rule:nonzero;fill:rgb(41.569519%,74.899292%,27.449036%);fill-opacity:1;" d="M 19.386719 6.683594 L 14.808594 10.210938 L 7.210938 14.203125 L 11.769531 17.195312 L 11.589844 26.953125 L 7.210938 29.101562 L 19.996094 37.453125 C 29.769531 36.8125 37.5 28.6875 37.5 18.75 C 37.5 18.449219 37.492188 18.15625 37.476562 17.859375 L 30.796875 13.492188 L 19.386719 6.683594 "/>
</g>
<path style=" stroke:none;fill-rule:nonzero;fill:rgb(41.569519%,74.899292%,27.449036%);fill-opacity:1;" d="M 12.636719 26.515625 L 10.554688 26.515625 L 10.554688 14.328125 L 12.636719 14.328125 L 12.636719 26.515625 "/>
<path style=" stroke:none;fill-rule:nonzero;fill:rgb(41.569519%,74.899292%,27.449036%);fill-opacity:1;" d="M 13.050781 15.234375 L 10.128906 15.234375 C 9.867188 15.234375 9.65625 15.023438 9.65625 14.765625 L 9.65625 14.363281 L 13.519531 14.363281 L 13.519531 14.765625 C 13.519531 15.023438 13.308594 15.234375 13.050781 15.234375 "/>
<path style=" stroke:none;fill-rule:nonzero;fill:rgb(41.569519%,74.899292%,27.449036%);fill-opacity:1;" d="M 12.6875 15.765625 L 10.492188 15.765625 C 10.296875 15.765625 10.136719 15.609375 10.136719 15.414062 L 10.136719 15.109375 L 13.039062 15.109375 L 13.039062 15.414062 C 13.039062 15.609375 12.878906 15.765625 12.6875 15.765625 "/>
<path style=" stroke:none;fill-rule:nonzero;fill:rgb(41.569519%,74.899292%,27.449036%);fill-opacity:1;" d="M 13.050781 25.878906 L 10.128906 25.878906 C 9.867188 25.878906 9.65625 26.089844 9.65625 26.347656 L 9.65625 26.75 L 13.519531 26.75 L 13.519531 26.347656 C 13.519531 26.089844 13.308594 25.878906 13.050781 25.878906 "/>
<path style=" stroke:none;fill-rule:nonzero;fill:rgb(41.569519%,74.899292%,27.449036%);fill-opacity:1;" d="M 12.6875 25.347656 L 10.492188 25.347656 C 10.296875 25.347656 10.136719 25.503906 10.136719 25.699219 L 10.136719 26 L 13.039062 26 L 13.039062 25.699219 C 13.039062 25.503906 12.878906 25.347656 12.6875 25.347656 "/>
<path style=" stroke:none;fill-rule:nonzero;fill:rgb(41.569519%,74.899292%,27.449036%);fill-opacity:1;" d="M 18.027344 26.515625 L 20.109375 26.515625 L 20.109375 14.328125 L 18.027344 14.328125 Z M 18.027344 26.515625 "/>
<path style=" stroke:none;fill-rule:nonzero;fill:rgb(41.569519%,74.899292%,27.449036%);fill-opacity:1;" d="M 20.523438 15.234375 L 17.601562 15.234375 C 17.339844 15.234375 17.128906 15.023438 17.128906 14.765625 L 17.128906 14.363281 L 20.992188 14.363281 L 20.992188 14.765625 C 20.992188 15.023438 20.78125 15.234375 20.523438 15.234375 "/>
<path style=" stroke:none;fill-rule:nonzero;fill:rgb(41.569519%,74.899292%,27.449036%);fill-opacity:1;" d="M 20.15625 15.765625 L 17.964844 15.765625 C 17.769531 15.765625 17.609375 15.609375 17.609375 15.414062 L 17.609375 15.109375 L 20.511719 15.109375 L 20.511719 15.414062 C 20.511719 15.609375 20.351562 15.765625 20.15625 15.765625 "/>
<path style=" stroke:none;fill-rule:nonzero;fill:rgb(41.569519%,74.899292%,27.449036%);fill-opacity:1;" d="M 20.523438 25.878906 L 17.601562 25.878906 C 17.339844 25.878906 17.128906 26.089844 17.128906 26.347656 L 17.128906 26.75 L 20.992188 26.75 L 20.992188 26.347656 C 20.992188 26.089844 20.78125 25.878906 20.523438 25.878906 "/>
<path style=" stroke:none;fill-rule:nonzero;fill:rgb(41.569519%,74.899292%,27.449036%);fill-opacity:1;" d="M 20.15625 25.347656 L 17.964844 25.347656 C 17.769531 25.347656 17.609375 25.503906 17.609375 25.699219 L 17.609375 26 L 20.511719 26 L 20.511719 25.699219 C 20.511719 25.503906 20.351562 25.347656 20.15625 25.347656 "/>
<path style=" stroke:none;fill-rule:nonzero;fill:rgb(41.569519%,74.899292%,27.449036%);fill-opacity:1;" d="M 25.5 26.515625 L 27.582031 26.515625 L 27.582031 14.328125 L 25.5 14.328125 Z M 25.5 26.515625 "/>
<path style=" stroke:none;fill-rule:nonzero;fill:rgb(41.569519%,74.899292%,27.449036%);fill-opacity:1;" d="M 27.992188 15.234375 L 25.070312 15.234375 C 24.8125 15.234375 24.601562 15.023438 24.601562 14.765625 L 24.601562 14.363281 L 28.464844 14.363281 L 28.464844 14.765625 C 28.464844 15.023438 28.253906 15.234375 27.992188 15.234375 "/>
<path style=" stroke:none;fill-rule:nonzero;fill:rgb(41.569519%,74.899292%,27.449036%);fill-opacity:1;" d="M 27.628906 15.765625 L 25.4375 15.765625 C 25.242188 15.765625 25.082031 15.609375 25.082031 15.414062 L 25.082031 15.109375 L 27.984375 15.109375 L 27.984375 15.414062 C 27.984375 15.609375 27.824219 15.765625 27.628906 15.765625 "/>
<path style=" stroke:none;fill-rule:nonzero;fill:rgb(41.569519%,74.899292%,27.449036%);fill-opacity:1;" d="M 27.992188 25.878906 L 25.070312 25.878906 C 24.8125 25.878906 24.601562 26.089844 24.601562 26.347656 L 24.601562 26.75 L 28.464844 26.75 L 28.464844 26.347656 C 28.464844 26.089844 28.253906 25.878906 27.992188 25.878906 "/>
<path style=" stroke:none;fill-rule:nonzero;fill:rgb(41.569519%,74.899292%,27.449036%);fill-opacity:1;" d="M 27.628906 25.347656 L 25.4375 25.347656 C 25.242188 25.347656 25.082031 25.503906 25.082031 25.699219 L 25.082031 26 L 27.984375 26 L 27.984375 25.699219 C 27.984375 25.503906 27.824219 25.347656 27.628906 25.347656 "/>
<path style=" stroke:none;fill-rule:nonzero;fill:rgb(41.569519%,74.899292%,27.449036%);fill-opacity:1;" d="M 28.945312 27.203125 L 9.175781 27.203125 C 9.175781 26.925781 9.402344 26.699219 9.683594 26.699219 L 28.441406 26.699219 C 28.71875 26.699219 28.945312 26.925781 28.945312 27.203125 "/>
<path style=" stroke:none;fill-rule:nonzero;fill:rgb(41.569519%,74.899292%,27.449036%);fill-opacity:1;" d="M 29.898438 27.734375 L 8.222656 27.734375 C 8.222656 27.425781 8.46875 27.179688 8.777344 27.179688 L 29.34375 27.179688 C 29.652344 27.179688 29.898438 27.425781 29.898438 27.734375 "/>
<path style=" stroke:none;fill-rule:nonzero;fill:rgb(41.569519%,74.899292%,27.449036%);fill-opacity:1;" d="M 30.910156 29.101562 L 7.210938 29.101562 L 7.210938 28.601562 C 7.210938 28.089844 7.625 27.671875 8.140625 27.671875 L 29.980469 27.671875 C 30.496094 27.671875 30.910156 28.089844 30.910156 28.601562 L 30.910156 29.101562 "/>
<path style=" stroke:none;fill-rule:nonzero;fill:rgb(41.569519%,74.899292%,27.449036%);fill-opacity:1;" d="M 19.324219 12.613281 L 19.324219 13.101562 C 19.324219 13.203125 19.242188 13.289062 19.136719 13.289062 L 18.75 13.289062 C 18.644531 13.289062 18.5625 13.203125 18.5625 13.101562 L 18.5625 12.65625 C 18.234375 12.621094 17.910156 12.511719 17.699219 12.363281 C 17.632812 12.3125 17.601562 12.222656 17.632812 12.144531 L 17.78125 11.734375 C 17.800781 11.679688 17.84375 11.636719 17.898438 11.617188 C 17.953125 11.597656 18.011719 11.609375 18.0625 11.640625 C 18.277344 11.785156 18.570312 11.871094 18.84375 11.871094 C 19.167969 11.871094 19.386719 11.707031 19.386719 11.457031 C 19.386719 11.289062 19.316406 11.105469 18.808594 10.898438 C 18.25 10.679688 17.675781 10.363281 17.675781 9.660156 C 17.675781 9.105469 18.035156 8.671875 18.605469 8.519531 L 18.605469 8.050781 C 18.605469 7.945312 18.6875 7.863281 18.792969 7.863281 L 19.175781 7.863281 C 19.277344 7.863281 19.363281 7.945312 19.363281 8.050781 L 19.363281 8.472656 C 19.625 8.5 19.859375 8.578125 20.070312 8.699219 C 20.148438 8.746094 20.183594 8.84375 20.148438 8.929688 L 19.996094 9.335938 C 19.976562 9.386719 19.933594 9.425781 19.882812 9.445312 C 19.832031 9.464844 19.773438 9.457031 19.726562 9.429688 C 19.628906 9.375 19.40625 9.246094 19.046875 9.246094 C 18.703125 9.246094 18.582031 9.421875 18.582031 9.585938 C 18.582031 9.769531 18.675781 9.886719 19.226562 10.113281 C 19.726562 10.316406 20.296875 10.648438 20.296875 11.414062 C 20.296875 11.988281 19.914062 12.453125 19.324219 12.613281 M 30.796875 13.492188 L 19.449219 5.960938 C 19.21875 5.808594 18.902344 5.808594 18.671875 5.960938 L 7.324219 13.492188 C 6.8125 13.835938 7.078125 14.574219 7.714844 14.574219 L 30.40625 14.574219 C 31.042969 14.574219 31.308594 13.835938 30.796875 13.492188 "/>
<path style=" stroke:none;fill-rule:nonzero;fill:rgb(41.569519%,74.899292%,27.449036%);fill-opacity:1;" d="M 30.910156 29.101562 L 19.066406 29.101562 L 30.910156 29.101562 L 30.910156 28.601562 L 30.910156 29.101562 M 29.355469 27.179688 L 29.355469 27.179688 M 29.355469 27.179688 L 29.355469 27.179688 M 29.355469 27.179688 L 29.355469 27.179688 M 29.351562 27.179688 L 29.351562 27.179688 M 29.351562 27.179688 L 29.351562 27.179688 M 29.347656 27.179688 L 29.347656 27.179688 M 29.347656 27.179688 C 29.347656 27.179688 29.347656 27.179688 29.34375 27.179688 C 29.347656 27.179688 29.347656 27.179688 29.347656 27.179688 M 20.992188 26.34375 C 20.988281 26.085938 20.78125 25.878906 20.523438 25.878906 C 20.78125 25.878906 20.988281 26.085938 20.992188 26.34375 M 28.292969 25.988281 C 28.214844 25.917969 28.109375 25.878906 27.992188 25.878906 C 28.109375 25.878906 28.214844 25.917969 28.292969 25.988281 M 27.984375 25.699219 C 27.984375 25.601562 27.945312 25.515625 27.882812 25.449219 C 27.945312 25.515625 27.984375 25.601562 27.984375 25.699219 M 25.082031 25.699219 C 25.082031 25.507812 25.238281 25.351562 25.425781 25.347656 C 25.238281 25.351562 25.082031 25.507812 25.082031 25.699219 M 20.511719 25.699219 C 20.511719 25.507812 20.355469 25.351562 20.167969 25.347656 C 20.355469 25.351562 20.511719 25.507812 20.511719 25.699219 M 27.882812 25.449219 C 27.882812 25.449219 27.882812 25.449219 27.878906 25.449219 C 27.882812 25.449219 27.882812 25.449219 27.882812 25.449219 M 27.878906 25.449219 L 27.878906 25.449219 M 27.878906 25.449219 L 27.878906 25.449219 M 27.644531 25.347656 C 27.644531 25.347656 27.644531 25.347656 27.640625 25.347656 C 27.644531 25.347656 27.644531 25.347656 27.644531 25.347656 M 27.640625 25.347656 L 27.640625 25.347656 M 20.109375 25.347656 L 20.109375 15.765625 L 20.15625 15.765625 C 20.351562 15.765625 20.511719 15.609375 20.511719 15.414062 L 20.511719 15.234375 L 20.523438 15.234375 C 20.523438 15.234375 20.523438 15.234375 20.527344 15.234375 C 20.523438 15.234375 20.523438 15.234375 20.523438 15.234375 L 20.511719 15.234375 L 20.511719 15.414062 C 20.511719 15.609375 20.351562 15.765625 20.15625 15.765625 L 20.109375 15.765625 L 20.109375 25.347656 M 27.984375 15.429688 C 27.984375 15.421875 27.984375 15.417969 27.984375 15.414062 L 27.984375 15.234375 L 27.992188 15.234375 C 27.996094 15.234375 27.996094 15.234375 28 15.234375 C 27.996094 15.234375 27.996094 15.234375 27.992188 15.234375 L 27.984375 15.234375 L 27.984375 15.414062 C 27.984375 15.417969 27.984375 15.421875 27.984375 15.429688 M 28.011719 15.234375 C 28.074219 15.230469 28.132812 15.214844 28.1875 15.191406 C 28.132812 15.214844 28.074219 15.230469 28.011719 15.234375 M 20.539062 15.234375 C 20.660156 15.226562 20.769531 15.175781 20.851562 15.097656 C 20.769531 15.175781 20.660156 15.226562 20.539062 15.234375 M 20.851562 15.097656 C 20.851562 15.097656 20.851562 15.097656 20.855469 15.097656 C 20.851562 15.097656 20.851562 15.097656 20.851562 15.097656 M 20.855469 15.097656 C 20.855469 15.09375 20.855469 15.09375 20.855469 15.09375 C 20.855469 15.09375 20.855469 15.09375 20.855469 15.097656 M 20.855469 15.09375 L 20.855469 15.09375 M 20.992188 14.78125 C 20.992188 14.777344 20.992188 14.773438 20.992188 14.769531 C 20.992188 14.773438 20.992188 14.777344 20.992188 14.78125 M 20.296875 11.414062 C 20.296875 10.648438 19.726562 10.316406 19.226562 10.113281 C 19.226562 10.113281 19.222656 10.113281 19.222656 10.113281 C 19.222656 10.113281 19.226562 10.113281 19.226562 10.113281 C 19.726562 10.316406 20.296875 10.648438 20.296875 11.414062 "/>
<path style=" stroke:none;fill-rule:nonzero;fill:rgb(41.569519%,74.899292%,27.449036%);fill-opacity:1;" d="M 19.066406 25.347656 L 20.109375 25.347656 L 20.109375 15.765625 L 19.066406 15.765625 Z M 19.066406 25.347656 "/>
<path style=" stroke:none;fill-rule:nonzero;fill:rgb(41.569519%,74.899292%,27.449036%);fill-opacity:1;" d="M 20.523438 15.234375 L 20.511719 15.234375 L 20.511719 15.109375 L 19.066406 15.109375 L 19.066406 14.574219 L 20.992188 14.574219 L 20.992188 14.765625 C 20.992188 14.765625 20.992188 14.765625 20.992188 14.769531 C 20.992188 14.773438 20.992188 14.777344 20.992188 14.78125 C 20.988281 14.902344 20.9375 15.011719 20.855469 15.09375 C 20.855469 15.09375 20.855469 15.09375 20.855469 15.097656 C 20.851562 15.097656 20.851562 15.097656 20.851562 15.097656 C 20.769531 15.175781 20.660156 15.226562 20.539062 15.234375 C 20.535156 15.234375 20.53125 15.234375 20.527344 15.234375 C 20.523438 15.234375 20.523438 15.234375 20.523438 15.234375 "/>
<path style=" stroke:none;fill-rule:nonzero;fill:rgb(41.569519%,74.899292%,27.449036%);fill-opacity:1;" d="M 20.15625 15.765625 L 19.066406 15.765625 L 19.066406 15.109375 L 20.511719 15.109375 L 20.511719 15.414062 C 20.511719 15.609375 20.351562 15.765625 20.15625 15.765625 "/>
<path style=" stroke:none;fill-rule:nonzero;fill:rgb(41.569519%,74.899292%,27.449036%);fill-opacity:1;" d="M 20.992188 26.699219 L 19.066406 26.699219 L 19.066406 26 L 20.511719 26 L 20.511719 25.878906 L 20.523438 25.878906 C 20.78125 25.878906 20.988281 26.085938 20.992188 26.34375 C 20.992188 26.34375 20.992188 26.347656 20.992188 26.347656 L 20.992188 26.699219 "/>
<path style=" stroke:none;fill-rule:nonzero;fill:rgb(41.569519%,74.899292%,27.449036%);fill-opacity:1;" d="M 20.511719 26 L 19.066406 26 L 19.066406 25.347656 L 20.15625 25.347656 C 20.160156 25.347656 20.164062 25.347656 20.167969 25.347656 C 20.355469 25.351562 20.511719 25.507812 20.511719 25.699219 L 20.511719 26 "/>
<path style=" stroke:none;fill-rule:nonzero;fill:rgb(41.569519%,74.899292%,27.449036%);fill-opacity:1;" d="M 27.582031 25.347656 L 25.5 25.347656 L 25.5 15.765625 L 27.582031 15.765625 L 27.582031 25.347656 "/>
<path style=" stroke:none;fill-rule:nonzero;fill:rgb(41.569519%,74.899292%,27.449036%);fill-opacity:1;" d="M 27.992188 15.234375 L 27.984375 15.234375 L 27.984375 15.109375 L 25.082031 15.109375 L 25.082031 15.234375 L 25.070312 15.234375 C 25.070312 15.234375 25.070312 15.234375 25.066406 15.234375 C 24.808594 15.230469 24.601562 15.019531 24.601562 14.765625 L 24.601562 14.574219 L 28.464844 14.574219 L 28.464844 14.765625 C 28.464844 14.953125 28.351562 15.117188 28.1875 15.191406 C 28.132812 15.214844 28.074219 15.230469 28.011719 15.234375 C 28.007812 15.234375 28.003906 15.234375 28 15.234375 C 27.996094 15.234375 27.996094 15.234375 27.992188 15.234375 "/>
<path style=" stroke:none;fill-rule:nonzero;fill:rgb(41.569519%,74.899292%,27.449036%);fill-opacity:1;" d="M 27.628906 15.765625 L 25.4375 15.765625 C 25.242188 15.765625 25.082031 15.609375 25.082031 15.414062 L 25.082031 15.109375 L 27.984375 15.109375 L 27.984375 15.414062 C 27.984375 15.417969 27.984375 15.421875 27.984375 15.429688 C 27.972656 15.617188 27.820312 15.765625 27.628906 15.765625 "/>
<path style=" stroke:none;fill-rule:nonzero;fill:rgb(41.569519%,74.899292%,27.449036%);fill-opacity:1;" d="M 28.464844 26.699219 C 28.457031 26.699219 28.449219 26.699219 28.441406 26.699219 L 24.601562 26.699219 L 24.601562 26.347656 C 24.601562 26.089844 24.8125 25.878906 25.070312 25.878906 L 25.082031 25.878906 L 25.082031 26 L 27.984375 26 L 27.984375 25.878906 L 27.992188 25.878906 C 28.109375 25.878906 28.214844 25.917969 28.292969 25.988281 C 28.398438 26.074219 28.464844 26.203125 28.464844 26.347656 L 28.464844 26.699219 "/>
<path style=" stroke:none;fill-rule:nonzero;fill:rgb(41.569519%,74.899292%,27.449036%);fill-opacity:1;" d="M 27.984375 26 L 25.082031 26 L 25.082031 25.699219 C 25.082031 25.507812 25.238281 25.351562 25.425781 25.347656 C 25.429688 25.347656 25.433594 25.347656 25.4375 25.347656 L 27.628906 25.347656 C 27.632812 25.347656 27.636719 25.347656 27.640625 25.347656 C 27.644531 25.347656 27.644531 25.347656 27.644531 25.347656 C 27.734375 25.347656 27.816406 25.386719 27.878906 25.449219 C 27.882812 25.449219 27.882812 25.449219 27.882812 25.449219 C 27.945312 25.515625 27.984375 25.601562 27.984375 25.699219 L 27.984375 26 "/>
<path style=" stroke:none;fill-rule:nonzero;fill:rgb(41.569519%,74.899292%,27.449036%);fill-opacity:1;" d="M 28.941406 27.179688 L 19.066406 27.179688 L 19.066406 26.699219 L 28.441406 26.699219 C 28.449219 26.699219 28.457031 26.699219 28.464844 26.699219 L 28.464844 26.703125 C 28.722656 26.714844 28.925781 26.921875 28.941406 27.179688 "/>
<path style=" stroke:none;fill-rule:nonzero;fill:rgb(41.569519%,74.899292%,27.449036%);fill-opacity:1;" d="M 29.894531 27.671875 L 19.066406 27.671875 L 19.066406 27.179688 L 29.34375 27.179688 C 29.347656 27.179688 29.347656 27.179688 29.347656 27.179688 C 29.347656 27.179688 29.351562 27.179688 29.351562 27.179688 C 29.351562 27.179688 29.351562 27.179688 29.355469 27.179688 C 29.636719 27.183594 29.863281 27.398438 29.894531 27.671875 "/>
<path style=" stroke:none;fill-rule:nonzero;fill:rgb(41.569519%,74.899292%,27.449036%);fill-opacity:1;" d="M 30.910156 29.101562 L 19.066406 29.101562 L 19.066406 27.671875 L 29.980469 27.671875 C 30.496094 27.671875 30.910156 28.089844 30.910156 28.601562 L 30.910156 29.101562 "/>
<path style=" stroke:none;fill-rule:nonzero;fill:rgb(41.569519%,74.899292%,27.449036%);fill-opacity:1;" d="M 30.40625 14.574219 L 19.066406 14.574219 L 19.066406 13.289062 L 19.136719 13.289062 C 19.242188 13.289062 19.324219 13.203125 19.324219 13.101562 L 19.324219 12.613281 C 19.914062 12.453125 20.296875 11.988281 20.296875 11.414062 C 20.296875 10.648438 19.726562 10.316406 19.226562 10.113281 C 19.226562 10.113281 19.222656 10.113281 19.222656 10.113281 C 19.164062 10.089844 19.117188 10.066406 19.066406 10.046875 L 19.066406 9.25 C 19.414062 9.253906 19.632812 9.378906 19.726562 9.429688 C 19.753906 9.449219 19.789062 9.457031 19.820312 9.457031 C 19.839844 9.457031 19.863281 9.453125 19.882812 9.445312 C 19.933594 9.425781 19.976562 9.386719 19.996094 9.335938 L 20.148438 8.929688 C 20.15625 8.90625 20.160156 8.882812 20.160156 8.863281 C 20.164062 8.796875 20.128906 8.734375 20.070312 8.699219 C 19.859375 8.578125 19.625 8.5 19.363281 8.472656 L 19.363281 8.050781 C 19.363281 7.945312 19.277344 7.863281 19.175781 7.863281 L 19.066406 7.863281 L 19.066406 5.847656 C 19.203125 5.847656 19.335938 5.886719 19.449219 5.960938 L 30.796875 13.492188 C 30.984375 13.617188 31.066406 13.796875 31.066406 13.96875 C 31.066406 14.273438 30.8125 14.574219 30.40625 14.574219 "/>
<path style=" stroke:none;fill-rule:nonzero;fill:rgb(41.569519%,74.899292%,27.449036%);fill-opacity:1;" d="M 19.066406 11.839844 L 19.066406 11.027344 C 19.335938 11.179688 19.386719 11.324219 19.386719 11.457031 C 19.386719 11.457031 19.386719 11.460938 19.386719 11.460938 C 19.386719 11.460938 19.386719 11.460938 19.386719 11.464844 C 19.382812 11.644531 19.261719 11.78125 19.066406 11.839844 "/>
<g clip-path="url(#clip3)" clip-rule="nonzero">
<path style=" stroke:none;fill-rule:nonzero;fill:rgb(88.238525%,88.238525%,88.238525%);fill-opacity:1;" d="M 31.121094 7.363281 C 25.933594 10.402344 21.296875 14.261719 17.402344 18.792969 C 17.242188 18.980469 16.960938 19.011719 16.757812 18.867188 L 11.902344 15.277344 C 11.722656 15.144531 11.476562 15.152344 11.308594 15.296875 L 8.917969 17.34375 C 8.71875 17.511719 8.699219 17.804688 8.871094 18 C 8.878906 18.007812 8.886719 18.019531 8.894531 18.027344 L 18.363281 27.132812 C 18.546875 27.3125 18.851562 27.308594 19.03125 27.128906 C 19.066406 27.089844 19.097656 27.050781 19.121094 27.003906 C 22.460938 20.320312 26.972656 14.257812 32.445312 9.097656 C 32.617188 8.9375 32.640625 8.675781 32.496094 8.488281 L 31.738281 7.484375 C 31.59375 7.296875 31.324219 7.242188 31.117188 7.363281 L 31.121094 7.363281 "/>
</g>
<g clip-path="url(#clip4)" clip-rule="nonzero">
<path style=" stroke:none;fill-rule:nonzero;fill:rgb(88.238525%,88.238525%,88.238525%);fill-opacity:1;" d="M 29.289062 15.761719 L 29.289062 26.84375 C 29.289062 28.621094 27.824219 30.058594 26.015625 30.058594 L 9.210938 30.058594 C 7.402344 30.058594 5.9375 28.621094 5.9375 26.84375 L 5.9375 10.351562 C 5.9375 8.578125 7.402344 7.136719 9.210938 7.136719 L 26.015625 7.136719 L 26.015625 6.210938 L 9.210938 6.210938 C 6.878906 6.210938 4.992188 8.066406 4.992188 10.351562 L 4.992188 26.84375 C 4.992188 29.132812 6.878906 30.988281 9.210938 30.988281 L 26.015625 30.988281 C 28.34375 30.988281 30.234375 29.132812 30.238281 26.84375 L 30.238281 15.761719 L 29.289062 15.761719 "/>
</g>
</g>
</svg>
