<?xml version="1.0" encoding="UTF-8"?>
<svg width="1439.2pt" height="450pt" version="1.2" viewBox="0 0 1439.2 450" xmlns="http://www.w3.org/2000/svg">
<defs>
<clipPath id="i">
<path d="m0 0.11719h1438.5v449.77h-1438.5z"/>
</clipPath>
<clipPath id="h">
<path d="m0 64.004h36.129v53.105h-36.129z"/>
</clipPath>
<clipPath id="g">
<path d="m0 386.14h36.129v24.93h-36.129z"/>
</clipPath>
<clipPath id="f">
<path d="m303 39.262h79.957v78.738h-79.957z"/>
</clipPath>
<clipPath id="e">
<path d="m303.05 386.14h43.711v24.93h-43.711z"/>
</clipPath>
<clipPath id="d">
<path d="m1401.5 52.586h37.031v54.785h-37.031z"/>
</clipPath>
<clipPath id="c">
<path d="m1401.5 385h37.031v25.859h-37.031z"/>
</clipPath>
<clipPath id="b">
<path d="m1043 27.059h83.047v80.941h-83.047z"/>
</clipPath>
<clipPath id="a">
<path d="m1080.4 385h45.184v25.859h-45.184z"/>
</clipPath>
</defs>
<g clip-path="url(#i)">
<path d="m0 0.11719h1439.2v457.26h-1439.2z" fill="#fff"/>
<path d="m0 0.11719h1438.5v449.77h-1438.5z" fill="#fff"/>
<path d="m0 0.11719h1438.5v449.77h-1438.5z" fill="#5daf11"/>
</g>
<g clip-path="url(#h)">
<path d="m-24.574 39.273 23.539 14.918 25.617-10.961-6.8945 27.031 18.328 21.012-27.801 1.7852-14.297 23.945-10.285-25.926-27.16-6.2109 21.445-17.809zm8.2344 13.504 1.2227 13.652 0.32813 3.668-2.8281 2.3516-10.539 8.75 13.348 3.0508 3.582 0.82031 1.3555 3.4219 5.0586 12.738 7.0234-11.766 1.8828-3.1562 3.6719-0.23828 13.66-0.875-9.0039-10.328-2.418-2.7695 0.91016-3.5703 3.3867-13.281-12.59 5.3867-3.3789 1.4453-3.1094-1.9688-11.562-7.332" fill="#f4f4f4"/>
</g>
<g clip-path="url(#g)">
<path d="m-24.574 386.66 23.539 14.922 25.617-10.961-6.8945 27.027 18.328 21.012-27.801 1.7891-14.297 23.945-10.285-25.926-27.16-6.2148 21.445-17.805zm8.2344 13.508 1.2227 13.652 0.32813 3.668-2.8281 2.3516-10.539 8.7461 13.348 3.0547 3.582 0.82031 1.3555 3.4219 5.0586 12.738 7.0234-11.766 1.8828-3.1602 3.6719-0.23437 13.66-0.87891-9.0039-10.324-2.418-2.7734 0.91016-3.5664 3.3867-13.281-12.59 5.3828-3.3789 1.4492-3.1094-1.9688-11.562-7.332" fill="#f4f4f4"/>
</g>
<g clip-path="url(#f)">
<path d="m322.35 39.273 23.539 14.918 25.621-10.961-6.8945 27.031 18.324 21.012-27.801 1.7852-14.293 23.945-10.289-25.926-27.16-6.2109 21.445-17.809zm8.2344 13.504 1.2227 13.652 0.33203 3.668-2.832 2.3516-10.535 8.75 13.344 3.0508 3.5859 0.82031 1.3555 3.4219 5.0547 12.738 7.0234-11.766 1.8867-3.1562 3.668-0.23828 13.664-0.875-9.0078-10.328-2.418-2.7695 0.91016-3.5703 3.3906-13.281-12.59 5.3867-3.3828 1.4453-3.1055-1.9688-11.566-7.332" fill="#f4f4f4"/>
</g>
<g clip-path="url(#e)">
<path d="m322.35 386.66 23.539 14.922 25.621-10.961-6.8945 27.027 18.324 21.012-27.801 1.7891-14.293 23.945-10.289-25.926-27.16-6.2148 21.445-17.805zm8.2344 13.508 1.2227 13.652 0.33203 3.668-2.832 2.3477-10.535 8.75 13.344 3.0547 3.5859 0.82031 1.3555 3.4219 5.0547 12.738 7.0234-11.766 1.8867-3.1602 3.668-0.23437 13.664-0.87891-9.0078-10.324-2.418-2.7734 0.91016-3.5664 3.3906-13.281-12.59 5.3828-3.3828 1.4492-3.1055-1.9688-11.566-7.332" fill="#f4f4f4"/>
</g>
<path d="m258.05 200.8 3.5078 27.672 24.758 12.797-25.203 11.895-4.5039 27.531-19.082-20.324-27.539 4.2188 13.406-24.457-12.516-24.922 27.367 5.2109zm-5.1523 14.957-9.7344 9.6406-2.6094 2.5898-17.062-3.2461 6.1523 12.246 1.6523 3.2891-1.7695 3.2266-6.5898 12.016 13.531-2.0742 3.6328-0.55469 2.5234 2.6836 9.375 9.9844 2.2148-13.527 0.59375-3.6328 3.3242-1.5703 12.383-5.8438-12.164-6.2891-3.2656-1.6875-0.46484-3.6484-1.7227-13.602" fill="#f4f4f4"/>
<path d="m136.84 190.7 12.43 7.957 0.5 14.762 11.398-9.3789 14.176 4.082-5.3867-13.75 8.2617-12.238-14.727 0.87891-9.0703-11.645-3.7188 14.293-13.863 5.0391" fill="#f4f4f4"/>
<path d="m64.793 354.79 1.3164 14.711-11.352 9.4297 14.379 3.2852 5.4453 13.73 7.5703-12.68 14.719-0.94531-9.7031-11.125 3.6523-14.312-13.566 5.8047-12.461-7.8984" fill="#f4f4f4"/>
<path d="m236.8 87.098 1.3203 14.707-11.355 9.4336 14.383 3.2852 5.4492 13.727 7.5664-12.676 14.719-0.94922-9.7031-11.121 3.6523-14.312-13.566 5.8047-12.465-7.8984" fill="#f4f4f4"/>
<path d="m300.46 148.96-5.7109 14.625-15.27 3.582 12.125 9.9609-1.3125 15.648 13.203-8.4727 14.457 6.0898-3.9648-15.191 10.254-11.887-15.66-0.92187-8.1211-13.434" fill="#f4f4f4"/>
<path d="m73.18 238.94 15.301 25.316 29.504 1.7305-19.32 22.395 7.4727 28.633-27.238-11.477-24.887 15.961 2.4844-29.484-22.852-18.766 28.773-6.7461zm1.3555 15.766-5.6016 14.344-1.3398 3.4297-18.559 4.3516 11.895 9.7656 2.8438 2.3359-0.30859 3.668-1.293 15.352 12.953-8.3086 3.0977-1.9883 3.3867 1.4297 14.176 5.9727-3.8867-14.902-0.92969-3.5625 2.4023-2.7891 10.055-11.652-15.355-0.90234-3.6719-0.21484-1.9023-3.1523-7.9609-13.176" fill="#f4f4f4"/>
<path d="m45.652 152.5-5.7148 14.625-15.27 3.582 12.129 9.9609-1.3164 15.648 13.203-8.4727 14.457 6.0938-3.9648-15.199 10.254-11.883-15.66-0.92188-8.1172-13.434" fill="#f4f4f4"/>
<path d="m194.04 292.32-5.7148 14.625-15.27 3.582 12.129 9.9609-1.3203 15.648 13.207-8.4688 14.457 6.0898-3.9648-15.195 10.25-11.887-15.656-0.91797-8.1172-13.438" fill="#f4f4f4"/>
<path d="m312.63 308.36-2.9688 7.7305-8.043 1.9336 6.4297 5.2148-0.64844 8.2578 6.9375-4.5078 7.6406 3.168-2.1367-8 5.3711-6.3008-8.2578-0.4375-4.3242-7.0586" fill="#f4f4f4"/>
<path d="m149.53 244.21-2.9688 7.7305-8.0391 1.9375 6.4219 5.2148-0.64453 8.2539 6.9375-4.5039 7.6445 3.1641-2.1406-8 5.3711-6.2969-8.2578-0.4375-4.3242-7.0625" fill="#f4f4f4"/>
<path d="m177.92 368.36-6.3477 5.3086-7.9688-2.2227 3.082 7.6836-4.5742 6.9023 8.2539-0.5625 5.1406 6.4922 2.0156-8.0352 7.7539-2.8906-7.0078-4.4023-0.34766-8.2734" fill="#f4f4f4"/>
<path d="m28.895 225.13-6.3477 5.3164-7.9688-2.2266 3.0859 7.6836-4.5781 6.9023 8.2539-0.5625 5.1406 6.4922 2.0156-8.0352 7.7539-2.8906-7.0078-4.4023-0.34766-8.2773" fill="#f4f4f4"/>
<path d="m325.86 232.18-6.3477 5.3125-7.9688-2.2227 3.0859 7.6836-4.5742 6.8984 8.25-0.5625 5.1406 6.4922 2.0195-8.0312 7.75-2.8906-7.0078-4.4062-0.34766-8.2734" fill="#f4f4f4"/>
<path d="m167.55 95.281 0.35938 8.2734-6.6055 4.9844 7.9688 2.2188 2.6914 7.832 4.5703-6.9023 8.2695-0.14844-5.1445-6.4805 2.418-7.9219-7.75 2.8945-6.7773-4.75" fill="#f4f4f4"/>
<path d="m103.12 162.75 0.35547 8.2734-6.6055 4.9844 7.9688 2.2188 2.6953 7.832 4.5664-6.9062 8.2734-0.14453-5.1445-6.4844 2.4141-7.9219-7.75 2.8984-6.7734-4.75" fill="#f4f4f4"/>
<path d="m98.371 81.766-4.7109 12.062-12.594 2.957 10 8.2109-1.0859 12.91 10.891-6.9883 11.926 5.0234-3.2695-12.531 8.457-9.8047-12.914-0.75781-6.6992-11.082" fill="#f4f4f4"/>
<path d="m275.08 354.48-11.012 9.6211-14.156-3.6289 5.7344 13.461-7.8242 12.359 14.559-1.3047 9.3203 11.27 3.2617-14.262 13.586-5.3984-12.539-7.5117-0.92969-14.605" fill="#f4f4f4"/>
<g clip-path="url(#d)">
<path d="m1464.2 27.07-24.332 15.391-26.484-11.309 7.1289 27.891-18.945 21.676 28.738 1.8398 14.777 24.703 10.633-26.746 28.074-6.4102-22.168-18.371zm-8.5117 13.934-1.2656 14.086-0.33984 3.7812 2.9258 2.4258 10.895 9.0273-13.801 3.1484-3.7031 0.84766-1.4023 3.5273-5.2266 13.141-7.2578-12.137-1.9492-3.2578-3.793-0.24609-14.121-0.90234 9.3086-10.652 2.5-2.8594-0.94141-3.6836-3.5039-13.699 13.016 5.5547 3.4922 1.4922 3.2148-2.0312 11.953-7.5625" fill="#f4f4f4"/>
</g>
<g clip-path="url(#c)">
<path d="m1464.2 385.46-24.332 15.395-26.484-11.309 7.1289 27.883-18.945 21.68 28.738 1.8438 14.777 24.699 10.633-26.746 28.074-6.4062-22.168-18.375zm-8.5117 13.934-1.2656 14.086-0.33984 3.7852 2.9258 2.4219 10.895 9.0273-13.801 3.1523-3.7031 0.84375-1.4023 3.5312-5.2266 13.141-7.2578-12.141-1.9492-3.2578-3.793-0.24219-14.121-0.90625 9.3086-10.652 2.5-2.8594-0.94141-3.6797-3.5039-13.703 13.016 5.5547 3.4922 1.4961 3.2148-2.0352 11.953-7.5625" fill="#f4f4f4"/>
</g>
<g clip-path="url(#b)">
<path d="m1105.6 27.07-24.336 15.391-26.48-11.309 7.125 27.891-18.941 21.676 28.738 1.8398 14.773 24.703 10.637-26.746 28.074-6.4102-22.168-18.371zm-8.5117 13.934-1.2656 14.086-0.33984 3.7812 2.9258 2.4258 10.891 9.0273-13.793 3.1484-3.707 0.84766-1.4023 3.5273-5.2266 13.141-7.2617-12.137-1.9453-3.2578-3.7969-0.24609-14.121-0.90234 9.3086-10.652 2.5-2.8594-0.94141-3.6836-3.5-13.699 13.012 5.5547 3.4961 1.4922 3.2109-2.0312 11.957-7.5625" fill="#f4f4f4"/>
</g>
<g clip-path="url(#a)">
<path d="m1105.6 385.46-24.336 15.395-26.48-11.309 7.125 27.883-18.941 21.68 28.738 1.8438 14.773 24.699 10.637-26.746 28.074-6.4062-22.168-18.375zm-8.5117 13.934-1.2656 14.086-0.33984 3.7852 2.9258 2.4219 10.891 9.0273-13.793 3.1523-3.707 0.84375-1.4023 3.5312-5.2266 13.141-7.2617-12.137-1.9453-3.2617-3.7969-0.24219-14.121-0.90625 9.3086-10.652 2.5-2.8594-0.94141-3.6797-3.5-13.703 13.012 5.5547 3.4961 1.4961 3.2109-2.0352 11.957-7.5625" fill="#f4f4f4"/>
</g>
<path d="m1172.1 193.71-3.625 28.551-25.59 13.203 26.051 12.266 4.6562 28.402 19.723-20.965 28.469 4.3516-13.859-25.23 12.941-25.711-28.293 5.375zm5.3281 15.43 10.062 9.9492 2.6992 2.668 3.7344-0.70703 13.902-2.6406-6.3594 12.633-1.707 3.3945 1.8281 3.3281 6.8086 12.398-13.988-2.1406-3.7539-0.57422-2.6055 2.7695-9.6914 10.301-2.2891-13.957-0.61328-3.7461-3.4375-1.6211-12.801-6.0273 12.574-6.4883 3.375-1.7383 0.48047-3.7695 1.7812-14.031" fill="#f4f4f4"/>
<path d="m1297.4 183.29-12.848 8.207-0.51953 15.227-11.781-9.6758-14.652 4.2148 5.5664-14.184-8.5352-12.629 15.219 0.91016 9.3789-12.016 3.8398 14.746 14.332 5.1992" fill="#f4f4f4"/>
<path d="m1371.8 352.57-1.3633 15.176 11.734 9.7305-14.863 3.3906-5.6289 14.164-7.8242-13.082-15.215-0.97656 10.031-11.473-3.7773-14.77 14.023 5.9883 12.883-8.1484" fill="#f4f4f4"/>
<path d="m1194 76.406-1.3633 15.176 11.738 9.7305-14.867 3.3906-5.6289 14.164-7.8242-13.082-15.215-0.97656 10.031-11.473-3.7734-14.77 14.02 5.9883 12.883-8.1484" fill="#f4f4f4"/>
<path d="m1128.2 140.23 5.9062 15.09 15.785 3.6953-12.535 10.273 1.3594 16.148-13.652-8.7422-14.941 6.2812 4.0977-15.672-10.598-12.262 16.184-0.95312 8.3945-13.859" fill="#f4f4f4"/>
<path d="m1363.2 233.06-15.816 26.121-30.496 1.7852 19.969 23.102-7.7227 29.539 28.156-11.84 25.723 16.469-2.5664-30.422 23.621-19.359-29.742-6.9609zm-1.3984 16.266 5.7891 14.797 1.3867 3.5391 3.6992 0.86719 15.48 3.625-12.293 10.074-2.9414 2.4102 0.32031 3.7852 1.3359 15.832-13.391-8.5703-3.1992-2.0469-3.5 1.4688-14.656 6.1641 4.0195-15.375 0.95703-3.6719-2.4805-2.8789-10.395-12.023 15.871-0.92969 3.7969-0.22266 1.9688-3.25 8.2305-13.594" fill="#f4f4f4"/>
<path d="m1391.6 143.88 5.9062 15.086 15.785 3.6953-12.535 10.277 1.3594 16.145-13.652-8.7422-14.941 6.2852 4.0977-15.676-10.598-12.262 16.184-0.94922 8.3945-13.859" fill="#f4f4f4"/>
<path d="m1238.2 288.13 5.9062 15.09 15.785 3.6953-12.535 10.273 1.3594 16.145-13.648-8.7383-14.945 6.2852 4.0977-15.676-10.598-12.266 16.184-0.94531 8.3945-13.863" fill="#f4f4f4"/>
<path d="m1115.6 304.68 3.0664 7.9727 8.3125 1.9961-6.6445 5.3828 0.67188 8.5195-7.1719-4.6523-7.8984 3.2695 2.207-8.2578-5.5508-6.5 8.5391-0.44922 4.4688-7.2812" fill="#f4f4f4"/>
<path d="m1284.2 238.49 3.0703 7.9766 8.3125 2-6.6406 5.375 0.66797 8.5195-7.1719-4.6484-7.9023 3.2656 2.2109-8.2539-5.5508-6.5 8.5352-0.44922 4.4688-7.2852" fill="#f4f4f4"/>
<path d="m1254.9 366.57 6.5625 5.4766 8.2344-2.293-3.1836 7.9297 4.7266 7.1172-8.5312-0.57813-5.3125 6.6953-2.0859-8.2852-8.0117-2.9844 7.2422-4.5391 0.35938-8.5391" fill="#f4f4f4"/>
<path d="m1408.9 218.82 6.5586 5.4805 8.2383-2.2969-3.1914 7.9297 4.7305 7.1211-8.5312-0.58203-5.3125 6.6953-2.0859-8.2852-8.0117-2.9844 7.2422-4.543 0.36328-8.5352" fill="#f4f4f4"/>
<path d="m1102 226.08 6.5625 5.4766 8.2383-2.293-3.1914 7.9297 4.7305 7.1172-8.5312-0.57812-5.3125 6.6953-2.0859-8.2852-8.0117-2.9844 7.2422-4.543 0.35938-8.5352" fill="#f4f4f4"/>
<path d="m1265.6 84.852-0.37109 8.5352 6.8281 5.1445-8.2383 2.2852-2.7812 8.082-4.7227-7.1211-8.5508-0.15234 5.3203-6.6875-2.5-8.1719 8.0078 2.9844 7.0078-4.8984" fill="#f4f4f4"/>
<path d="m1332.2 154.46-0.36719 8.5352 6.8281 5.1445-8.2383 2.2852-2.7852 8.082-4.7227-7.125-8.5508-0.14844 5.3203-6.6914-2.4961-8.1719 8.0078 2.9883 7.0039-4.8984" fill="#f4f4f4"/>
<path d="m1337.1 70.91 4.8711 12.445 13.02 3.0469-10.34 8.4727 1.1211 13.32-11.258-7.2109-12.328 5.1836 3.3828-12.934-8.7422-10.109 13.352-0.78125 6.9219-11.434" fill="#f4f4f4"/>
<path d="m1154.5 352.25 11.379 9.9258 14.637-3.7461-5.9297 13.887 8.0859 12.75-15.047-1.3398-9.6328 11.625-3.375-14.719-14.039-5.5664 12.961-7.75 0.96094-15.066" fill="#f4f4f4"/>
</svg>
